<?xml version="1.0" encoding="utf-8"?>
<!-- Generator: Adobe Illustrator 22.0.0, SVG Export Plug-In . SVG Version: 6.00 Build 0)  -->
<svg version="1.1" id="Layer_1" xmlns="http://www.w3.org/2000/svg" xmlns:xlink="http://www.w3.org/1999/xlink" x="0px" y="0px"
	 viewBox="0 0 300 138.4" style="enable-background:new 0 0 300 138.4;" xml:space="preserve">
<style type="text/css">
	.st0{fill:#DA2128;}
	.st1{fill:#FFDE00;}
</style>
<rect class="st0" width="300" height="138"/>
<polygon class="st1" points="60.3,14.3 62.1,19.8 67.9,19.8 63.2,23.3 65,28.8 60.3,25.4 55.6,28.8 57.4,23.3 52.8,19.8 58.5,19.8 
	"/>
<polygon class="st1" points="60.3,49.1 62.1,54.6 67.9,54.6 63.2,58 65,63.5 60.3,60.1 55.6,63.5 57.4,58 52.8,54.6 58.5,54.6 "/>
<polygon class="st1" points="76.4,39.8 78.2,45.3 84,45.3 79.3,48.7 81.1,54.2 76.4,50.8 71.7,54.2 73.5,48.7 68.8,45.3 74.6,45.3 
	"/>
<polygon class="st1" points="76.4,22 78.2,27.5 84,27.5 79.3,30.9 81.1,36.4 76.4,33 71.7,36.4 73.5,30.9 68.8,27.5 74.6,27.5 "/>
<polygon class="st1" points="31.5,21.4 36.4,36.6 52.2,36.6 39.4,45.9 44.3,61 31.5,51.7 18.6,61 23.5,45.9 10.7,36.6 26.5,36.6 "/>
</svg>
