<?xml version="1.0" encoding="utf-8"?>
<!-- Generator: Adobe Illustrator 22.0.0, SVG Export Plug-In . SVG Version: 6.00 Build 0)  -->
<svg version="1.1" id="Layer_1" xmlns="http://www.w3.org/2000/svg" xmlns:xlink="http://www.w3.org/1999/xlink" x="0px" y="0px"
	 viewBox="0 0 225.3 201.3" style="enable-background:new 0 0 225.3 201.3;" xml:space="preserve">
<style type="text/css">
	.st0{fill:#F6921E;}
	.st1{fill:#FAAF3B;}
</style>
<g>
	
		<ellipse transform="matrix(0.9999 -1.561234e-02 1.561234e-02 0.9999 -1.61 1.7853)" class="st0" cx="113.5" cy="104" rx="32.5" ry="32.5"/>
	<g>
		<path class="st1" d="M113.2,65.5c0,0-0.4-0.6-0.9-1.7c-0.2-0.5-0.5-1.2-0.8-2c-0.3-0.8-0.5-1.6-0.7-2.5c-0.2-0.9-0.4-1.9-0.6-3
			c-0.2-1.1-0.3-2.2-0.2-3.3c0-1.2,0.2-2.4,0.4-3.6c0.2-1.2,0.3-2.5,0.5-3.7c0.2-2.5,0.4-5,0.7-7.3c0.3-2.3,0.5-4.5,0.8-6.3
			c0.5-3.7,0.9-6.2,0.9-6.2c0-0.2,0.2-0.3,0.4-0.3c0.2,0,0.3,0.1,0.3,0.3c0,0,0.4,2.5,0.9,6.2c0.2,1.9,0.5,4,0.8,6.3
			c0.3,2.3,0.5,4.8,0.7,7.3c0.1,1.2,0.3,2.5,0.5,3.7c0.2,1.2,0.3,2.4,0.4,3.6c0,1.2-0.1,2.3-0.2,3.3c-0.1,1.1-0.3,2.1-0.6,3
			c-0.2,0.9-0.5,1.8-0.7,2.5c-0.2,0.8-0.5,1.4-0.8,2c-0.5,1.1-0.9,1.7-0.9,1.7c-0.1,0.2-0.4,0.2-0.6,0.1
			C113.3,65.6,113.2,65.6,113.2,65.5z"/>
		<path class="st1" d="M100.1,67.9c0,0-0.4-0.2-0.9-0.5c-0.3-0.2-0.5-0.4-0.8-0.7c-0.3-0.3-0.6-0.6-0.9-0.9
			c-0.6-0.7-1.2-1.5-1.6-2.6c-0.4-1-0.4-2.3-0.7-3.4c-0.3-1.1-0.6-2.3-0.8-3.4c-0.2-1.1-0.4-2.1-0.6-3c-0.3-1.8-0.5-2.9-0.5-2.9
			c0-0.1,0.1-0.3,0.2-0.3c0.1,0,0.2,0,0.2,0.1c0,0,0.7,1,1.6,2.5c0.5,0.8,1,1.6,1.6,2.6c0.6,0.9,1.1,2,1.7,3c0.6,1,1.4,2,1.8,3
			c0.4,1,0.5,2.1,0.5,3c0,0.5,0,0.9-0.1,1.3c0,0.4-0.1,0.8-0.2,1.1c-0.1,0.6-0.3,1-0.3,1C100.5,67.9,100.3,68,100.1,67.9
			C100.2,67.9,100.1,67.9,100.1,67.9z"/>
		<path class="st1" d="M88.5,74.7c0,0-0.7-0.2-1.8-0.7c-0.5-0.3-1.2-0.6-1.9-1c-0.7-0.4-1.4-0.9-2.2-1.5c-0.8-0.6-1.6-1.2-2.4-1.9
			c-0.8-0.7-1.6-1.5-2.3-2.4c-0.7-0.9-1.4-1.9-2-3c-0.6-1.1-1.3-2.1-2-3.1c-1.4-2-2.8-4.1-4.1-6c-1.3-1.9-2.5-3.8-3.5-5.4
			c-2-3.2-3.3-5.3-3.3-5.3c-0.1-0.2,0-0.4,0.1-0.5c0.1-0.1,0.3-0.1,0.4,0c0,0,1.9,1.6,4.7,4.2c1.4,1.3,3,2.8,4.7,4.4
			c1.7,1.6,3.5,3.4,5.2,5.1c0.9,0.9,1.8,1.7,2.7,2.5c0.9,0.8,1.8,1.6,2.6,2.5c0.8,0.9,1.4,1.8,2,2.7c0.6,0.9,1.1,1.8,1.5,2.7
			c0.4,0.9,0.8,1.7,1.1,2.4c0.3,0.7,0.5,1.4,0.7,2c0.3,1.1,0.4,1.9,0.4,1.9c0,0.2-0.1,0.4-0.3,0.5C88.7,74.8,88.6,74.8,88.5,74.7z"
			/>
		<path class="st1" d="M80.1,85c0,0-0.4,0.1-1,0.2c-0.3,0-0.7,0-1.1,0c-0.4,0-0.8,0-1.3-0.1c-0.9-0.1-1.9-0.4-2.9-0.9
			c-0.9-0.6-1.8-1.5-2.7-2.2c-0.9-0.7-1.9-1.4-2.7-2.1c-0.9-0.7-1.7-1.3-2.3-1.9c-1.4-1.1-2.2-2-2.2-2c-0.1-0.1-0.1-0.3,0-0.4
			c0.1-0.1,0.2-0.1,0.2-0.1c0,0,1.2,0.3,2.9,0.8c0.8,0.3,1.8,0.6,2.9,1c1.1,0.3,2.1,0.8,3.2,1.2c1.1,0.4,2.3,0.6,3.3,1.1
			c1,0.5,1.7,1.2,2.3,1.9c0.3,0.3,0.6,0.7,0.8,1c0.2,0.3,0.4,0.6,0.5,0.9c0.3,0.5,0.4,0.9,0.4,0.9C80.4,84.7,80.3,84.9,80.1,85
			C80.1,85,80.1,85,80.1,85z"/>
		<path class="st1" d="M75.6,97.7c0,0-0.7,0.3-1.8,0.6c-0.6,0.1-1.3,0.3-2.1,0.4c-0.8,0.1-1.7,0.2-2.6,0.3c-1,0.1-2,0.1-3.1,0
			c-1.1,0-2.2-0.1-3.3-0.3c-1.1-0.2-2.3-0.6-3.5-1c-1.2-0.4-2.4-0.8-3.6-1.1c-2.4-0.7-4.8-1.3-7-2c-2.2-0.7-4.3-1.3-6.1-1.9
			c-3.6-1.1-5.9-2-5.9-2c-0.2-0.1-0.3-0.3-0.2-0.4c0.1-0.1,0.2-0.2,0.3-0.2c0,0,2.5,0,6.3,0.2c1.9,0.1,4.1,0.2,6.4,0.3
			c2.3,0.1,4.8,0.4,7.3,0.6c1.2,0.1,2.5,0.1,3.7,0.2c1.2,0,2.4,0.1,3.6,0.3c1.1,0.2,2.2,0.5,3.3,0.8c1,0.3,2,0.7,2.9,1.1
			c0.9,0.4,1.7,0.8,2.4,1.2c0.7,0.4,1.3,0.8,1.8,1.1c1,0.7,1.5,1.2,1.5,1.2c0.2,0.2,0.2,0.4,0,0.6C75.7,97.6,75.6,97.6,75.6,97.7z"
			/>
		<path class="st1" d="M75.7,110.9c0,0-0.2,0.3-0.7,0.8c-0.2,0.2-0.5,0.5-0.8,0.7c-0.3,0.3-0.7,0.5-1.1,0.8c-0.8,0.5-1.7,1-2.8,1.2
			c-1.1,0.2-2.3,0-3.5,0.1c-1.2,0.1-2.3,0.1-3.5,0.2c-1.1,0-2.1,0-3,0c-1.8,0-3-0.1-3-0.1c-0.1,0-0.2-0.1-0.2-0.3
			c0-0.1,0.1-0.2,0.1-0.2c0,0,1.1-0.5,2.7-1.2c0.8-0.3,1.8-0.7,2.8-1.1c1-0.4,2.1-0.8,3.3-1.2c1.1-0.4,2.2-1,3.2-1.2
			c1.1-0.2,2.1-0.1,3,0c0.5,0.1,0.9,0.2,1.3,0.3c0.4,0.1,0.7,0.2,1,0.4c0.6,0.2,0.9,0.5,0.9,0.5C75.7,110.6,75.8,110.8,75.7,110.9
			C75.7,110.9,75.7,110.9,75.7,110.9z"/>
		<path class="st1" d="M80.4,123.5c0,0-0.3,0.7-1,1.6c-0.4,0.5-0.8,1.1-1.3,1.6c-0.5,0.6-1.1,1.3-1.8,1.9c-0.7,0.7-1.5,1.3-2.3,2
			c-0.8,0.7-1.8,1.3-2.8,1.9c-1,0.6-2.1,1-3.3,1.5c-1.1,0.5-2.3,0.9-3.4,1.4c-2.3,1-4.5,2.1-6.7,3c-2.1,0.9-4.2,1.8-5.9,2.5
			c-3.5,1.4-5.8,2.3-5.8,2.3c-0.2,0.1-0.4,0-0.4-0.2c-0.1-0.1,0-0.3,0.1-0.4c0,0,1.9-1.6,4.9-3.9c1.5-1.1,3.2-2.5,5.1-3.8
			c1.9-1.4,3.9-2.8,5.9-4.3c1-0.7,2-1.5,3-2.2c1-0.8,1.9-1.5,2.9-2.1c1-0.6,2-1.1,3-1.5c1-0.4,2-0.7,2.9-1c0.9-0.3,1.8-0.5,2.6-0.6
			c0.8-0.2,1.5-0.2,2.1-0.3c1.2-0.1,1.9-0.1,1.9-0.1c0.2,0,0.4,0.2,0.4,0.4C80.4,123.4,80.4,123.5,80.4,123.5z"/>
		<path class="st1" d="M89,133.6c0,0,0,0.4,0,1c0,0.3-0.1,0.7-0.1,1.1c-0.1,0.4-0.2,0.8-0.3,1.3c-0.3,0.9-0.7,1.8-1.4,2.7
			c-0.7,0.8-1.8,1.5-2.6,2.3c-0.9,0.8-1.7,1.6-2.5,2.3c-0.8,0.7-1.6,1.4-2.3,2c-1.4,1.1-2.3,1.9-2.3,1.9c-0.1,0.1-0.3,0.1-0.4,0
			c-0.1-0.1-0.1-0.2,0-0.3c0,0,0.5-1.1,1.3-2.7c0.4-0.8,0.9-1.7,1.4-2.7c0.5-1,1.1-2,1.7-3c0.6-1,1-2.2,1.7-3c0.7-0.9,1.5-1.5,2.3-2
			c0.4-0.2,0.8-0.4,1.2-0.6c0.4-0.2,0.7-0.3,1-0.4c0.6-0.2,1-0.2,1-0.2C88.8,133.3,89,133.5,89,133.6C89,133.6,89,133.6,89,133.6z"
			/>
		<path class="st1" d="M100.7,140.3c0,0,0.2,0.7,0.2,1.9c0,0.6,0.1,1.3,0.1,2.1c0,0.8-0.1,1.7-0.2,2.6c-0.1,1-0.3,2-0.5,3
			c-0.2,1.1-0.5,2.1-0.9,3.2c-0.4,1.1-1,2.2-1.6,3.2c-0.6,1.1-1.2,2.2-1.7,3.3c-1.1,2.2-2.1,4.5-3.2,6.6c-1,2.1-2,4-2.9,5.7
			c-1.7,3.3-3,5.5-3,5.5c-0.1,0.2-0.3,0.2-0.5,0.1c-0.1-0.1-0.2-0.2-0.2-0.4c0,0,0.5-2.5,1.3-6.1c0.4-1.8,0.9-4,1.4-6.2
			c0.5-2.3,1.2-4.7,1.8-7.1c0.3-1.2,0.6-2.4,0.8-3.6c0.2-1.2,0.5-2.4,0.9-3.5c0.4-1.1,0.9-2.1,1.4-3.1c0.5-0.9,1-1.8,1.6-2.6
			c0.5-0.8,1.1-1.5,1.6-2.1c0.5-0.6,1-1.1,1.4-1.6c0.8-0.9,1.4-1.3,1.4-1.3c0.2-0.1,0.4-0.1,0.6,0.1
			C100.7,140.2,100.7,140.2,100.7,140.3z"/>
		<path class="st1" d="M113.8,142.5c0,0,0.3,0.3,0.6,0.8c0.2,0.2,0.4,0.6,0.6,0.9c0.2,0.3,0.4,0.7,0.6,1.2c0.3,0.9,0.6,1.9,0.6,3
			c0,1.1-0.4,2.3-0.5,3.4c-0.1,1.2-0.3,2.3-0.4,3.4c-0.2,1.1-0.3,2.1-0.5,3c-0.3,1.8-0.6,2.9-0.6,2.9c0,0.1-0.2,0.2-0.3,0.2
			c-0.1,0-0.2-0.1-0.2-0.2c0,0-0.3-1.2-0.7-2.9c-0.2-0.9-0.4-1.9-0.6-3c-0.2-1.1-0.4-2.2-0.6-3.4c-0.2-1.2-0.6-2.3-0.7-3.4
			c0-1.1,0.2-2.1,0.5-3c0.1-0.4,0.3-0.8,0.5-1.2c0.2-0.4,0.4-0.7,0.5-0.9c0.3-0.5,0.6-0.8,0.6-0.8
			C113.4,142.4,113.6,142.4,113.8,142.5C113.8,142.5,113.8,142.5,113.8,142.5z"/>
		<path class="st1" d="M127,140.1c0,0,0.6,0.4,1.4,1.3c0.4,0.4,0.9,0.9,1.4,1.6c0.5,0.6,1,1.3,1.6,2.1c0.5,0.8,1.1,1.7,1.6,2.6
			c0.5,0.9,1,2,1.4,3.1c0.4,1.1,0.6,2.3,0.9,3.5c0.2,1.2,0.5,2.4,0.8,3.6c0.6,2.4,1.3,4.8,1.8,7.1c0.6,2.3,1,4.4,1.4,6.2
			c0.8,3.7,1.3,6.1,1.3,6.1c0,0.2-0.1,0.4-0.3,0.4c-0.1,0-0.3,0-0.4-0.2c0,0-1.2-2.2-3-5.5c-0.9-1.7-1.9-3.6-2.9-5.7
			c-1.1-2.1-2.1-4.3-3.2-6.6c-0.5-1.1-1.1-2.2-1.7-3.3c-0.6-1.1-1.1-2.2-1.6-3.2c-0.4-1.1-0.7-2.2-0.9-3.2c-0.2-1-0.4-2.1-0.5-3
			c-0.1-0.9-0.2-1.8-0.2-2.6c0-0.8,0-1.5,0.1-2.1c0.1-1.2,0.2-1.9,0.2-1.9c0-0.2,0.3-0.4,0.5-0.3C126.9,140,127,140,127,140.1z"/>
		<path class="st1" d="M138.5,133.3c0,0,0.4,0,1,0.2c0.3,0.1,0.6,0.2,1,0.3c0.4,0.1,0.8,0.3,1.2,0.5c0.8,0.5,1.7,1,2.4,1.9
			c0.7,0.8,1.2,2,1.8,3c0.6,1,1.3,2,1.9,2.9c0.6,0.9,1.1,1.8,1.6,2.6c0.9,1.5,1.4,2.6,1.4,2.6c0.1,0.1,0,0.3-0.1,0.3
			c-0.1,0-0.2,0-0.3,0c0,0-1-0.7-2.4-1.8c-0.7-0.5-1.5-1.2-2.4-1.9c-0.9-0.7-1.7-1.5-2.6-2.2c-0.9-0.8-2-1.4-2.7-2.2
			c-0.7-0.8-1.2-1.8-1.5-2.6c-0.2-0.4-0.3-0.9-0.4-1.2c-0.1-0.4-0.2-0.7-0.2-1.1c-0.1-0.6-0.1-1-0.1-1
			C138.1,133.5,138.3,133.3,138.5,133.3C138.5,133.3,138.5,133.3,138.5,133.3z"/>
		<path class="st1" d="M147,123c0,0,0.7,0,1.9,0.1c0.6,0.1,1.3,0.1,2.1,0.3c0.8,0.2,1.7,0.4,2.6,0.6c0.9,0.3,1.9,0.6,2.9,1
			c1,0.4,2,0.9,3,1.5c1,0.6,2,1.3,2.9,2.1c1,0.8,2,1.5,3,2.3c2,1.4,4.1,2.9,5.9,4.3c1.9,1.4,3.6,2.7,5.1,3.8c3,2.3,4.9,3.9,4.9,3.9
			c0.1,0.1,0.2,0.3,0,0.5c-0.1,0.1-0.3,0.2-0.4,0.1c0,0-2.3-0.9-5.8-2.3c-1.7-0.7-3.7-1.6-5.9-2.5c-2.2-0.9-4.4-2-6.7-3
			c-1.1-0.5-2.3-1-3.4-1.4c-1.1-0.5-2.3-0.9-3.3-1.5c-1-0.6-1.9-1.2-2.8-1.9c-0.8-0.7-1.6-1.3-2.3-2c-0.7-0.7-1.3-1.3-1.8-1.9
			c-0.5-0.6-1-1.2-1.3-1.6c-0.7-1-1-1.6-1-1.6c-0.1-0.2,0-0.4,0.2-0.5C146.9,123,147,123,147,123z"/>
		<path class="st1" d="M151.5,110.5c0,0,0.3-0.2,0.9-0.5c0.3-0.1,0.6-0.3,1-0.4c0.4-0.1,0.8-0.3,1.3-0.3c0.9-0.2,2-0.3,3-0.1
			c1.1,0.2,2.2,0.8,3.3,1.1c1.1,0.3,2.3,0.7,3.3,1c1.1,0.3,2,0.7,2.9,1c1.7,0.6,2.8,1.1,2.8,1.1c0.1,0.1,0.2,0.2,0.1,0.3
			c0,0.1-0.1,0.1-0.2,0.2c0,0-1.2,0.1-3,0.2c-0.9,0-1.9,0.1-3,0.1c-1.1,0-2.3,0-3.5,0c-1.2,0-2.4,0.2-3.5,0.1c-1.1-0.2-2-0.6-2.9-1
			c-0.4-0.2-0.8-0.5-1.1-0.7c-0.3-0.2-0.6-0.5-0.8-0.7c-0.5-0.4-0.7-0.7-0.7-0.7C151.3,110.8,151.3,110.6,151.5,110.5
			C151.5,110.5,151.5,110.5,151.5,110.5z"/>
		<path class="st1" d="M151.4,97c0,0,0.5-0.5,1.5-1.2c0.5-0.3,1.1-0.7,1.8-1.1c0.7-0.4,1.5-0.8,2.4-1.2c0.9-0.4,1.8-0.8,2.9-1.1
			c1-0.3,2.1-0.6,3.3-0.8c1.1-0.2,2.4-0.2,3.6-0.3c1.2,0,2.5-0.1,3.7-0.2c2.5-0.2,5-0.4,7.3-0.5c2.3-0.2,4.5-0.3,6.4-0.3
			c3.7-0.2,6.3-0.2,6.3-0.2c0.2,0,0.3,0.2,0.3,0.3c0,0.2-0.1,0.3-0.2,0.3c0,0-2.4,0.8-5.9,2c-1.8,0.6-3.9,1.2-6.1,1.9
			c-2.2,0.7-4.6,1.3-7,2c-1.2,0.3-2.4,0.7-3.6,1.1c-1.2,0.4-2.3,0.8-3.5,1c-1.1,0.2-2.3,0.3-3.3,0.3c-1.1,0-2.1,0-3.1,0
			c-1-0.1-1.8-0.2-2.6-0.3c-0.8-0.1-1.5-0.3-2.1-0.4c-1.2-0.3-1.8-0.6-1.8-0.6c-0.2-0.1-0.3-0.3-0.2-0.5
			C151.3,97.1,151.3,97,151.4,97z"/>
		<path class="st1" d="M146.7,84.6c0,0,0.1-0.4,0.4-1c0.1-0.3,0.3-0.6,0.5-0.9c0.2-0.3,0.5-0.7,0.7-1.1c0.6-0.7,1.3-1.5,2.2-2
			c0.9-0.5,2.2-0.8,3.2-1.3c1.1-0.5,2.2-0.9,3.2-1.3c1-0.4,2-0.8,2.8-1.1c1.7-0.6,2.8-1,2.8-1c0.1,0,0.3,0,0.3,0.2
			c0,0.1,0,0.2-0.1,0.3c0,0-0.8,0.9-2.2,2.1c-0.7,0.6-1.4,1.3-2.3,2c-0.8,0.7-1.7,1.5-2.7,2.2c-0.9,0.7-1.7,1.7-2.6,2.3
			c-0.9,0.6-1.9,0.9-2.9,1c-0.5,0.1-0.9,0.1-1.3,0.2c-0.4,0-0.8,0-1.1,0c-0.6,0-1-0.1-1-0.1C146.8,84.9,146.7,84.7,146.7,84.6
			C146.7,84.6,146.7,84.6,146.7,84.6z"/>
		<path class="st1" d="M138,74.3c0,0,0.1-0.7,0.4-1.9c0.2-0.6,0.4-1.3,0.7-2c0.3-0.7,0.6-1.6,1.1-2.4c0.4-0.9,0.9-1.8,1.5-2.7
			c0.6-0.9,1.2-1.8,2-2.7c0.8-0.9,1.7-1.7,2.6-2.5c0.9-0.8,1.8-1.7,2.7-2.5c1.8-1.7,3.5-3.5,5.2-5.1c1.7-1.6,3.3-3.1,4.7-4.4
			c2.8-2.5,4.7-4.2,4.7-4.2c0.1-0.1,0.4-0.1,0.5,0c0.1,0.1,0.1,0.3,0,0.4c0,0-1.3,2.2-3.3,5.3c-1,1.6-2.2,3.4-3.5,5.4
			c-1.3,2-2.7,4-4.1,6c-0.7,1-1.4,2.1-2,3.1c-0.6,1.1-1.3,2.1-2,3c-0.7,0.9-1.5,1.7-2.3,2.4c-0.8,0.7-1.6,1.4-2.4,1.9
			c-0.8,0.6-1.5,1.1-2.2,1.5c-0.7,0.4-1.3,0.7-1.9,1c-1.1,0.5-1.8,0.7-1.8,0.7c-0.2,0.1-0.4-0.1-0.5-0.3C138,74.4,138,74.4,138,74.3
			z"/>
		<path class="st1" d="M126.5,67.8c0,0-0.2-0.4-0.3-1c-0.1-0.3-0.2-0.6-0.2-1c-0.1-0.4-0.1-0.8-0.1-1.3c0-0.9,0-2,0.4-3
			c0.4-1,1.1-2,1.7-3c0.5-1,1-2.1,1.6-3.1c0.5-1,1-1.9,1.5-2.6c0.9-1.5,1.5-2.5,1.5-2.5c0.1-0.1,0.2-0.2,0.3-0.1
			c0.1,0.1,0.1,0.1,0.1,0.2c0,0-0.1,1.2-0.3,3c-0.1,0.9-0.3,1.9-0.4,3c-0.2,1.1-0.4,2.2-0.6,3.4c-0.2,1.1-0.2,2.4-0.5,3.4
			c-0.3,1-0.9,1.9-1.5,2.6c-0.3,0.4-0.6,0.7-0.9,1c-0.3,0.3-0.6,0.5-0.8,0.7c-0.5,0.4-0.9,0.6-0.9,0.6
			C126.8,68,126.6,67.9,126.5,67.8C126.5,67.8,126.5,67.8,126.5,67.8z"/>
	</g>
</g>
</svg>
