<?xml version="1.0" encoding="utf-8"?>
<!-- Generator: Adobe Illustrator 22.0.0, SVG Export Plug-In . SVG Version: 6.00 Build 0)  -->
<svg version="1.1" id="Layer_1" xmlns="http://www.w3.org/2000/svg" xmlns:xlink="http://www.w3.org/1999/xlink" x="0px" y="0px"
	 viewBox="0 0 300 138.4" style="enable-background:new 0 0 300 138.4;" xml:space="preserve">
<style type="text/css">
	.st0{fill:#E6E7E8;}
	.st1{fill:#DA2128;}
	.st2{fill:#006BB5;}
	.st3{fill:#EDEDEE;}
</style>
<rect class="st0" width="300" height="138"/>
<g>
	<path class="st1" d="M-13,128.8c0,5.1,7,9.2,15.7,9.2h306.5c8.7,0,15.7-4.1,15.7-9.2v-1.5H-13V128.8z"/>
	<rect x="-13" y="106.1" class="st1" width="338" height="10.7"/>
	<rect x="-13" y="84.9" class="st1" width="338" height="10.6"/>
	<rect x="-13" y="63.7" class="st1" width="338" height="10.7"/>
	<rect x="-13" y="42.5" class="st1" width="338" height="10.7"/>
	<rect x="-13" y="21.3" class="st1" width="338" height="10.7"/>
	<path class="st1" d="M325,9.4c0-5.1-7-9.2-15.7-9.2H2.7C-6,0.3-13,4.4-13,9.4v1.5h338V9.4z"/>
</g>
<rect class="st2" width="100" height="74.8"/>
<g>
	<polygon class="st3" points="8.7,5.6 9.7,8.4 12.6,8.4 10.2,10.1 11.1,13 8.7,11.3 6.4,13 7.3,10.1 4.9,8.4 7.8,8.4 	"/>
	<polygon class="st3" points="24.6,5.6 25.5,8.4 28.4,8.4 26.1,10.1 27,13 24.6,11.3 22.3,13 23.2,10.1 20.8,8.4 23.7,8.4 	"/>
	<polygon class="st3" points="41.1,5.6 42,8.4 44.9,8.4 42.6,10.1 43.5,13 41.1,11.3 38.8,13 39.6,10.1 37.3,8.4 40.2,8.4 	"/>
	<polygon class="st3" points="57.7,5.6 58.6,8.4 61.5,8.4 59.1,10.1 60,13 57.7,11.3 55.3,13 56.2,10.1 53.9,8.4 56.8,8.4 	"/>
	<polygon class="st3" points="74.2,5.6 75,8.4 78,8.4 75.6,10.1 76.5,13 74.2,11.3 71.8,13 72.7,10.1 70.4,8.4 73.3,8.4 	"/>
	<polygon class="st3" points="16.3,13.3 17.2,16.2 20.1,16.2 17.8,17.9 18.7,20.8 16.3,19 14,20.8 14.9,17.9 12.5,16.2 15.4,16.2 	
		"/>
	<polygon class="st3" points="32.2,13.3 33.1,16.2 36,16.2 33.6,17.9 34.5,20.8 32.2,19 29.8,20.8 30.7,17.9 28.3,16.2 31.3,16.2 	
		"/>
	<polygon class="st3" points="48.7,13.3 49.6,16.2 52.5,16.2 50.1,17.9 51.1,20.8 48.7,19 46.3,20.8 47.3,17.9 44.9,16.2 47.8,16.2 
			"/>
	<polygon class="st3" points="65.2,13.3 66.1,16.2 69,16.2 66.7,17.9 67.6,20.8 65.2,19 62.9,20.8 63.8,17.9 61.4,16.2 64.3,16.2 	
		"/>
	<polygon class="st3" points="81.8,13.3 82.6,16.2 85.5,16.2 83.2,17.9 84.1,20.8 81.8,19 79.4,20.8 80.3,17.9 78,16.2 80.9,16.2 	
		"/>
	<polygon class="st3" points="16.3,27.5 17.2,30.3 20.1,30.3 17.8,32.1 18.7,35 16.3,33.2 14,35 14.9,32.1 12.5,30.3 15.4,30.3 	"/>
	<polygon class="st3" points="32.2,27.5 33.1,30.3 36,30.3 33.6,32.1 34.5,35 32.2,33.2 29.8,35 30.7,32.1 28.3,30.3 31.3,30.3 	"/>
	<polygon class="st3" points="48.7,27.5 49.6,30.3 52.5,30.3 50.1,32.1 51.1,35 48.7,33.2 46.3,35 47.3,32.1 44.9,30.3 47.8,30.3 	
		"/>
	<polygon class="st3" points="65.2,27.5 66.1,30.3 69,30.3 66.7,32.1 67.6,35 65.2,33.2 62.9,35 63.8,32.1 61.4,30.3 64.3,30.3 	"/>
	<polygon class="st3" points="81.8,27.5 82.6,30.3 85.5,30.3 83.2,32.1 84.1,35 81.8,33.2 79.4,35 80.3,32.1 78,30.3 80.9,30.3 	"/>
	<polygon class="st3" points="16.3,41.7 17.2,44.5 20.1,44.5 17.8,46.3 18.7,49.1 16.3,47.3 14,49.1 14.9,46.3 12.5,44.5 15.4,44.5 
			"/>
	<polygon class="st3" points="32.2,41.7 33.1,44.5 36,44.5 33.6,46.3 34.5,49.1 32.2,47.3 29.8,49.1 30.7,46.3 28.3,44.5 31.3,44.5 
			"/>
	<polygon class="st3" points="48.7,41.7 49.6,44.5 52.5,44.5 50.1,46.3 51.1,49.1 48.7,47.3 46.3,49.1 47.3,46.3 44.9,44.5 
		47.8,44.5 	"/>
	<polygon class="st3" points="65.2,41.7 66.1,44.5 69,44.5 66.7,46.3 67.6,49.1 65.2,47.3 62.9,49.1 63.8,46.3 61.4,44.5 64.3,44.5 
			"/>
	<polygon class="st3" points="81.8,41.7 82.6,44.5 85.5,44.5 83.2,46.3 84.1,49.1 81.8,47.3 79.4,49.1 80.3,46.3 78,44.5 80.9,44.5 
			"/>
	<polygon class="st3" points="16.3,55.8 17.2,58.6 20.1,58.6 17.8,60.4 18.7,63.3 16.3,61.5 14,63.3 14.9,60.4 12.5,58.6 15.4,58.6 
			"/>
	<polygon class="st3" points="32.2,55.8 33.1,58.6 36,58.6 33.6,60.4 34.5,63.3 32.2,61.5 29.8,63.3 30.7,60.4 28.3,58.6 31.3,58.6 
			"/>
	<polygon class="st3" points="48.7,55.8 49.6,58.6 52.5,58.6 50.1,60.4 51.1,63.3 48.7,61.5 46.3,63.3 47.3,60.4 44.9,58.6 
		47.8,58.6 	"/>
	<polygon class="st3" points="65.2,55.8 66.1,58.6 69,58.6 66.7,60.4 67.6,63.3 65.2,61.5 62.9,63.3 63.8,60.4 61.4,58.6 64.3,58.6 
			"/>
	<polygon class="st3" points="81.8,55.8 82.6,58.6 85.5,58.6 83.2,60.4 84.1,63.3 81.8,61.5 79.4,63.3 80.3,60.4 78,58.6 80.9,58.6 
			"/>
	<polygon class="st3" points="90.7,5.6 91.6,8.4 94.5,8.4 92.2,10.1 93.1,13 90.7,11.3 88.3,13 89.2,10.1 86.9,8.4 89.8,8.4 	"/>
	<polygon class="st3" points="8.7,19.7 9.7,22.6 12.6,22.6 10.2,24.3 11.1,27.2 8.7,25.4 6.4,27.2 7.3,24.3 4.9,22.6 7.8,22.6 	"/>
	<polygon class="st3" points="24.6,19.7 25.5,22.6 28.4,22.6 26.1,24.3 27,27.2 24.6,25.4 22.3,27.2 23.2,24.3 20.8,22.6 23.7,22.6 
			"/>
	<polygon class="st3" points="41.1,19.7 42,22.6 44.9,22.6 42.6,24.3 43.5,27.2 41.1,25.4 38.8,27.2 39.6,24.3 37.3,22.6 40.2,22.6 
			"/>
	<polygon class="st3" points="57.7,19.7 58.6,22.6 61.5,22.6 59.1,24.3 60,27.2 57.7,25.4 55.3,27.2 56.2,24.3 53.9,22.6 56.8,22.6 
			"/>
	<polygon class="st3" points="74.2,19.7 75,22.6 78,22.6 75.6,24.3 76.5,27.2 74.2,25.4 71.8,27.2 72.7,24.3 70.4,22.6 73.3,22.6 	
		"/>
	<polygon class="st3" points="90.7,19.7 91.6,22.6 94.5,22.6 92.2,24.3 93.1,27.2 90.7,25.4 88.3,27.2 89.2,24.3 86.9,22.6 
		89.8,22.6 	"/>
	<polygon class="st3" points="8.7,33.9 9.7,36.7 12.6,36.7 10.2,38.5 11.1,41.3 8.7,39.5 6.4,41.3 7.3,38.5 4.9,36.7 7.8,36.7 	"/>
	<polygon class="st3" points="24.6,33.9 25.5,36.7 28.4,36.7 26.1,38.5 27,41.3 24.6,39.5 22.3,41.3 23.2,38.5 20.8,36.7 23.7,36.7 
			"/>
	<polygon class="st3" points="41.1,33.9 42,36.7 44.9,36.7 42.6,38.5 43.5,41.3 41.1,39.5 38.8,41.3 39.6,38.5 37.3,36.7 40.2,36.7 
			"/>
	<polygon class="st3" points="57.7,33.9 58.6,36.7 61.5,36.7 59.1,38.5 60,41.3 57.7,39.5 55.3,41.3 56.2,38.5 53.9,36.7 56.8,36.7 
			"/>
	<polygon class="st3" points="74.2,33.9 75,36.7 78,36.7 75.6,38.5 76.5,41.3 74.2,39.5 71.8,41.3 72.7,38.5 70.4,36.7 73.3,36.7 	
		"/>
	<polygon class="st3" points="90.7,33.9 91.6,36.7 94.5,36.7 92.2,38.5 93.1,41.3 90.7,39.5 88.3,41.3 89.2,38.5 86.9,36.7 
		89.8,36.7 	"/>
	<polygon class="st3" points="8.7,48.1 9.7,50.9 12.6,50.9 10.2,52.6 11.1,55.5 8.7,53.7 6.4,55.5 7.3,52.6 4.9,50.9 7.8,50.9 	"/>
	<polygon class="st3" points="24.6,48.1 25.5,50.9 28.4,50.9 26.1,52.6 27,55.5 24.6,53.7 22.3,55.5 23.2,52.6 20.8,50.9 23.7,50.9 
			"/>
	<polygon class="st3" points="41.1,48.1 42,50.9 44.9,50.9 42.6,52.6 43.5,55.5 41.1,53.7 38.8,55.5 39.6,52.6 37.3,50.9 40.2,50.9 
			"/>
	<polygon class="st3" points="57.7,48.1 58.6,50.9 61.5,50.9 59.1,52.6 60,55.5 57.7,53.7 55.3,55.5 56.2,52.6 53.9,50.9 56.8,50.9 
			"/>
	<polygon class="st3" points="74.2,48.1 75,50.9 78,50.9 75.6,52.6 76.5,55.5 74.2,53.7 71.8,55.5 72.7,52.6 70.4,50.9 73.3,50.9 	
		"/>
	<polygon class="st3" points="90.7,48.1 91.6,50.9 94.5,50.9 92.2,52.6 93.1,55.5 90.7,53.7 88.3,55.5 89.2,52.6 86.9,50.9 
		89.8,50.9 	"/>
	<polygon class="st3" points="8.7,62.2 9.7,65.1 12.6,65.1 10.2,66.8 11.1,69.6 8.7,67.9 6.4,69.6 7.3,66.8 4.9,65.1 7.8,65.1 	"/>
	<polygon class="st3" points="24.6,62.2 25.5,65.1 28.4,65.1 26.1,66.8 27,69.6 24.6,67.9 22.3,69.6 23.2,66.8 20.8,65.1 23.7,65.1 
			"/>
	<polygon class="st3" points="41.1,62.2 42,65.1 44.9,65.1 42.6,66.8 43.5,69.6 41.1,67.9 38.8,69.6 39.6,66.8 37.3,65.1 40.2,65.1 
			"/>
	<polygon class="st3" points="57.7,62.2 58.6,65.1 61.5,65.1 59.1,66.8 60,69.6 57.7,67.9 55.3,69.6 56.2,66.8 53.9,65.1 56.8,65.1 
			"/>
	<polygon class="st3" points="74.2,62.2 75,65.1 78,65.1 75.6,66.8 76.5,69.6 74.2,67.9 71.8,69.6 72.7,66.8 70.4,65.1 73.3,65.1 	
		"/>
	<polygon class="st3" points="90.7,62.2 91.6,65.1 94.5,65.1 92.2,66.8 93.1,69.6 90.7,67.9 88.3,69.6 89.2,66.8 86.9,65.1 
		89.8,65.1 	"/>
</g>
</svg>
