<svg xmlns="http://www.w3.org/2000/svg" width="138.38" height="145.96" viewBox="0 0 138.38 145.96">
  <defs>
    <style>
      .cls-1 {
        fill: #ee4023;
      }

      .cls-2 {
        fill: #231f20;
      }
    </style>
  </defs>
  <title>stamp</title>
  <g id="Layer_2" data-name="Layer 2">
    <g id="mobile">
      <g>
        <path class="cls-1" d="M.35,16.25A16.53,16.53,0,0,1,.82,9.91,9.4,9.4,0,0,1,2.35,6.34C4.29,3.69,7.89,3.24,11,2.26,15.43.87,22.4.62,27.79,1.51s11.38,1.36,16.85.11c4.41-1,9.58.06,14.36.1l11.17.07c4.47,0,9,.05,13.32-1.14A13.89,13.89,0,0,1,86.33,0a13.06,13.06,0,0,1,3,.34,64.51,64.51,0,0,0,14.43.81q4.88-.19,9.71-.83a10.77,10.77,0,0,1,3.71-.07c1,.22,1.82.71,2.75,1,4.57,1.55,10.5-1,13.95,2.33,1.1,1.08,1.84,2.69,2.89,3.74a2.51,2.51,0,0,1,.34,3.22L136,12.23c1.33-.31,2.43,1.25,2.38,2.62s-.78,2.6-1.1,3.92a9.33,9.33,0,0,0-.25,3.45c1,7.93-3.16,16.37-.38,25.45.7,2.3.13,8.51.19,12.72,0,1,1.49,2.23,1.54,3.2s-.62,1.76-.55,2.75c.16,2.49-.42,5.17-.48,7.67s1,4.54.32,7.42c-1,3.9-.21,8-.33,12a88.72,88.72,0,0,1-1.08,14.22c-.14.81.51,1.74.48,2.56q-.24,6.7-.5,13.4c.48,2,2.13,5.14.25,7.05a2.6,2.6,0,0,0-.73,1.71c0,.65-.28,1.17-.14,1.78a14,14,0,0,1,.38,6.19c-.48,2-2.08,3.94-4.16,4.12s-2.67-2.55-4.9-1.25a13.7,13.7,0,0,1-3.83,1.63c-1,.15-2.2-.79-1.72-1.66-8.46,2.82-8.17,1.82-12.21.87-6.15-.87-7,1.48-12.1.67a27.53,27.53,0,0,0-10.23.38c-4.29.93-7.55-.63-11.23.13-7.19,1.48-12.42-1.1-18.57-1s-12.21,1.46-18.38,1.38a43,43,0,0,0-7.27.3,2.36,2.36,0,0,1-2.21-.95,1.82,1.82,0,0,0-1-.65,5,5,0,0,0-2.66.37c-5.33,1.62-11,1.19-16.59.88-1.72-.1-2.76-1.73-4.4-2.27-2.61-.85-2.18-3.17-.58-4.72l0,0c-1.31.7-3-1.24-2.63-2.68.88-3.83-1.43-6.64,0-10.85a1.8,1.8,0,0,0-.11-1.14c-.4-1.33,0-2.83-.41-4.18-1.77-6.07,1-11.93,0-17.75C0,96.83-.51,91.64.87,86.77c1.07-3.75,0-7,.5-10.38a24.78,24.78,0,0,0,.36-3.09c0-1.11-.62-2.36-.3-3.3C3.36,64.39.41,58.19.2,52.26a27.74,27.74,0,0,1-.14-4C1.17,38.59,2,26.86.35,16.25Z"/>
        <g>
          <path class="cls-2" d="M124.42,30.56c-.15-3.88-.48-7.74-.81-11.61a5.49,5.49,0,0,0-1.18-3.55,2,2,0,0,0-2.86.2.22.22,0,0,1-.36-.13,2.16,2.16,0,0,0-.31-1,.66.66,0,0,0-.73-.22l-9.21,3a4.8,4.8,0,0,1-2,.35c-1.67-.19-2.61-1.94-3.69-3.23-1.92-2.28-5.57-3.39-8-1.58-1.16-1.13-3,.14-4.52.65a11.75,11.75,0,0,1-4.62.09,44.91,44.91,0,0,0-7.68.36c-4.8.46-9.61.77-14.43,1.08l-3.48.23a136.6,136.6,0,0,0-16.77,1.77,2.48,2.48,0,0,0-1.81.95c-.85,1.55,1.92,3,1.69,4.76-.15,1.07-1.39,1.73-1.59,2.8A4.08,4.08,0,0,0,42.35,27a15,15,0,0,1,.27,2.85l.07,2.27a39.52,39.52,0,0,1-.4,8.9A31.78,31.78,0,0,0,41.2,47c0,1.61.58,3.22.52,4.83,0,.69-.78,2.55-.44,3.13,1.23,2.07,7.67,2,9.59,1.33a17,17,0,0,1,2.61-1c2.18-.39,4.38,1.06,6.55.66a6.34,6.34,0,0,1,1.36-.23,4.93,4.93,0,0,1,2,.85c2.14,1.15,4.71,1,7.14.85a234.2,234.2,0,0,1,27-.12,6.48,6.48,0,0,0,7.76.11c1.16.82,3.15,1.45,3.67.12a22.92,22.92,0,0,1,12.69-3.28c.95,0,2.12,0,2.6-.8a2.59,2.59,0,0,0,.22-1.27q0-6.06,0-12.13C124.53,36.89,124.53,33.72,124.42,30.56Zm-16.82,10a6.43,6.43,0,0,1-2.76-.71,15.49,15.49,0,0,0-5.48-.54L77,39.79A12.68,12.68,0,0,0,71,40.88c-1,.56-2,1.44-3.15,1.4a4.27,4.27,0,0,1-2.35-1.1c-2-1.51-4.71-2.94-6.45-4.77-1.49-1.59-1.37-3.57-2.41-5.48,1.28-1.53,3.7-.65,5.69-.65,3.35,0,6.54-2.9,9.72-1.85.63.21,1.21.56,1.83.78a9.15,9.15,0,0,0,2.76.37l10.74.35c3.69.12,7.4.24,11.09,0,3.14-.2,6.88-.41,8.79,2.09-.81,2-1.39,4.7.43,5.79a3.72,3.72,0,0,1,1.15.74C109.44,39.32,108.56,40.46,107.6,40.57Z"/>
          <path class="cls-2" d="M17.13,12.61a6.19,6.19,0,0,1,9.68-.7c2,2.62,1,6.31.54,9.57-1.16,8.07,1.53,16.3.59,24.39a6,6,0,0,0,0,2.34A6.58,6.58,0,0,0,29,50.1a14.6,14.6,0,0,1,2,12c-.21.76.45,2.75,1.21,2.94,5.67.41,9.78,1.35,16.31,1.35,3.78,0,9.43.71,14.18-.21,6.91-1.33,14.11.33,21,0a55.06,55.06,0,0,0,6.43-.36c1.55-.27,3.07-.74,4.64-.87,6-.48,11.84,4.11,17.78,2.88,1.69-.35,3.31-1.17,5-1.13A10.52,10.52,0,0,1,121.76,68l5,2.41a2.82,2.82,0,0,1,.63,1.27c.06,2.79-.82,5.39-.66,8.38q.48,9.57,1.41,19.09a5.06,5.06,0,0,1-.31,3,4.73,4.73,0,0,1-2,1.66A32.41,32.41,0,0,1,101.28,106a3,3,0,0,0-1.71,0,11.85,11.85,0,0,1-5.54.65,13.4,13.4,0,0,0-2.34-.44c-2.21,0-4,2.3-3.82,4.5a6.37,6.37,0,0,0,2.8,4.62,2.58,2.58,0,0,0,1.81.45,67.34,67.34,0,0,1,26,2.12c1.57.45,3.24,1,4.8-.37a2.67,2.67,0,0,1,3.57,0c1.85,1.91-2.21,4.13-1.74,6.49.22,1.11,1.38,1.78,1.85,2.81.66,1.44-.28,3.22-1.64,4a9.83,9.83,0,0,1-4.62,1L78,134.23a1,1,0,0,1-1-1.48c2-3.46-1.5-5.31-2.36-8.21a11.83,11.83,0,0,1-.19-3.76,28.17,28.17,0,0,0-3-13.55c-.39-.78-.93-1.64-2.08-1.34a2,2,0,0,0-1.36,1.47,90,90,0,0,0-2.35,18.93c-.07,3.65,0,7.72-5.63,9.09a13.18,13.18,0,0,1-4.34.27l-5.87-.55-5.09-.48a1.8,1.8,0,0,1-.49-.22,1.31,1.31,0,0,0-1-.38,22.21,22.21,0,0,1-3.56-.23c-.1,0-5.49-.16-5.49-.16-4.52-.42-9.06-.85-13.59-.83a4,4,0,0,1-4-3.65,11.75,11.75,0,0,0-1.46-5,2,2,0,0,1,1.47-2.91l12.15-1.48a12.67,12.67,0,0,0,3.77-.84c.92-.4,1.73-1,2.63-1.46a16,16,0,0,1,3-1q5.91-1.53,11.92-2.65a2,2,0,0,0,1.5-1.21c.89-2.18,1.25-4.49-.09-5.8a6,6,0,0,0-2.78-1c-9.83-.8-20.47-.57-29.43,1.64-.88.21-1.5-.82-1.59-1.44-.34-2.27.89-4.53,2-6.52A.81.81,0,0,0,19,98.23,10.37,10.37,0,0,0,13.71,100a.69.69,0,0,1-1.07-.74c.2-.66,1-1.65.8-1.89-.43-.43,0-1.15-.76-1.1l-3.91.51a1.07,1.07,0,0,1-.59-2,2,2,0,0,0,.92-1.72,28,28,0,0,1,.37-2.91c-.27-7.16,2.07-7.4,2.34-10.76a1.23,1.23,0,0,1,.1-.42,6.36,6.36,0,0,1,2.77-3.16,1.07,1.07,0,0,1,1.41,1.35,56.57,56.57,0,0,0-2.46,11,2.11,2.11,0,0,0,2.21,2.35c2.85-.17,5.57-.68,8.46-.19s6.33-.86,9.07-.69c15.85,1,30.59-.59,46.45-.51a6,6,0,0,1,.94.08c6.73,1,14.75-1.43,21.72.17a8.83,8.83,0,0,0,5.39-.72,4.5,4.5,0,0,0,2.9-4.23c-4.81-2.16-10.28-2.09-15.55-2L42.16,83.66c-5.47.12-11,.22-16.31-1.21A28.09,28.09,0,0,0,21,81.3a2.16,2.16,0,0,1-2-2.46,11.28,11.28,0,0,0-1-6.72c-.44,1.38-3.07.71-2.79-.72a6.67,6.67,0,0,1,.54-1.23,5.31,5.31,0,0,0,0-3c-1.7-9.4-3.25-18.87-3.31-28.42,0-4.72-.35-10.91,1.37-15.36.72-1.87,1.53-3,1.87-5.13C16,16.32,16,14.3,17.13,12.61Z"/>
        </g>
      </g>
    </g>
  </g>
</svg>
