<svg xmlns="http://www.w3.org/2000/svg" width="85.07" height="85.07" viewBox="0 0 85.07 85.07">
  <defs>
    <style>
      .cls-1 {
        fill: #fff;
      }

      .cls-2 {
        fill: #231f20;
      }
    </style>
  </defs>
  <title>icon-2</title>
  <g id="Layer_2" data-name="Layer 2">
    <g id="mobile">
      <g>
        <rect class="cls-1" width="85.07" height="85.07"/>
        <path class="cls-2" d="M65,19.72A7.6,7.6,0,0,0,52,25.1a7.42,7.42,0,0,0,1,3.82,7.31,7.31,0,0,0,2.77,2.75,17.61,17.61,0,0,1-.34,3.62A8.15,8.15,0,0,1,54.33,38a12.72,12.72,0,0,1-1.6,2,9,9,0,0,1-2.34,1.56q-1.5.74-2.79,1.23c-.85.33-2,.72-3.46,1.16A47.94,47.94,0,0,0,38,46.27V26.6a7.24,7.24,0,0,0,2.77-2.75,7.4,7.4,0,0,0,1-3.82,7.55,7.55,0,0,0-7.59-7.59A7.55,7.55,0,0,0,26.65,20a7.4,7.4,0,0,0,1,3.82,7.31,7.31,0,0,0,2.77,2.75V59.05a7.6,7.6,0,1,0,9.18,12,7.3,7.3,0,0,0,2.21-5.38,7.42,7.42,0,0,0-1-3.82A7.31,7.31,0,0,0,38,59.05V58a4.58,4.58,0,0,1,1.65-4,25.07,25.07,0,0,1,6.7-2.81,46.21,46.21,0,0,0,8-3.21q8.87-5,8.94-16.38a7.56,7.56,0,0,0,3.8-6.57A7.34,7.34,0,0,0,65,19.72Zm-28,48.59a3.81,3.81,0,1,1,1.11-2.69,3.67,3.67,0,0,1-1.11,2.69Zm0-45.59a3.8,3.8,0,0,1-5.38-5.38A3.8,3.8,0,0,1,38.05,20a3.64,3.64,0,0,1-1.11,2.69Zm25.32,5.07a3.81,3.81,0,0,1-5.38,0,3.8,3.8,0,0,1,2.69-6.49,3.8,3.8,0,0,1,2.69,6.49Z"/>
      </g>
    </g>
  </g>
</svg>
