<svg xmlns="http://www.w3.org/2000/svg" width="86.42" height="86.42" viewBox="0 0 86.42 86.42">
  <defs>
    <style>
      .cls-1 {
        fill: #fff;
      }

      .cls-2 {
        fill: #231f20;
      }
    </style>
  </defs>
  <title>icon-3</title>
  <g id="Layer_2" data-name="Layer 2">
    <g id="mobile">
      <g>
        <rect class="cls-1" width="86.42" height="86.42"/>
        <path class="cls-2" d="M43.94,16.51A27.73,27.73,0,1,0,71.67,44.24,27.76,27.76,0,0,0,43.94,16.51ZM19.4,44.24a24.47,24.47,0,0,1,2.12-10L33.23,66.33A24.53,24.53,0,0,1,19.4,44.24ZM43.94,68.79a24.75,24.75,0,0,1-6.93-1l7.36-21.4,7.55,20.67a3.59,3.59,0,0,0,.17.34,24.43,24.43,0,0,1-8.15,1.39Zm3.39-36.06c1.47-.08,2.8-.23,2.8-.23a1,1,0,0,0-.15-2s-4,.31-6.54.31S37,30.48,37,30.48a1,1,0,0,0-.16,2s1.26.15,2.58.23l3.82,10.48L37.84,59.32,28.9,32.74c1.48-.08,2.81-.24,2.81-.24a1,1,0,0,0-.15-2s-4,.31-6.55.31l-1.58,0a24.53,24.53,0,0,1,37.09-4.62l-.32,0a4.25,4.25,0,0,0-4.12,4.35c0,2,1.16,3.74,2.41,5.76a13,13,0,0,1,2,6.77c0,2.1-.8,4.54-1.86,7.94L56.2,59.12Zm9,32.73,7.5-21.68A23.18,23.18,0,0,0,65.65,35a18.2,18.2,0,0,0-.17-2.53,24.55,24.55,0,0,1-9.2,33Z"/>
      </g>
    </g>
  </g>
</svg>
