<svg xmlns="http://www.w3.org/2000/svg" width="23.75" height="25.05" viewBox="0 0 23.75 25.05">
  <defs>
    <style>
      .cls-1 {
        fill: #ee4023;
      }

      .cls-2 {
        fill: #fff;
      }
    </style>
  </defs>
  <title>small-stamp</title>
  <g id="Layer_2" data-name="Layer 2">
    <g id="mobile">
      <g>
        <path class="cls-1" d="M.06,2.79A2.83,2.83,0,0,1,.14,1.7,1.66,1.66,0,0,1,.4,1.09c.34-.46,1-.53,1.49-.7A7,7,0,0,1,4.77.26a7.6,7.6,0,0,0,2.89,0,12,12,0,0,1,2.47,0L12,.31a8.36,8.36,0,0,0,2.29-.2A2.68,2.68,0,0,1,14.82,0a2.31,2.31,0,0,1,.52.06A11.41,11.41,0,0,0,17.82.2c.55,0,1.11-.07,1.66-.14a2,2,0,0,1,.64,0c.16,0,.31.13.47.18.79.27,1.81-.18,2.4.4.19.18.31.46.49.64a.43.43,0,0,1,.06.55l-.2.29c.23-.05.42.21.41.45a3.37,3.37,0,0,1-.19.67,1.48,1.48,0,0,0,0,.59c.17,1.37-.54,2.81-.07,4.37a13.63,13.63,0,0,1,0,2.19c0,.16.25.38.26.54s-.1.31-.09.48c0,.42-.07.88-.09,1.31A4.87,4.87,0,0,1,23.63,14a9.53,9.53,0,0,0-.06,2.07,15.17,15.17,0,0,1-.18,2.44c0,.13.09.3.08.44l-.09,2.3c.09.35.37.88.05,1.21a.46.46,0,0,0-.13.29c0,.11-.05.2,0,.3a2.43,2.43,0,0,1,.06,1.07.88.88,0,0,1-.71.71c-.35,0-.46-.44-.84-.22a2.55,2.55,0,0,1-.66.28c-.17,0-.38-.14-.29-.28-1.46.48-1.41.31-2.1.14-1.06-.15-1.2.26-2.08.12a4.9,4.9,0,0,0-1.75.06c-.74.17-1.3-.1-1.93,0-1.24.25-2.13-.19-3.19-.18S7.69,25,6.64,25a6.51,6.51,0,0,0-1.25.05A.4.4,0,0,1,5,24.89a.25.25,0,0,0-.17-.11.82.82,0,0,0-.46.06A8.19,8.19,0,0,1,1.54,25c-.3,0-.48-.3-.76-.39-.45-.14-.37-.54-.1-.81h0c-.23.12-.51-.21-.45-.46.15-.65-.25-1.14,0-1.86,0-.06,0-.13,0-.19-.07-.23,0-.49-.08-.72-.3-1,.18-2.05,0-3.05a5.75,5.75,0,0,1,0-2.61,10.85,10.85,0,0,0,.08-1.78,4.51,4.51,0,0,0,.07-.53c0-.19-.11-.4,0-.56.33-1-.18-2-.22-3,0-.23,0-.45,0-.68A21.47,21.47,0,0,0,.06,2.79Z"/>
        <g>
          <path class="cls-2" d="M21.36,5.25c0-.67-.09-1.33-.14-2a1,1,0,0,0-.2-.61.36.36,0,0,0-.5,0s-.05,0-.06,0a.41.41,0,0,0-.05-.18.12.12,0,0,0-.13,0L18.7,3a.77.77,0,0,1-.33.06c-.29,0-.45-.33-.64-.55a1,1,0,0,0-1.36-.27c-.2-.2-.51,0-.78.11a2.1,2.1,0,0,1-.79,0,8.34,8.34,0,0,0-1.32.06c-.82.09-1.65.14-2.48.19l-.59,0a23,23,0,0,0-2.88.3c-.12,0-.26.06-.31.17-.15.26.33.51.29.81s-.24.3-.28.48a.86.86,0,0,0,0,.28,2.63,2.63,0,0,1,.05.49v.38A7.08,7.08,0,0,1,7.26,7a5.09,5.09,0,0,0-.19,1c0,.28.1.55.09.83,0,.12-.13.44-.07.54.21.35,1.31.34,1.64.22a3.43,3.43,0,0,1,.45-.16c.37-.07.75.18,1.12.11a2,2,0,0,1,.24,0,.93.93,0,0,1,.34.15,2.32,2.32,0,0,0,1.23.15,37.8,37.8,0,0,1,4.64,0,1.11,1.11,0,0,0,1.33,0c.2.15.54.25.63,0a3.9,3.9,0,0,1,2.18-.57c.16,0,.36,0,.44-.14a.38.38,0,0,0,0-.21V6.88C21.38,6.33,21.38,5.79,21.36,5.25ZM18.47,7A1,1,0,0,1,18,6.84a2.71,2.71,0,0,0-.94-.09l-3.85.08a2.21,2.21,0,0,0-1,.19,1.25,1.25,0,0,1-.54.24.78.78,0,0,1-.4-.19,9.09,9.09,0,0,1-1.11-.82c-.26-.27-.23-.61-.41-.94.22-.26.63-.11,1-.11.58,0,1.13-.5,1.67-.32.11,0,.21.1.32.13a1.49,1.49,0,0,0,.47.07L15,5.14c.64,0,1.27,0,1.91,0s1.18-.07,1.51.36c-.14.33-.24.8.07,1a.53.53,0,0,1,.2.13C18.78,6.75,18.63,7,18.47,7Z"/>
          <path class="cls-2" d="M2.94,2.16a1.1,1.1,0,0,1,.4-.34,1,1,0,0,1,1.26.23c.35.44.18,1.08.1,1.64-.2,1.38.26,2.79.1,4.18a.94.94,0,0,0,0,.41A1,1,0,0,0,5,8.6a2.5,2.5,0,0,1,.34,2.06c0,.13.08.47.21.5,1,.07,1.68.23,2.8.23a13.29,13.29,0,0,0,2.43,0,25.45,25.45,0,0,1,3.6,0,10.32,10.32,0,0,0,1.11-.06,6.88,6.88,0,0,1,.79-.15c1-.08,2,.7,3,.49a3.88,3.88,0,0,1,.87-.19,1.72,1.72,0,0,1,.72.22l.87.42a.45.45,0,0,1,.1.22c0,.47-.14.92-.11,1.43.06,1.1.14,2.19.24,3.28a.88.88,0,0,1-.05.51.8.8,0,0,1-.34.29,5.58,5.58,0,0,1-4.22.39.51.51,0,0,0-.3,0,2.2,2.2,0,0,1-.95.11,1.77,1.77,0,0,0-.4-.08.73.73,0,0,0-.66.77,1.12,1.12,0,0,0,.48.8.42.42,0,0,0,.31.07,11.63,11.63,0,0,1,4.47.37.81.81,0,0,0,.82-.07.47.47,0,0,1,.61,0c.32.33-.37.71-.29,1.11,0,.19.23.31.31.49a.57.57,0,0,1-.28.69,1.63,1.63,0,0,1-.79.17L13.4,23a.17.17,0,0,1-.17-.25c.34-.6-.26-.92-.4-1.41a2.35,2.35,0,0,1,0-.65,4.77,4.77,0,0,0-.5-2.32c-.07-.14-.17-.29-.36-.23a.31.31,0,0,0-.23.25,15.38,15.38,0,0,0-.41,3.25c0,.62,0,1.32-1,1.56a2,2,0,0,1-.74,0l-1-.09-.87-.08-.09,0A.24.24,0,0,0,7.45,23a3.77,3.77,0,0,1-.61,0l-1,0a22.59,22.59,0,0,0-2.33-.14.68.68,0,0,1-.69-.63,2.09,2.09,0,0,0-.26-.87.34.34,0,0,1,.26-.5L5,20.55a2.36,2.36,0,0,0,.65-.14c.16-.07.3-.18.45-.26A3.81,3.81,0,0,1,6.56,20c.67-.17,1.36-.32,2-.45a.33.33,0,0,0,.26-.21c.15-.37.21-.77,0-1a1,1,0,0,0-.48-.17,16.24,16.24,0,0,0-5,.28c-.15,0-.26-.14-.28-.25a1.93,1.93,0,0,1,.35-1.12.14.14,0,0,0-.12-.21,1.87,1.87,0,0,0-.92.31A.12.12,0,0,1,2.17,17c0-.11.18-.28.14-.32s0-.2-.13-.19l-.68.09a.19.19,0,0,1-.1-.35A.32.32,0,0,0,1.56,16a3.17,3.17,0,0,1,.07-.5c0-1.23.35-1.27.4-1.85a.17.17,0,0,1,0-.07A1.16,1.16,0,0,1,2.52,13a.18.18,0,0,1,.24.23,10.06,10.06,0,0,0-.42,1.9.36.36,0,0,0,.38.4,5.87,5.87,0,0,1,1.45,0c.48.08,1.09-.15,1.56-.12,2.72.17,5.25-.1,8-.09h.16c1.16.18,2.53-.24,3.73,0a1.57,1.57,0,0,0,.93-.12A.78.78,0,0,0,19,14.5a6.14,6.14,0,0,0-2.67-.34l-9.1.2a9.7,9.7,0,0,1-2.8-.21A5.08,5.08,0,0,0,3.6,14a.38.38,0,0,1-.35-.43,1.9,1.9,0,0,0-.17-1.15c-.07.24-.52.12-.48-.12a1.36,1.36,0,0,1,.1-.21.84.84,0,0,0,0-.52,28.73,28.73,0,0,1-.56-4.88A7.8,7.8,0,0,1,2.37,4a3.31,3.31,0,0,0,.32-.88A2.49,2.49,0,0,1,2.94,2.16Z"/>
        </g>
      </g>
    </g>
  </g>
</svg>
