<?xml version="1.0" encoding="utf-8"?>
<!-- Generator: Adobe Illustrator 22.0.0, SVG Export Plug-In . SVG Version: 6.00 Build 0)  -->
<svg version="1.1" id="Layer_3" xmlns="http://www.w3.org/2000/svg" xmlns:xlink="http://www.w3.org/1999/xlink" x="0px" y="0px"
	 viewBox="0 0 800 800" style="enable-background:new 0 0 800 800;" xml:space="preserve">
<style type="text/css">
	.st0{fill:#E5AE13;}
</style>
<g>
	<path class="st0" d="M619.5,288.6l-0.8,1.5c1.3,0.9,2.2,2.4,2.4,4h1.7C622.6,291.8,621.3,289.9,619.5,288.6L619.5,288.6z
		 M619.5,288.6"/>
	<path class="st0" d="M615.2,300.9c-3.3,0-6-2.7-6-6c0-3.3,2.7-6,6-6c0.7,0,1.5,0.1,2.1,0.4l0.8-1.5c-0.9-0.4-1.9-0.6-2.9-0.6
		c-4.2,0-7.6,3.4-7.6,7.6c0,4.2,3.4,7.6,7.6,7.6c3.9,0,7.2-3,7.6-6.8h-1.7C620.7,298.7,618.2,300.9,615.2,300.9L615.2,300.9z
		 M615.2,300.9"/>
	<path class="st0" d="M637,287.3c-1,0-2,0.2-2.9,0.6l0.8,1.5c0.7-0.2,1.4-0.4,2.1-0.4c3.3,0,6,2.7,6,6c0,3.3-2.7,6-6,6
		c-3.3,0-6-2.7-6-6c0-2,1-3.7,2.4-4.8l-0.8-1.5c-2,1.4-3.3,3.7-3.3,6.3c0,4.2,3.4,7.6,7.6,7.6c4.2,0,7.6-3.4,7.6-7.6
		C644.7,290.7,641.2,287.3,637,287.3L637,287.3z M637,287.3"/>
	<path class="st0" d="M636.3,295.3c0.1,0.3,0.4,0.4,0.7,0.4c0.1,0,0.3,0,0.4-0.1c0.4-0.2,0.5-0.7,0.3-1.1l-2.8-5.2l-0.8-1.5l-1.6-3
		l2-3.7H634c-0.5,0-0.8-0.4-0.8-0.8c0-0.1,0-0.3,0.1-0.4l-2.2,4.1h-9.9l-0.6-1.1h-1.9l1,1.9l-1.6,3l-0.8,1.5l-2.8,5.2
		c-0.1,0.3-0.1,0.6,0,0.8c0.1,0.2,0.4,0.4,0.7,0.4h10.9c0.3,0,0.6-0.2,0.7-0.4l4.7-8.7l1.1,2l0.8,1.5L636.3,295.3z M625.6,294.1h-9
		l2.2-4l0.8-1.5l1.6-2.9h9L625.6,294.1z M625.6,294.1"/>
	<path class="st0" d="M634,281.1h2.1c0.8,0,1.5,0.7,1.5,1.5c0,0.5,0.4,0.8,0.8,0.8s0.8-0.4,0.8-0.8c0-1.7-1.4-3.1-3.1-3.1H634
		c-0.3,0-0.6,0.2-0.7,0.4c-0.1,0.1-0.1,0.2-0.1,0.4C633.2,280.8,633.6,281.1,634,281.1L634,281.1z M634,281.1"/>
	<path class="st0" d="M622,283c0.5,0,0.8-0.4,0.8-0.8c0-0.5-0.4-0.8-0.8-0.8h-4.8c-0.5,0-0.8,0.4-0.8,0.8c0,0.5,0.4,0.8,0.8,0.8H622
		z M622,283"/>
</g>
<g>
	<path class="st0" d="M494.4,67.6l-0.8,1.5c1.3,0.9,2.2,2.4,2.4,4h1.7C497.4,70.8,496.2,68.9,494.4,67.6L494.4,67.6z M494.4,67.6"/>
	<path class="st0" d="M490,79.9c-3.3,0-6-2.7-6-6c0-3.3,2.7-6,6-6c0.7,0,1.5,0.1,2.1,0.4l0.8-1.5c-0.9-0.4-1.9-0.6-2.9-0.6
		c-4.2,0-7.6,3.4-7.6,7.6c0,4.2,3.4,7.6,7.6,7.6c3.9,0,7.2-3,7.6-6.8H496C495.6,77.7,493.1,79.9,490,79.9L490,79.9z M490,79.9"/>
	<path class="st0" d="M511.9,66.3c-1,0-2,0.2-2.9,0.6l0.8,1.5c0.7-0.2,1.4-0.4,2.1-0.4c3.3,0,6,2.7,6,6c0,3.3-2.7,6-6,6
		c-3.3,0-6-2.7-6-6c0-2,1-3.7,2.4-4.8l-0.8-1.5c-2,1.4-3.3,3.7-3.3,6.3c0,4.2,3.4,7.6,7.6,7.6c4.2,0,7.6-3.4,7.6-7.6
		C519.5,69.7,516.1,66.3,511.9,66.3L511.9,66.3z M511.9,66.3"/>
	<path class="st0" d="M511.1,74.3c0.1,0.3,0.4,0.4,0.7,0.4c0.1,0,0.3,0,0.4-0.1c0.4-0.2,0.5-0.7,0.3-1.1l-2.8-5.2l-0.8-1.5l-1.6-3
		l2-3.7h-0.5c-0.5,0-0.8-0.4-0.8-0.8c0-0.1,0-0.3,0.1-0.4l-2.2,4.1H496l-0.6-1.1h-1.9l1,1.9l-1.6,3l-0.8,1.5l-2.8,5.2
		c-0.1,0.3-0.1,0.6,0,0.8c0.1,0.2,0.4,0.4,0.7,0.4h10.9c0.3,0,0.6-0.2,0.7-0.4l4.7-8.7l1.1,2l0.8,1.5L511.1,74.3z M500.5,73.1h-9
		l2.2-4l0.8-1.5l1.6-2.9h9L500.5,73.1z M500.5,73.1"/>
	<path class="st0" d="M508.9,60.2h2.1c0.8,0,1.5,0.7,1.5,1.5c0,0.5,0.4,0.8,0.8,0.8s0.8-0.4,0.8-0.8c0-1.7-1.4-3.1-3.1-3.1h-2.1
		c-0.3,0-0.6,0.2-0.7,0.4c-0.1,0.1-0.1,0.2-0.1,0.4C508,59.8,508.4,60.2,508.9,60.2L508.9,60.2z M508.9,60.2"/>
	<path class="st0" d="M496.8,62c0.5,0,0.8-0.4,0.8-0.8s-0.4-0.8-0.8-0.8h-4.8c-0.5,0-0.8,0.4-0.8,0.8s0.4,0.8,0.8,0.8H496.8z
		 M496.8,62"/>
</g>
<g>
	<path class="st0" d="M345.9,90.7l-0.8,1.5c1.3,0.9,2.2,2.4,2.4,4h1.7C348.9,93.9,347.7,92,345.9,90.7L345.9,90.7z M345.9,90.7"/>
	<path class="st0" d="M341.5,103c-3.3,0-6-2.7-6-6c0-3.3,2.7-6,6-6c0.7,0,1.5,0.1,2.1,0.4l0.8-1.5c-0.9-0.4-1.9-0.6-2.9-0.6
		c-4.2,0-7.6,3.4-7.6,7.6c0,4.2,3.4,7.6,7.6,7.6c3.9,0,7.2-3,7.6-6.8h-1.7C347.1,100.7,344.6,103,341.5,103L341.5,103z M341.5,103"
		/>
	<path class="st0" d="M363.4,89.4c-1,0-2,0.2-2.9,0.6l0.8,1.5c0.7-0.2,1.4-0.4,2.1-0.4c3.3,0,6,2.7,6,6c0,3.3-2.7,6-6,6
		c-3.3,0-6-2.7-6-6c0-2,1-3.7,2.4-4.8l-0.8-1.5c-2,1.4-3.3,3.7-3.3,6.3c0,4.2,3.4,7.6,7.6,7.6c4.2,0,7.6-3.4,7.6-7.6
		C371,92.8,367.6,89.4,363.4,89.4L363.4,89.4z M363.4,89.4"/>
	<path class="st0" d="M362.6,97.4c0.1,0.3,0.4,0.4,0.7,0.4c0.1,0,0.3,0,0.4-0.1c0.4-0.2,0.5-0.7,0.3-1.1l-2.8-5.2l-0.8-1.5l-1.6-3
		l2-3.7h-0.5c-0.5,0-0.8-0.4-0.8-0.8c0-0.1,0-0.3,0.1-0.4l-2.2,4.1h-9.9l-0.6-1.1H345l1,1.9l-1.6,3l-0.8,1.5l-2.8,5.2
		c-0.1,0.3-0.1,0.6,0,0.8c0.1,0.2,0.4,0.4,0.7,0.4h10.9c0.3,0,0.6-0.2,0.7-0.4l4.7-8.7l1.1,2l0.8,1.5L362.6,97.4z M352,96.2h-9
		l2.2-4l0.8-1.5l1.6-2.9h9L352,96.2z M352,96.2"/>
	<path class="st0" d="M360.4,83.2h2.1c0.8,0,1.5,0.7,1.5,1.5c0,0.5,0.4,0.8,0.8,0.8s0.8-0.4,0.8-0.8c0-1.7-1.4-3.1-3.1-3.1h-2.1
		c-0.3,0-0.6,0.2-0.7,0.4c-0.1,0.1-0.1,0.2-0.1,0.4C359.6,82.9,359.9,83.2,360.4,83.2L360.4,83.2z M360.4,83.2"/>
	<path class="st0" d="M348.4,85c0.5,0,0.8-0.4,0.8-0.8c0-0.5-0.4-0.8-0.8-0.8h-4.8c-0.5,0-0.8,0.4-0.8,0.8c0,0.5,0.4,0.8,0.8,0.8
		H348.4z M348.4,85"/>
</g>
<g>
	<path class="st0" d="M194.4,477.1l-0.8,1.5c1.3,0.9,2.2,2.4,2.4,4h1.7C197.4,480.3,196.2,478.4,194.4,477.1L194.4,477.1z
		 M194.4,477.1"/>
	<path class="st0" d="M190,489.4c-3.3,0-6-2.7-6-6c0-3.3,2.7-6,6-6c0.7,0,1.5,0.1,2.1,0.4l0.8-1.5c-0.9-0.4-1.9-0.6-2.9-0.6
		c-4.2,0-7.6,3.4-7.6,7.6c0,4.2,3.4,7.6,7.6,7.6c3.9,0,7.2-3,7.6-6.8H196C195.6,487.2,193.1,489.4,190,489.4L190,489.4z M190,489.4"
		/>
	<path class="st0" d="M211.9,475.8c-1,0-2,0.2-2.9,0.6l0.8,1.5c0.7-0.2,1.4-0.4,2.1-0.4c3.3,0,6,2.7,6,6c0,3.3-2.7,6-6,6
		c-3.3,0-6-2.7-6-6c0-2,1-3.7,2.4-4.8l-0.8-1.5c-2,1.4-3.3,3.7-3.3,6.3c0,4.2,3.4,7.6,7.6,7.6c4.2,0,7.6-3.4,7.6-7.6
		C219.5,479.2,216.1,475.8,211.9,475.8L211.9,475.8z M211.9,475.8"/>
	<path class="st0" d="M211.1,483.8c0.1,0.3,0.4,0.4,0.7,0.4c0.1,0,0.3,0,0.4-0.1c0.4-0.2,0.5-0.7,0.3-1.1l-2.8-5.2l-0.8-1.5l-1.6-3
		l2-3.7h-0.5c-0.5,0-0.8-0.4-0.8-0.8c0-0.1,0-0.3,0.1-0.4l-2.2,4.1H196l-0.6-1.1h-1.9l1,1.9l-1.6,3l-0.8,1.5l-2.8,5.2
		c-0.1,0.3-0.1,0.6,0,0.8c0.1,0.2,0.4,0.4,0.7,0.4H201c0.3,0,0.6-0.2,0.7-0.4l4.7-8.7l1.1,2l0.8,1.5L211.1,483.8z M200.5,482.6h-9
		l2.2-4l0.8-1.5l1.6-2.9h9L200.5,482.6z M200.5,482.6"/>
	<path class="st0" d="M208.9,469.6h2.1c0.8,0,1.5,0.7,1.5,1.5c0,0.5,0.4,0.8,0.8,0.8c0.5,0,0.8-0.4,0.8-0.8c0-1.7-1.4-3.1-3.1-3.1
		h-2.1c-0.3,0-0.6,0.2-0.7,0.4c-0.1,0.1-0.1,0.2-0.1,0.4C208.1,469.3,208.4,469.6,208.9,469.6L208.9,469.6z M208.9,469.6"/>
	<path class="st0" d="M196.9,471.5c0.5,0,0.8-0.4,0.8-0.8s-0.4-0.8-0.8-0.8h-4.8c-0.5,0-0.8,0.4-0.8,0.8s0.4,0.8,0.8,0.8H196.9z
		 M196.9,471.5"/>
</g>
<g>
	<path class="st0" d="M405.9,634.6l-0.8,1.5c1.3,0.9,2.2,2.4,2.4,4h1.7C408.9,637.8,407.7,635.9,405.9,634.6L405.9,634.6z
		 M405.9,634.6"/>
	<path class="st0" d="M401.5,646.9c-3.3,0-6-2.7-6-6c0-3.3,2.7-6,6-6c0.7,0,1.5,0.1,2.1,0.4l0.8-1.5c-0.9-0.4-1.9-0.6-2.9-0.6
		c-4.2,0-7.6,3.4-7.6,7.6c0,4.2,3.4,7.6,7.6,7.6c3.9,0,7.2-3,7.6-6.8h-1.7C407.1,644.6,404.6,646.9,401.5,646.9L401.5,646.9z
		 M401.5,646.9"/>
	<path class="st0" d="M423.4,633.3c-1,0-2,0.2-2.9,0.6l0.8,1.5c0.7-0.2,1.4-0.4,2.1-0.4c3.3,0,6,2.7,6,6c0,3.3-2.7,6-6,6
		c-3.3,0-6-2.7-6-6c0-2,1-3.7,2.4-4.8l-0.8-1.5c-2,1.4-3.3,3.7-3.3,6.3c0,4.2,3.4,7.6,7.6,7.6c4.2,0,7.6-3.4,7.6-7.6
		C431,636.7,427.6,633.3,423.4,633.3L423.4,633.3z M423.4,633.3"/>
	<path class="st0" d="M422.6,641.3c0.1,0.3,0.4,0.4,0.7,0.4c0.1,0,0.3,0,0.4-0.1c0.4-0.2,0.5-0.7,0.3-1.1l-2.8-5.2l-0.8-1.5l-1.6-3
		l2-3.7h-0.5c-0.5,0-0.8-0.4-0.8-0.8c0-0.1,0-0.3,0.1-0.4l-2.2,4.1h-9.9l-0.6-1.1H405l1,1.9l-1.6,3l-0.8,1.5l-2.8,5.2
		c-0.1,0.3-0.1,0.6,0,0.8c0.1,0.2,0.4,0.4,0.7,0.4h10.9c0.3,0,0.6-0.2,0.7-0.4l4.7-8.7l1.1,2l0.8,1.5L422.6,641.3z M412,640.1h-9
		l2.2-4l0.8-1.5l1.6-2.9h9L412,640.1z M412,640.1"/>
	<path class="st0" d="M420.4,627.1h2.1c0.8,0,1.5,0.7,1.5,1.5c0,0.5,0.4,0.8,0.8,0.8s0.8-0.4,0.8-0.8c0-1.7-1.4-3.1-3.1-3.1h-2.1
		c-0.3,0-0.6,0.2-0.7,0.4c-0.1,0.1-0.1,0.2-0.1,0.4C419.5,626.8,419.9,627.1,420.4,627.1L420.4,627.1z M420.4,627.1"/>
	<path class="st0" d="M408.4,628.9c0.5,0,0.8-0.4,0.8-0.8s-0.4-0.8-0.8-0.8h-4.8c-0.5,0-0.8,0.4-0.8,0.8s0.4,0.8,0.8,0.8H408.4z
		 M408.4,628.9"/>
</g>
<g>
	<path class="st0" d="M464.1,688.6l-0.8,1.5c1.3,0.9,2.2,2.4,2.4,4h1.7C467.1,691.8,465.9,689.9,464.1,688.6L464.1,688.6z
		 M464.1,688.6"/>
	<path class="st0" d="M459.7,700.9c-3.3,0-6-2.7-6-6c0-3.3,2.7-6,6-6c0.7,0,1.5,0.1,2.1,0.4l0.8-1.5c-0.9-0.4-1.9-0.6-2.9-0.6
		c-4.2,0-7.6,3.4-7.6,7.6c0,4.2,3.4,7.6,7.6,7.6c3.9,0,7.2-3,7.6-6.8h-1.7C465.3,698.6,462.8,700.9,459.7,700.9L459.7,700.9z
		 M459.7,700.9"/>
	<path class="st0" d="M481.6,687.3c-1,0-2,0.2-2.9,0.6l0.8,1.5c0.7-0.2,1.4-0.4,2.1-0.4c3.3,0,6,2.7,6,6c0,3.3-2.7,6-6,6
		c-3.3,0-6-2.7-6-6c0-2,1-3.7,2.4-4.8l-0.8-1.5c-2,1.4-3.3,3.7-3.3,6.3c0,4.2,3.4,7.6,7.6,7.6c4.2,0,7.6-3.4,7.6-7.6
		C489.2,690.7,485.8,687.3,481.6,687.3L481.6,687.3z M481.6,687.3"/>
	<path class="st0" d="M480.8,695.3c0.1,0.3,0.4,0.4,0.7,0.4c0.1,0,0.3,0,0.4-0.1c0.4-0.2,0.5-0.7,0.3-1.1l-2.8-5.2l-0.8-1.5l-1.6-3
		l2-3.7h-0.5c-0.5,0-0.8-0.4-0.8-0.8c0-0.1,0-0.3,0.1-0.4l-2.2,4.1h-9.9l-0.6-1.1h-1.9l1,1.9l-1.6,3l-0.8,1.5l-2.8,5.2
		c-0.1,0.3-0.1,0.6,0,0.8c0.1,0.2,0.4,0.4,0.7,0.4h10.9c0.3,0,0.6-0.2,0.7-0.4l4.7-8.7l1.1,2l0.8,1.5L480.8,695.3z M470.2,694.1h-9
		l2.2-4l0.8-1.5l1.6-2.9h9L470.2,694.1z M470.2,694.1"/>
	<path class="st0" d="M478.6,681.1h2.1c0.8,0,1.5,0.7,1.5,1.5c0,0.5,0.4,0.8,0.8,0.8s0.8-0.4,0.8-0.8c0-1.7-1.4-3.1-3.1-3.1h-2.1
		c-0.3,0-0.6,0.2-0.7,0.4c-0.1,0.1-0.1,0.2-0.1,0.4C477.7,680.8,478.1,681.1,478.6,681.1L478.6,681.1z M478.6,681.1"/>
	<path class="st0" d="M466.6,682.9c0.5,0,0.8-0.4,0.8-0.8s-0.4-0.8-0.8-0.8h-4.8c-0.5,0-0.8,0.4-0.8,0.8s0.4,0.8,0.8,0.8H466.6z
		 M466.6,682.9"/>
</g>
<g>
	<path class="st0" d="M683.4,577.6l-0.8,1.5c1.3,0.9,2.2,2.4,2.4,4h1.7C686.4,580.8,685.1,578.9,683.4,577.6L683.4,577.6z
		 M683.4,577.6"/>
	<path class="st0" d="M679,589.9c-3.3,0-6-2.7-6-6c0-3.3,2.7-6,6-6c0.7,0,1.5,0.1,2.1,0.4l0.8-1.5c-0.9-0.4-1.9-0.6-2.9-0.6
		c-4.2,0-7.6,3.4-7.6,7.6c0,4.2,3.4,7.6,7.6,7.6c3.9,0,7.2-3,7.6-6.8H685C684.6,587.6,682,589.9,679,589.9L679,589.9z M679,589.9"/>
	<path class="st0" d="M700.8,576.3c-1,0-2,0.2-2.9,0.6l0.8,1.5c0.7-0.2,1.4-0.4,2.1-0.4c3.3,0,6,2.7,6,6c0,3.3-2.7,6-6,6
		c-3.3,0-6-2.7-6-6c0-2,1-3.7,2.4-4.8l-0.8-1.5c-2,1.4-3.3,3.7-3.3,6.3c0,4.2,3.4,7.6,7.6,7.6c4.2,0,7.6-3.4,7.6-7.6
		C708.5,579.7,705.1,576.3,700.8,576.3L700.8,576.3z M700.8,576.3"/>
	<path class="st0" d="M700.1,584.3c0.1,0.3,0.4,0.4,0.7,0.4c0.1,0,0.3,0,0.4-0.1c0.4-0.2,0.5-0.7,0.3-1.1l-2.8-5.2l-0.8-1.5l-1.6-3
		l2-3.7h-0.5c-0.5,0-0.8-0.4-0.8-0.8c0-0.1,0-0.3,0.1-0.4l-2.2,4.1H685l-0.6-1.1h-1.9l1,1.9l-1.6,3l-0.8,1.5l-2.8,5.2
		c-0.1,0.3-0.1,0.6,0,0.8c0.1,0.2,0.4,0.4,0.7,0.4h10.9c0.3,0,0.6-0.2,0.7-0.4l4.7-8.7l1.1,2l0.8,1.5L700.1,584.3z M689.4,583.1h-9
		l2.2-4l0.8-1.5l1.6-2.9h9L689.4,583.1z M689.4,583.1"/>
	<path class="st0" d="M697.9,570.1h2.1c0.8,0,1.5,0.7,1.5,1.5c0,0.5,0.4,0.8,0.8,0.8s0.8-0.4,0.8-0.8c0-1.7-1.4-3.1-3.1-3.1h-2.1
		c-0.3,0-0.6,0.2-0.7,0.4c-0.1,0.1-0.1,0.2-0.1,0.4C697,569.8,697.4,570.1,697.9,570.1L697.9,570.1z M697.9,570.1"/>
	<path class="st0" d="M685.8,571.9c0.5,0,0.8-0.4,0.8-0.8s-0.4-0.8-0.8-0.8h-4.8c-0.5,0-0.8,0.4-0.8,0.8s0.4,0.8,0.8,0.8H685.8z
		 M685.8,571.9"/>
</g>
</svg>
