<?xml version="1.0" encoding="utf-8"?>
<!-- Generator: Adobe Illustrator 22.0.0, SVG Export Plug-In . SVG Version: 6.00 Build 0)  -->
<svg version="1.1" id="Layer_1" xmlns="http://www.w3.org/2000/svg" xmlns:xlink="http://www.w3.org/1999/xlink" x="0px" y="0px"
	 viewBox="0 0 500 500" style="enable-background:new 0 0 500 500;" xml:space="preserve">
<style type="text/css">
	.st0{fill:#CCCCCB;}
</style>
<g>
	<g>
		<g>
			<path class="st0" d="M243,386c16.4,0,32.7-3.2,47.8-9.5c15.1-6.3,29-15.5,40.6-27.1c11.6-11.6,20.9-25.4,27.1-40.6
				c6.3-15.1,9.5-31.4,9.5-47.8c0-16.4-3.2-32.7-9.5-47.8c-6.3-15.1-15.5-29-27.1-40.6c-11.6-11.6-25.4-20.9-40.6-27.1
				c-15.1-6.3-31.4-9.5-47.8-9.5c-16.4,0-32.7,3.2-47.8,9.5c-15.1,6.3-29,15.5-40.6,27.1c-11.6,11.6-20.9,25.4-27.1,40.6
				c-6.3,15.1-9.5,31.4-9.5,47.8c0,16.4,3.2,32.7,9.5,47.8c6.3,15.1,15.5,29,27.1,40.6c11.6,11.6,25.4,20.9,40.6,27.1
				C210.3,382.8,226.6,386,243,386v32c-20.5,0-41.1-4-60.1-11.9c-19-7.9-36.4-19.5-50.9-34c-14.5-14.5-26.2-31.9-34-50.9
				C90,302.1,86,281.5,86,261c0-20.5,4-41.1,11.9-60.1c7.9-19,19.5-36.4,34-50.9c14.5-14.5,31.9-26.2,50.9-34
				c19-7.9,39.6-11.9,60.1-11.9c20.5,0,41.1,4,60.1,11.9c19,7.9,36.4,19.5,50.9,34c14.5,14.5,26.2,31.9,34,50.9
				c7.9,19,11.9,39.6,11.9,60.1c0,20.5-4,41.1-11.9,60.1c-7.9,19-19.5,36.4-34,50.9c-14.5,14.5-31.9,26.2-50.9,34
				c-19,7.9-39.6,11.9-60.1,11.9V386z"/>
		</g>
	</g>
</g>
</svg>
