<?xml version="1.0" encoding="utf-8"?>
<!-- Generator: Adobe Illustrator 22.0.0, SVG Export Plug-In . SVG Version: 6.00 Build 0)  -->
<svg version="1.1" id="Layer_1" xmlns="http://www.w3.org/2000/svg" xmlns:xlink="http://www.w3.org/1999/xlink" x="0px" y="0px"
	 viewBox="0 0 800 800" style="enable-background:new 0 0 800 800;" xml:space="preserve">
<style type="text/css">
	.st0{display:none;}
	.st1{display:inline;}
	.st2{fill:#3A3A3A;}
	.st3{fill:#E5DFD5;}
	.st4{fill:#C9C1B6;}
	.st5{fill:#A0A37B;}
	.st6{fill:#9EBC7E;}
	.st7{fill:#9E6D54;}
	.st8{fill:#453B37;}
	.st9{fill:#B2B6B5;}
	.st10{fill:#616C73;}
	.st11{fill:#927F7A;}
	.st12{fill:#CF9074;}
	.st13{fill:#BEB9B1;}
	.st14{fill:none;stroke:#5B5B5B;stroke-miterlimit:10;}
	.st15{fill:#858B8A;}
	.st16{fill:#D9D3CA;}
	.st17{opacity:0.56;fill:#BEB9B1;enable-background:new    ;}
	.st18{fill:#7E482D;}
	.st19{fill:#C24847;}
	.st20{fill:#7F7C47;}
	.st21{fill:#607A3D;}
	.st22{fill:#263919;}
	.st23{fill:#6B9349;}
	.st24{fill:#516630;}
	.st25{fill:#6B8448;}
	.st26{fill:#374521;}
	.st27{fill:#848484;}
</style>
<g id="Layer_1_1_" class="st0">
	<g id="fHatiR.tif" class="st1">
	</g>
</g>
<g id="Layer_2_1_">
	<rect x="14" y="13.5" class="st2" width="772" height="773"/>
	<polygon class="st3" points="133.2,375.4 241.3,157 481.5,110.6 675.6,653.7 534.6,690.3 	"/>
	<polygon class="st4" points="223.5,446.3 239.8,439.5 219.5,388.5 240.3,380.2 242.2,385 277.9,371.5 269.8,348 302,337.7 
		295.4,317.1 311.1,311.8 300.1,280.6 297.2,281.6 289.5,257.4 276.4,262 265.4,234.3 235.5,244 232.6,237.2 228.7,238.2 220,211.1 
		231.9,206.2 220.2,199.5 133.2,374.4 	"/>
	<path class="st5" d="M180.2,310.1l20.5-33.2l8.6-0.5c0,0,2,1.4,4.9,0.5c0,0,1.1,2.4,4.8,3.7c0,0.2,7.4,9.1,17.3,9.5
		c3.9,0.4,7.8-3.5,8.7-4.4c0,0,1.9,1.9,3.8,2.9c-1,1.9-2.9,7.7,1,9.6c0,1,1.6,6.3,8,6.4c6.4,0.3,9.3-14.2,6.4-14.2
		c-1.9,0,10.8-10.1,4.4-9.9c0.4,0.3,0.7-0.6,1.5-2.1c1.7,0.4,9.7-1.1,6.7-4.7c2.8,1.3,5.7,1.3,8.6,1.3c1.9,1,5.3,2.8,8.4-2.4
		c-0.7-3.4-4.2-13.9-4.2-13.9l-12.4,6.3l-12-30.6l-29.9,9.6l-2.9-6.7l-3.8,1l-8.7-27l11.5-4.8l-11.5-6.7l-46.6,94.8l2.3,1.5
		c0,0,3.7-1.4,6.2,2.3c1.4,1.8-0.5,4.7-1.4,5.7c1,1,0,4.3-1.4,4.6C178.5,308.6,180.1,308.5,180.2,310.1z"/>
	<path class="st6" d="M572.2,368.2l-1.8,3.3c0,0,1.9,3.8-2.9,7.7c0,2.9-5.8,5.8-7.7,6.7c1.9,2.9,6,10.4,6,10.4s-0.2,2.1,1.7,4
		c-1,2.9,1,4.8,2.9,5.8c1,2.9,1.3,4.1,1.3,4.1s2.5,0.7,1.5,3.6c1.9,1,3,2.7,2.4,4.2c2.4,3.5,10.1,16.2,10.1,16.2s2.5-6.4,3.2-6.1
		c0.7,0.3,3.3,2.1,3,2.6c-0.4,1.5-0.4,2.5-0.4,2.5s2,1.2,1.4,4.9c1.4-1.1,1.4-0.1,1.4-0.1s2.1-0.7,3-0.8c0.9-0.1,0.9-0.2,0.9-0.2
		l-25-69.7L572.2,368.2z"/>
	<polygon class="st6" points="163.1,346.3 195.9,348.3 218.1,427.5 213.2,438.1 133.2,375.4 147.9,345.5 	"/>
	<path class="st4" d="M502.9,449.7l-3.9-8.6l26.1-9.6l-4.2-10.8l3.3-1.7l-5.8-18.4l16.7-5.8l-5.1-13.6l-8.7,2.9l-20.3-57
		c0,0,3.7-7.3,12-1.7c-0.5-4,2.4-6,6.2-4c4.8-1.9,32.8-13.5,32.8-13.5l123.5,344.8l-116.9,31.4l-22.8-85.8l19.2-5.5
		c0,0-19.4-12-20.9-17.7c-1.5-5.5-14.6-48.4-14.6-48.4l53.6-19.9l-26.1-73.5L502.9,449.7z"/>
	<path class="st6" d="M488.3,652.6l22.2-29.8l18.4-6.7l12.5,43.5l11.3-2.4l33.9-10.1l8.7,8.3c0,0,1.3,3.3,0.6,4.2
		c-0.8,1-0.8,1-0.8,1s4.1-0.9,5.5,0.5c0.3,1.4,0.2,5.4-1.6,9.1c-1.8,3.8-1.8,3.8-1.8,3.8l-62.7,16.5l-47.4-37.1L488.3,652.6z"/>
	<polygon class="st4" points="463.2,319 545,288 480.6,110.6 363.1,133.5 381.2,182.2 390.5,178.7 444.9,330.9 465.2,323.2 	"/>
	<path class="st6" d="M421.3,133.5l-3.8,1.5c0,0,4.7,5.4,4.9,7.3c-5.6,1.9-49,17.4-49,17.4L363,133.3l60.6-11.3c0,0,3.8,2.9,3.8,6.7
		C427.4,132.8,421.3,133.5,421.3,133.5z"/>
	<path class="st6" d="M433.5,170.8l6.5,10.3l10.6,5.8l2.9,26.1l-8.7,19.3c0,0,8.7,2.9,3.8,11.5l-3.3,1.8l4.6,14.2
		c0,0-1.7,8.1-4.9,8.7c-2.2-5.3-34.7-97-34.7-97l22.3-7.7L433.5,170.8L433.5,170.8L433.5,170.8L433.5,170.8L433.5,170.8"/>
	<polygon class="st7" points="476.2,614.5 391.3,558.4 433.7,503.4 417.4,481.2 453.1,467.7 457.9,479.2 473.4,473.4 468.6,461.8 
		547.7,433.8 573.7,507.2 502.3,531.4 520.7,589.4 513.8,592.2 520.7,614.5 503.3,620.4 498.5,608.7 	"/>
	<polygon class="st8" points="434.7,479.2 455.3,473.1 457.9,479.2 473.4,473.4 471,467.7 543.8,442.6 565.9,502.4 493.6,526.6 
		520.7,614.5 503.3,620.4 498.5,608.7 480.6,613.3 	"/>
	<polygon class="st9" points="440.6,497.6 458.8,491.8 494.6,599.1 477.2,604.8 	"/>
	<polygon class="st10" points="519.4,525.6 537,584.5 519.7,589.4 502.3,531.4 	"/>
	<polygon class="st7" points="381.6,525.6 418.4,473.4 340.2,417.4 274.5,439.7 281.3,458.9 318,446.4 301.5,471.5 	"/>
	
		<rect x="231.7" y="381.4" transform="matrix(0.9278 -0.3731 0.3731 0.9278 -138.1417 120.7841)" class="st11" width="22.5" height="71.7"/>
	<polygon class="st7" points="241.8,384.2 310.3,360.3 312.2,365.3 332.4,358.4 346.9,400 260.8,431.3 	"/>
	<polygon class="st10" points="247,397.2 272.6,388.5 285.2,422.5 261.1,430.9 	"/>
	<polygon class="st10" points="278.2,371.6 269.7,347.8 301.5,337.2 294.8,316.9 316.1,310.2 332.4,358.4 312.2,365.3 310.3,360.3 	
		"/>
	
		<rect x="345.1" y="283.9" transform="matrix(0.9415 -0.3369 0.3369 0.9415 -98.0014 139.6579)" class="st11" width="16.7" height="136.5"/>
	
		<rect x="288.9" y="232.7" transform="matrix(0.9415 -0.3369 0.3369 0.9415 -68.217 117.5543)" class="st11" width="31.3" height="45.2"/>
	
		<rect x="475.8" y="326.2" transform="matrix(0.9415 -0.3369 0.3369 0.9415 -92.1932 187.2114)" class="st10" width="35.1" height="66.1"/>
	
		<rect x="456.1" y="387.6" transform="matrix(0.9415 -0.3369 0.3369 0.9415 -111.8511 182.7498)" class="st11" width="29.1" height="52.2"/>
	
		<rect x="297.7" y="164.2" transform="matrix(0.9415 -0.3369 0.3369 0.9415 -44.5994 116.4911)" class="st11" width="31.3" height="45.2"/>
	
		<rect x="417.1" y="170.5" transform="matrix(0.9415 -0.3369 0.3369 0.9415 -59.6507 158.7887)" class="st10" width="21.3" height="161.5"/>
	
		<rect x="463.9" y="124.8" transform="matrix(0.9415 -0.3369 0.3369 0.9415 -19.9383 169.231)" class="st8" width="27.4" height="34.4"/>
	
		<rect x="229.7" y="209" transform="matrix(0.9415 -0.3369 0.3369 0.9415 -61.3771 95.8139)" class="st11" width="31.3" height="31.4"/>
	
		<rect x="374.6" y="144.2" transform="matrix(0.9415 -0.3369 0.3369 0.9415 -28.0355 150.4722)" class="st7" width="89.9" height="23.6"/>
	<polygon class="st7" points="445.4,245.4 467.6,237.7 476.2,262.8 502.3,254.1 515.8,294.7 488.7,303.4 485.9,294.7 463.6,301.4 	
		"/>
	<polygon class="st7" points="339.2,255 328.6,251.2 337.3,235.8 353.7,243.5 348.9,253.1 358.5,257.9 350.8,273.4 335.3,265.7 	"/>
	<polygon class="st7" points="356.5,216.4 365.3,200 382.6,207.8 377.8,218.4 386.4,222.2 382.6,229.9 392.3,233.8 389.4,239.6 
		397.1,242.5 388.5,260.9 371.1,251.2 373,246.4 365.3,242.5 368.2,235.8 358.5,229.9 364.3,221.2 	"/>
	<polygon class="st7" points="350.8,294.7 358.5,279.2 374.9,287 370.1,296.6 378.8,301.4 373.9,310.2 381.6,313.1 378.8,320.8 
		391.3,326.6 387.5,336.3 394.2,339.2 389.4,346.9 397.1,350.7 393.3,358.4 400,362.4 397.1,372 406.7,375.8 397.1,392.3 
		382.6,384.5 386.4,376.8 378.8,372 382.6,363.3 373.9,358.4 376.8,352.6 370.1,348.8 373,342 363.4,336.3 367.2,327.5 359.4,322.7 
		363.4,315 354.6,310.2 358.5,301.4 	"/>
	<polygon class="st7" points="381.6,285.1 393.3,262.8 408.7,270.5 404.8,279.2 414.5,284 410.6,292.8 417.4,296.6 413.6,305.3 
		423.2,310.2 419.3,317.9 425.1,319.8 419.3,336.3 433.7,343 428,355.5 441.5,363.3 432.8,380.7 415.5,370.1 417.4,366.2 400,356.5 
		408.7,341.1 400,336.3 404.8,328.5 395.2,324.6 400,316 391.3,310.2 395.2,303.4 387.5,300.5 391.3,290.8 	"/>
	<polygon class="st12" points="520.7,384.5 530.3,380.7 535.1,395.2 517.8,400 524.5,419.3 502.3,427.1 490.7,395.4 	"/>
	<polygon class="st13" points="232.8,174.2 256.2,184.6 344,151.6 338.3,138.3 241.7,156.5 	"/>
	<polyline class="st12" points="209.4,275.8 196.8,301.9 209.4,307.7 221,283.5 238.4,290.4 225.8,316.4 239.3,323.2 245.1,311.6 
		269.2,323.2 252.8,358.9 173.7,319.3 	"/>
	<polyline class="st14" points="163.1,343.5 171.8,328 185.3,335.8 181.5,343.5 	"/>
	<polyline class="st14" points="194,348.3 195.9,344.5 189.2,340.6 187.2,344.5 	"/>
	<polyline class="st14" points="435.2,166.7 451.6,160.9 456.4,169.5 460.3,167.6 	"/>
	<polyline class="st14" points="463.2,185 469,198.5 477.7,195.6 482.5,210.2 466.1,216.9 	"/>
	<polygon class="st7" points="482.5,167.6 494.1,162.8 504.7,194.7 493.2,199.5 	"/>
	<polyline class="st14" points="505.7,202.4 493.2,207.3 506.6,244 	"/>
	<line class="st14" x1="533.2" y1="270.5" x2="515.8" y2="220.3"/>
	<polyline class="st14" points="531.7,325.1 540.4,322.2 546.2,340.6 	"/>
	<line class="st14" x1="552" y1="357" x2="556.8" y2="370.5"/>
	<polyline class="st14" points="533.6,368.6 549.1,408.2 565.5,402.4 	"/>
	<polygon class="st7" points="528.8,408.2 543.4,403.4 549.1,418.9 534.6,423.7 	"/>
	<polyline class="st14" points="569.4,422.7 570.4,425.6 563.5,428.5 566.4,437.2 553.9,442.1 560.7,458.4 565.5,456.5 	"/>
	<polyline class="st14" points="594.5,450.7 611.8,499.1 608,501 613.7,517.4 	"/>
	<polyline class="st14" points="589.6,517.4 594.5,529 600.3,527.1 604.1,537.7 598.3,539.6 603.2,552.2 608.9,549.3 612.8,558 	"/>
	<path class="st14" d="M534.8,577.3c0,0,35.8,40.6,128.7,43"/>
	<path class="st14" d="M651.8,587.1c-74.1-19.3-83.8-78-83.8-78"/>
	<polygon class="st15" points="372.7,440.8 383.1,428.5 404.3,428.5 416.9,443 401.7,461.5 	"/>
	<polygon class="st16" points="286.2,257.9 276.5,230.9 306.4,219.3 309.3,229.6 282.7,239.1 289,257.9 286.6,259.5 	"/>
	<polygon class="st17" points="285.4,246.8 266.4,235.3 276.9,265.2 289.5,258.5 	"/>
	<polygon class="st13" points="228.7,238.2 220,211.1 249,199.5 251.2,205.9 225.8,215 233.1,236.8 	"/>
	<polygon class="st17" points="220.2,199.5 248,207.2 236.9,211 	"/>
	<polygon class="st13" points="335.3,286.2 331.9,277.7 315.6,284.6 358,397.6 360.3,396.5 322.3,290.4 	"/>
	<polygon class="st13" points="306.7,278.5 309.7,289.4 309.7,309.6 300.2,280.9 	"/>
	<polygon class="st13" points="472.8,385.2 468.1,371.5 440.1,381.1 457.4,431.4 461,429.5 448.7,394.7 	"/>
	<polygon class="st6" points="474.4,643.1 488.3,622.8 438.2,589.4 425.7,604.8 	"/>
	<polygon class="st4" points="411.5,593.9 423.8,579.9 391.8,558 434.2,502.9 416.9,480.7 381.2,525.1 301.1,471 320.4,445 
		252.8,469.1 	"/>
	<path class="st18" d="M551,353.1c0,0,1,4.8,6.7,3.9c5.8-1,1-3.9,2.9-5.8c1.9-1.9,1-6.7-3.8-4.8C554.9,346.4,543.4,343.5,551,353.1z
		"/>
	<path class="st19" d="M558.7,345.4c0,0,6-2.5,3.9-7.5c-2-5-3.9-1.2-7.8-3.1c-3.9-1.9-9.6-1.9-8.7,7.7c-1,2.9-1.5,6.6,2.6,7.2
		c-0.7-3.4,0.3-4.3,8-3.4C558.7,345.4,558.7,345.4,558.7,345.4z"/>
	<path class="st20" d="M523.1,301.9c0,0,1,4.8,6.7,3.9c5.8-1,1-3.9,2.9-5.8c1.9-1.9,1-6.7-3.8-4.8
		C526.9,295.2,515.3,292.3,523.1,301.9z"/>
	<path class="st21" d="M465.2,310.7c0,0,1,4.8,6.7,3.9c5.7-0.9,1-3.9,2.9-5.8c1.9-1.9,1-6.7-3.8-4.8
		C469,303.8,457.4,300.9,465.2,310.7z"/>
	<path class="st22" d="M530.8,294.2c0,0,6-2.5,3.9-7.5c-2-5-3.9-1.2-7.8-3.1c-3.8-1.9-9.6-1.9-8.7,7.7c-1,2.9-1.5,6.6,2.6,7.2
		c-0.7-3.4,0.3-4.3,8-3.4C530.8,294.2,530.8,294.2,530.8,294.2z"/>
	<path class="st20" d="M525.1,320.8c0,0,3.7-1.4,6.6,1.4c2.9,2.9,1.1,5.3-5.8,5C527.9,324.1,525.1,320.8,525.1,320.8z"/>
	<path class="st22" d="M500.6,327.2c0,0,1.2-4,6.1-4s12.5,4.8,14.5,15.5c1.9,10.6-7.7,2.9-7.7,2.9s-3.6,4.5-6.5,3.3
		C503.7,336.8,500.6,327.2,500.6,327.2z"/>
	<path class="st23" d="M521.1,329.9l9.6,24.2c0,0-1.9,1-1,2.9c2.9,0,1,3.8,1.9,4.8c1,1,5.8,5.8,0,7.7c-1,1.9-2.9,1.9-2.9,1.9
		s1.9,0,1.9,2.9c1.9,1.9,2.7,6-0.1,7.3c-0.9-0.6-0.9-0.6-0.9-0.6l-8.7,3.3l-14-39.3c0,0,3.6,0.2,6.4-3.7c2.9,2.9,5.7,3.1,6.7,2.5
		c1-0.6,2.9-2.1-1.2-12C520.2,330.9,521.1,329.9,521.1,329.9z"/>
	<path class="st19" d="M561.6,384c0,0,2.9,1,5.8-4.8c1-1,4.8-3.9,2.9-7.7c-2.9,0-6.7-1.9-8.7-3.9c-1.9-1.9-5.8,0-4.8,4.8
		s3.8,4.8,2.9,7.7C558.7,383.1,561.6,384,561.6,384z"/>
	<path class="st18" d="M561.6,367.7c0,0-1-2.9,2.9-2.9c0-1.9,1.9-3.9,2.9-2.9c1,1,4.4,1.3,5.1,3.6c0.7,2.2-2.2,6.1-2.2,6.1
		S564.5,370.5,561.6,367.7z"/>
	<path class="st19" d="M567.4,400.5c0,0-1,4.8,2.9,5.8c3.8,1,1.9-2.9,4.8-4.8c2.9-1.9,2.9-8.7-1.9-8.7s-1.9,0-5.8,1.9
		C563.5,396.6,567.4,400.5,567.4,400.5z"/>
	<path class="st19" d="M447,454.4c0,0,0,4.9,3.9,5.1c3.9,0.2,1.3-3.2,3.8-5.7s1.2-9-3.6-8.2s-1.9,0.4-5.3,3
		C442.6,451.3,447,454.4,447,454.4z"/>
	<path class="st19" d="M570.4,410.1c0,0,3.8,0,2.9,3.8c1.9,1,4.8,5.8-1,6.7c-1,2.9-5.8,1.9-6.7,1c-0.9-0.9-1.9-4.8,1.9-5.8
		C565.5,413.1,567.4,410.1,570.4,410.1z"/>
	<path class="st19" d="M549.1,418.9c0,0,0,3.9,3.8,2.9c3.8-1,10.6-8.7,8.7-11.5c-1.9-2.9-6.7-3.9-8.7,0
		C548.2,410.1,546.2,412,549.1,418.9z"/>
	<path class="st19" d="M428.5,452.7c0,0,0,3.9,3.8,2.9c3.8-1,10.6-8.7,8.7-11.5c-1.9-2.9-6.7-3.9-8.7,0
		C427.5,444,425.6,445.9,428.5,452.7z"/>
	<path class="st19" d="M585.7,435.2c0,0,1.9-8.7,3.8-6.7c1.9,1.9,2.9,1,1.9,4.8c2.9,1.9,1,8.7-1,8.7
		C588.4,442.1,585.7,442.1,585.7,435.2z"/>
	<path class="st23" d="M591.5,445.9c0,0,0-9.6,2.9-7.7c1.9-1,3.6-1.3,4.2,0.3c0.6,1.6,3.6,10,3.6,10s-1.1,6.9-3.9,6
		c-2.9-1-2.9-5.8-2.9-5.8S591.5,450.7,591.5,445.9z"/>
	<path class="st23" d="M563.5,459.4c0,0,0-3.9,2.9-3.9c1-2.9,6.7-4.8,7.7,0c1.9,1.9,5.8,6.7-1,9.6
		C566.4,468.2,563.5,459.4,563.5,459.4z"/>
	<path class="st21" d="M562.1,476.1c0,0,9.1-8.9,14-6.9c4.8,2-1.9,18.4-1.9,18.4s3.8-1,5.8,1c3.8-1.9,7.7-1,7.7,1.9
		s-9.3,17-15.8,11.8c-2.6-7-3.7-10.5-3.7-10.5s1.2-3.3,2.1-2.3c-1.9-2.9-3.3-0.9-3.3-0.9L562.1,476.1z"/>
	<path class="st22" d="M567.4,481.6c0,0-1-2.9,2.9-2.9c1-3.9,6.7-3.9,7.7,0c2.9,0,7.7,3.9,1.9,7.7
		C573.3,486.4,567.4,481.6,567.4,481.6z"/>
	<path class="st21" d="M585.5,495.2c0,0,7,1.9,5.1,19.4c-1.9,17.4-9.6,5.8-13.6,4.8c-3.8-1-10.6-1.3-3.4-16.2
		C579,503.9,583.3,499.2,585.5,495.2z"/>
	<path class="st21" d="M616.6,527.1c0,0,11.5,1.9,6.7-7.7c2.9-2.9,2.9-6.7-1-6.7s-6.7,1-7.7,4.8c-2.9,0-6.7,1.9-5.8,6.7
		C609.7,529,616.6,527.1,616.6,527.1z"/>
	<path class="st22" d="M624.4,542.6c0,0,1.9-4.8,5.8-1.9c3.8,2.9,3.8-1.9,3.8-1.9l2.8,6.7c0,0-0.9,8.7-8.6,3.8
		C620.6,544.5,624.4,542.6,624.4,542.6z"/>
	<path class="st20" d="M625,541.4c0,0-7.3-5.7-1.5-10.5c1.9-1,2.9,4.8,5.8,3.8c2.9-1,2.9-1,2.9-1l1.9,4.8c0,0,0,4.8-3.8,1.9
		C627.3,537.7,625,541.4,625,541.4z"/>
	<path class="st23" d="M536.5,278.7c0,0-1.9,0-3.8-1.9c-1.9-1.9-1.9-5.8,2.9-4.8c4.8,1,4.4,2.4,4.4,2.4S542.4,279.7,536.5,278.7z"/>
	<path class="st23" d="M538.4,285.5c0,0-1.9,1-3.8-2.9s0-4.4,0-4.4s4.6,2.5,6.2-0.9C542.4,280.6,542.4,284.6,538.4,285.5z"/>
	<path class="st21" d="M503.7,251.7c0,0,1.9,3.9,4.8,1.9c2.9-1.9,1-2.9,1-4.8s1.9-9.6-4.8-3.8C498.9,243,498,249.7,503.7,251.7z"/>
	<path class="st21" d="M514.3,274.9c0,0,1.9,3.8,4.8,1.9c2.9-1.9,1-2.9,1-4.8c0-1.9,1.9-9.6-4.8-3.9
		C509.5,266.2,508.5,272.9,514.3,274.9z"/>
	<path class="st23" d="M508.5,208.2c0,0-1,4.8,1.9,6.7c1,2.9,3,9.8,9.2,2.5c-1.5-4.4-3.2-8.9-3.2-8.9s-2.2,0.6-4.1-1.3
		c1-1,1.6-5.6,1.6-5.6s-1.6-3.1-3.6-2.1c-2,1-4.8,1-3.8,3.9c1,2.9,2.9,1.9,2.9,2.9C509.5,207.3,508.5,208.2,508.5,208.2z"/>
	<path class="st21" d="M479.6,223.6c0,0,1,2.9,4.8,1c1.9,1.9,5.8,1,4.8-1.9c-1-2.9-2.9-5.8-3.8-5.8
		C484.4,216.9,478.6,218.8,479.6,223.6z"/>
	<path class="st21" d="M462.2,222.7c0,0,2.9,1.9,4.8-1c1.9-2.9-1.9-8.7-2.9-8.7s-6.7,2.9-5.8,6.7
		C459.3,223.6,462.2,222.7,462.2,222.7z"/>
	<path class="st21" d="M469,220.8c0,0,1.9-6.7,4.8-5.8c2.9,1,2.9,3.9,2.9,3.9s3.8,4.8-4.8,7.7c-1,1,6.7,8.7-3.8,8.7
		c-3.8,0-3.8-2.9-9.6-4.8c-5.8-1.9-0.1-8.6,1-8.6c1,0.9,1.9,0.9,2.9,0.9c1,1,3.8,1,4.8-1S469,220.8,469,220.8z"/>
	<path class="st21" d="M617.6,634.3c0,0-6.7,1-4.8-9.6c-4.8-5.8,0-15.5,7.7-10.6c0-2.9,1-6.7,5.8-2.9c2.9-1,12.5,4.8,6.7,11.5
		c1,3.8,1.9,8.7-3.8,9.6c3.8,1.9,5.8,8.7-1,7.7c-6.7-1-8.7-4.8-7.7-5.8C617.6,634.3,617.6,634.3,617.6,634.3z"/>
	<path class="st20" d="M614.7,640.1c0,0-3.8,7.7,2.9,6.7s10.6-6.7,10.6-6.7s-7.7-1-7.7-5.8c-4.8,0-4.8,0-4.8,0
		S609.9,638.2,614.7,640.1z"/>
	<path class="st22" d="M618.5,647.9c0,0,1,1,2.9,0c1,1.9,5.8,1.9,4.8-1.9c-1-3.8-3.8-4.8-3.8-4.8S616.6,643.9,618.5,647.9z"/>
	<path class="st23" d="M645.7,626.6c0,0-2.9,4.8,1,6.7c1.9,1,7.7-1,12.5-7.7c-2.9-1-5.9-3.9-7.2-5.8
		C650.5,617.8,641.7,617.8,645.7,626.6z"/>
	<path class="st20" d="M651.4,619.9c0,0,1-2.9,3.8-1.9c1-2.9,5.6-2.3,7.1-0.2c1.5,3.1,2.7,6.7,2.7,6.7s-1.2,3.1-6,1.2
		C654.3,623.7,651.4,619.9,651.4,619.9z"/>
	<path class="st23" d="M669.5,636.8c0,0-12.3-3.5-12.3,2.3c-8.7-2.9-14.5-1.9-14.5,2.9c-5.8,0-5.8,2.9-5.8,2.9s-5.8-1-7.7,2.9
		c-1.9,3.9,0,6.7-2.9,6.7c-2.9-1.9-10.6-2.9-10.6,2.9c0,1.9,1,3.9,1.9,3.9c-2.9,1.9-2.2,7.9-2.2,7.9l60.1-15.7L669.5,636.8z"/>
	<path class="st20" d="M653.3,634.3c0,0-2.9,0.6-3.4-1.2s2.4-5.6,4.3-5.6c1.9,0,4.8,2.9,4.8,4.8S656.2,637.2,653.3,634.3z"/>
	<path class="st21" d="M673.2,654.2L655,659c0,0,3.3-3.2,3.3-5.4c0-2.9,2.9-10.6,7.7-9.6c4.8,1,5.7-1.4,5.7-1.4l3.9,11.1
		L673.2,654.2z"/>
	<path class="st22" d="M634.9,664.2c0,0,3.9-4.8-0.9-6.7c-4.8-1.9-7.7,0-9.6-1.9s-9.6,2.9-3.8,6.7c-1.9,2.9-1.7,6.1-1.7,6.1
		L634.9,664.2z"/>
	<path class="st21" d="M630.4,656.6c0,0-2.1-9.7,7.5-9.7c2.9,4.8,16.1,3.6,17.7,11.5c-6.1,2-20.6,5.9-20.6,5.9s3.8-4.8-1-6.7
		C632.1,656.5,630.4,656.6,630.4,656.6z"/>
	<path class="st22" d="M617.6,576.4c0,0,1,1.9,4.8,1c1.9,1.9,7.7,1,6.7-2.9s-3.8-9.6-6.7-8.7c-2.9,1-3.8,4.8-3.8,4.8
		S613.7,572.5,617.6,576.4z"/>
	<path class="st21" d="M616.5,575.3c0,0-4.7,3-6.6-1.8c-1.9-4.8,1.9-6.7,1.9-6.7s-5.8-8.7,3.8-10.6c2.9-1,3.8,1.9,5.8,1
		c2-0.9,7.7-3.8,10.6,2.9s-4.7,9.6-4.7,9.6s-2-4-3.9-3.9c-1.9,0.1-4.8,3-4.8,4.9C614.7,572.5,616.5,575.3,616.5,575.3z"/>
	<path class="st22" d="M539.2,597.3c0,0-8.5-2.6-1.7-8.4c6.7-5.8,7.7-4.8,7.7-4.8s4.8,2.9,0,6.7c1,1,2.5,3,1.2,4.4
		C541.3,596.7,539.2,597.3,539.2,597.3z"/>
	<path class="st22" d="M592.5,667.1c0,0-4.8-5.8,1.9-5.8c1-1.9,7.7-2.9,6.7,1.9c-1,4.8-1.9,9.6-5.8,8.7
		C591.5,671.1,592.5,667.1,592.5,667.1z"/>
	<path class="st20" d="M596.1,659.8c0,0,3.2-11-16.2-7.1c-19.3,3.9-3.8,9.6-3.8,12.5s9.7,9,16.4,4c0-1.2,0-2.1,0-2.1s-2-2.2-1.4-4.5
		c0.5-1.3,3.4-1.3,3.4-1.3L596.1,659.8z"/>
	<path class="st23" d="M578.5,668.4c0,0-3.4,9.3-10.1,7.4c-2.9-1-4.8-2.9-4.8-2.9s-16.4,15.5-28,14.5c-5.8-2.9-6.7-8.7-6.7-8.7
		s-1-7.7,10.6-10.6c0-3.8,2.9-4.8,9.6-4.8c1-2.9,4.8-4.8,10.6-2.9c-1.9-2.9,1-5.8,5.8-3.8c0-1.9,6.7-1.4,6.7-1.4s-6,1.8,2.8,8.4
		c1.1,0.8,1.1,2.6,2,3.6C578.1,668.1,578.5,668.4,578.5,668.4z"/>
	<path class="st22" d="M553.9,673c0,0-6.7-4.8-1-6.7c-1-1.9,1.9-7.7,4.8-4.8c2.9,2.9,3.8,13.6-1,14.5C552,676.9,553.9,673,553.9,673
		z"/>
	<path class="st18" d="M519.2,670l-5.8-4.8c0,0-2.9-3.8,3.8-3.8c1-1.9,3.8-1.9,4.8,1.9C525,664.2,525.9,672,519.2,670z"/>
	<path class="st22" d="M532,684.8c0,0,9.3,1.6,11.2-10.9c1-3.9-3.8-7.7-7.7-5.8c-1.9-3.8-7.7-4.8-8.7,1.9
		C525.9,676.9,532,684.8,532,684.8z"/>
	<path class="st20" d="M518.3,631.4c0,0,7.7,4.8,9.6,2.9c1.9-1.9,0-4.8-1-4.8c0-1.9-1.9-4.8-4.8-2.9
		C519.2,626.6,516.3,630.5,518.3,631.4z"/>
	<path class="st21" d="M523.9,625.9c0,0-0.9-4.1-4.7-0.3c-3.8,0-3.8,2.9-3.8,2.9s-7.7-1.9-5.8,5.8c-2.9,2.9-1.9,8.7,4.8,7.7
		c6.7-1,8.7-8.1,8.7-8.1l-4.9-2.5c0,0-2.9-2.9,3.8-4.8C522.1,626.6,523,626.3,523.9,625.9z"/>
	<path class="st21" d="M518.3,643.9c0,0,2.9,1.9,4.8-1.9c1.9-3.9-4.8-5.8-4.8-5.8s-4.8,1.9-3.8,4.8
		C515.4,643.9,516.3,643,518.3,643.9z"/>
	<path class="st21" d="M590.6,619.9c0,0-1,2.9,2.9,1.9c1.9,1.9,8.7-1,7.7-2.9c-1-1.9,0-3.8-5.8-2.9C593.5,614,587.7,615,590.6,619.9
		z"/>
	<path class="st20" d="M580.9,615c0,0-1.9-5.8,3.8-6.7c1.9,0,2.9,2.9,1.9,4.8c2.9,0,4.2,2.4,4.2,2.4s-2,1.2-1.2,2.8
		c-2.1,2.6-4,1.6-4,1.6s-0.3,3.3-5,4C579,617.8,578.1,617.8,580.9,615z"/>
	<path class="st19" d="M417.9,487.4c0,0-3.6,0.6-4.7-2.1c-1.1-2.7,4.7-6.5,4.7-6.5s4.8,2.9,4.8,4.8c0,1.9,11.5,19.3,11.5,19.3
		l-7.6,9.8c0,0-5.9,0.8-7.8-3.1C416.9,505.8,417.9,487.4,417.9,487.4z"/>
	<path class="st20" d="M349.3,529c0,0,13.6,13.6,16.4,6.7c0-2.9-1.9-5.8-2.9-5.8c-1.9-3.8-2.9-4.8-8.7-4.8
		C348.2,525.1,349.3,529,349.3,529z"/>
	<path class="st22" d="M350.4,530c0,0-5.9,3.9-8.7-2.9c-2.9-6.7-3.8-7.7-3.8-7.7s8.7,1.9,7.7-1.9c4.8,2.9,9.6,7.7,9.6,7.7
		s-5.8-1-5.8,3.9L350.4,530z"/>
	<path class="st20" d="M345.5,517.4c0,0,0-4.8-2.9-4.8c-1.9-3.8-5.8-2.9-6.7-2.9c-1,0-1.9-4.8-3.8-5.8c1-4.8,0-7.7-5.8-6.7
		c-5.8,1-10.6,8.7-7.7,11.5c2.9,2.9,8.7,3.8,11.5,2.9c1,3.8,6.4,8.7,11.8,8.2C347.4,519.4,345.5,517.4,345.5,517.4z"/>
	<path class="st21" d="M356.1,545.5c0,0,6.7,7.7,12.5,0c1.9-1.9-1-3.9-1-3.9s2.9-4.8-1.9-5.8c-1,2.9-5.5,1.9-6.1,1
		c-0.7-1-9.3-1-8.4,3.9S356.1,545.5,356.1,545.5z"/>
	<path class="st21" d="M313.7,502.9c0,0,6.7-4.8-2.9-10.6c-3.8-2.9-8.7-1-8.7-1s-6.7-5.8-9.6-1.9c-2.9,3.9,3.8,13.6,8.7,12.5
		c2.9,2.9,5.8,8.7,10.6,6.7C316.6,506.6,313.7,502.9,313.7,502.9z"/>
	<path class="st22" d="M299.4,489.4c0,0,0.7-3.9-2.2-4.9c1-1.9-2.9-5.8-5.8-1.9c-3.8-1-3.8,5.8,1,6.7
		C294.3,487.4,296.7,487.6,299.4,489.4z"/>
	<path class="st22" d="M276,475.9c0,0,6.7,2.9,7.7-1.9s-3.8-5.8-3.8-5.8s-3.7-7.3-10-5.1c-6.3,2.2-5.4,9-2.5,9.9
		C267.3,478.7,275,479.7,276,475.9z"/>
	<path class="st21" d="M281.3,468.7c0,0-1.4-6.4,9.1-4.4c4.8-2.9,13.3-1.1,13.4,3.8c0.1,4.9-1.7,6.8-1.7,6.8s7.4,5.1-2.6,12.2
		c-0.3-1.6-2.2-2.6-2.2-2.6s0.5-2.7-1.7-3.3c-2.1-0.6-3.1,0.4-4,1.3c-1-1.9-7.1-8.4-7.9-8C284.7,473,282.8,469.3,281.3,468.7z"/>
	<path class="st6" d="M310.7,509.1l40.7,31.5c0,0-1.3-4.7,7-4.2c-2.2-1.5-8-6.4-8-6.4s-3.7,2.6-6.2,0.3c-2.4-2.2-5.3-10.9-6.2-10.9
		s-6.7-2.9-7.7-7.7c-1.9,1-10.5-0.2-12-3.5c-1.4-2.3,1.6-7.2,2-7.2c0.4,0.1-4.3-3.7-4.3-3.7s0.9,3.7-2,5.6
		C314.6,504.8,315.3,507.5,310.7,509.1z"/>
	<path class="st6" d="M292.2,494.4L271.3,478c0,0,3.7,0.7,4.6-2.2c3.8,1,4.8,1.9,7.7-1c1.9,1,7.7,6.7,7.7,7.7c-1,0-3.4,0.2-2.6,3.5
		c0.7,2.3,3.6,3.3,3.6,3.3S291.2,491.7,292.2,494.4z"/>
	<path class="st22" d="M280.2,299.9c0,0-6.2-1.8-4.2-5.7c1.9-3.9,2.9-3.9,2.9-3.9s-1-3.9,1.9-3.9s3.8,1,2.9,3.9
		c2.9,1.9,1.9,7.7,1.9,7.7S281.5,296.8,280.2,299.9z"/>
	<path class="st22" d="M254.7,289.4c0,0,2.9,2.9,4.8,0c1.9-2.9-1-5.8-1-5.8s-1-4.8-3.8,0C250.9,284.6,249.9,289.4,254.7,289.4z"/>
	<path class="st23" d="M263.5,279.7c0,0-7.7,1.9-6.7-2.9c1-2.9,2.9-2.9,2.9-2.9s0-4.8,3.8-3.8c3.8,1,3.8,3.8,3.8,3.8s4.8,1,2.9,4.8
		C268.3,282.6,263.5,279.7,263.5,279.7z"/>
	<path class="st19" d="M292.4,217.9c0,0-7.7,1.9-6.7-2.9c1-2.9,2.9-2.9,2.9-2.9s0-4.8,3.8-3.8s3.8,3.8,3.8,3.8s4.8,1,2.9,4.8
		C297.2,220.8,292.4,217.9,292.4,217.9z"/>
	<path class="st22" d="M285.7,274.9c0,0-9.6,1-10.6-3.9c-1-4.8,16.1-7.1,16.1-7.1l2.9,8C293.9,271.9,292.4,278.7,285.7,274.9z"/>
	<path class="st21" d="M251.8,246.8c0,0,4.8-3.9,7.7,1.9c4.8,1,7.7,5.8,6.7,6.7c-1,1-5.8,1.9-5.8,4.8c0,2.9-4.8,4.8-7.7,2.9
		c-4.8,1.9-5.8-1-5.8-1s1.9,6.7-1.9,6.7s-9.6-1.9-8.7-4.8c1-2.9,15.5-19.3,17.4-8.7C255.7,252.6,255.7,250.7,251.8,246.8z"/>
	<path class="st22" d="M253.8,255.5c0,0,2.9-3.3,0-6.4c-2.9-3.1-2.9-3.2-4.8-2.2c-1-1.9-3.8-3.9-5.8-1.9c-2,2-1,4.8-1,4.8
		s-5.3,4.4-0.2,7.5c2.1-1.7,5.3-5.7,9.5-5.1C252.8,252.6,253.8,254.5,253.8,255.5z"/>
	<path class="st23" d="M209.4,234.3c0,0,1.9-8.7,5.8-4.8c1.9,1.9,1,3.9,1,3.9s2.9,0,1.9,2.9c-1,2.9-2.9,2.9-3.8,2.9
		c-1,0,0,2.9-1.9,2.9S204.5,240.1,209.4,234.3z"/>
	<path class="st23" d="M203.6,250.7c0,0-1,7.7,3.8,6.7c4.8-1,9.6-6.7,9.6-9.6c0-2.9-1.9-4.8-3.8-4.8c-1.9,0-5.8-1.9-8.7,1
		C201.7,246.8,203.6,250.7,203.6,250.7z"/>
	<path class="st19" d="M270.2,202.4c0,0-1,7.7,3.8,6.7c4.8-1,9.6-6.7,9.6-9.6c0-2.9-1.9-4.8-3.8-4.8c-1.9,0-5.8-1.9-8.7,1
		C268.3,198.5,270.2,202.4,270.2,202.4z"/>
	<path class="st23" d="M208.5,272.9c0,0-1,5.8,5.8,3.9c2.9,4.8,11.5,4.8,12.5,0c1-4.8-3.8-4.8-3.8-4.8s-3.8-9.6-9.6-5.8
		c-2.9,1.9-1.9,4.8-1.9,4.8S208.5,270,208.5,272.9z"/>
	<path class="st22" d="M215,265.4c0,0,6-6.9,11.7-1.2c1,1-1,1.9-1,1.9s2.9,0,2.9,1.9c0,1.9-1.9,4.7-6.2,2.9
		C221.9,270,219.7,264.7,215,265.4z"/>
	<path class="st22" d="M211.4,271c0,0-3.8-6.7-7.7-5.8c-3.8,1-2.9,3.8-2.9,3.8s-2.9-1.9-2.9,1s1,3.8,4.8,2.9
		c1.9,1.9,5.8,2.1,5.8,2.1S207.5,270,211.4,271z"/>
	<path class="st20" d="M249,288.4c0,0-3.8,6.7,1,9.6c0,4.8,8.7,9.6,12.5,3.9s3.8-11.5,1.9-11.5c-1.9,0,11.2-10.1,4.1-9.8
		c-2.2,0.2-4.1,0.2-5.1-0.8c-2.9,1-7.9,0-6.8-2.4c-1.8-2.4-8.6-10.1-12.4-6.3c-4.8-1-6.7,0-6.7,1.9c0,1.9,1,7.7,4.8,7.7
		C243.2,285.5,249,288.4,249,288.4z"/>
	<path class="st21" d="M244.9,285.4c0,0-5.6,8.8-17.2,2c-8.7-4.8-8.7-7.2-8.7-7.2s6.1,1.3,7.4-2.4c1.3-3.8-1.2-5.1-1.2-5.1
		s3.4,0.3,4.3-1.6c1-1.9,7.2-1.3,8.4,0.4c-0.7,1.5-0.7,8.3,4.1,9.2C242.2,282.6,244.9,285.4,244.9,285.4z"/>
	<path class="st23" d="M174.6,305.8c0,0,1,3.9,3.8,2.9c2.9-1,1.9-4.8,1.9-4.8s4.8-4.8-1-7.7s-3.8,2.9-3.8,2.9
		S166.9,300.9,174.6,305.8z"/>
	<path class="st22" d="M179.2,308.3c0,0,1.2,0.4,1.2,3.3c1.9,1,2.9,3.9-1.9,4.8c-1,2.9-5.8,3.9-6.7,0c-1-3.9,2.9-4.8,2.9-4.8
		s-2.1-2.1,0.9-3.9C176.6,309.6,179.2,308.3,179.2,308.3z"/>
	<path class="st20" d="M246.1,364.8c0,0-6.7,5.8-9.6,0c-2.9-5.8,3.8-8.7,3.8-8.7s1.9-7.7,6.7-6.7c4.8,1,2.9,6.7,2.9,6.7
		s4.8,1.9,1.9,5.8C249,365.7,246.1,364.8,246.1,364.8z"/>
	<path class="st22" d="M238.3,366.9c0,0-4.7,6.5-10.5-0.2c-5.8-6.7,8-6.3,8-6.3S235.4,365.1,238.3,366.9z"/>
	<path class="st21" d="M240.3,356c0,0-5.8-6.7-1-10.6c4.8-3.9,7.7,0,7.7,0s4.8-4.8,9.6-1c4.8,3.8,2.9,8.7,2.9,8.7s6.7,9.6-1,12.5
		s-9.5-1.3-9.5-1.3s3.7-1.5,3.7-5.4c0-1.9-2.9-2.9-2.9-2.9s2.1-6-3.3-6.8C244.2,348.3,241.3,352.2,240.3,356z"/>
	<path class="st24" d="M235.8,360.5c0,0-4.1-0.5-6.1,0.4c-1-3,4.6-11.3,4.6-11.3l3.5,1.7c0,0,1.6,3.7,2.6,4.6
		C238.4,357,236,359.4,235.8,360.5z"/>
	<path class="st24" d="M268.3,339.6c0,0,0-2.9,2.9-2.9s1.9,3.9,1,4.8c1,1,0,3.9-1,3.9c-1,0-1.9-1-1.9-1.9
		C267.3,344.5,264.4,341.6,268.3,339.6z"/>
	<path class="st22" d="M194.9,357.9c0,0-6.7-3.9-3.8-5.8c2.9-1.9,4.8-1,4.8-1s1-2.9,2.9-1.9s3.8,2.9,2.9,5.8c2.9,1,1.9,6.7-1.9,6.7
		C195.9,361.9,194.9,357.9,194.9,357.9z"/>
	<path class="st21" d="M202.8,359.9c0,0,3.7-1,3.7,2.9s-1,5.8-1,5.8s-2.9,3.9-5.8,3.9c0,1.9-3.8,4.8-5.8,3.9c-1,3.8-8.7,2.9-6.7-1.9
		s2.9-8.7,8.7-9.6c-1.9-1.9,0-4.8,0-4.8s1.2,1.8,4.4,1.8C201.7,361.9,202.8,359.9,202.8,359.9z"/>
	<path class="st22" d="M180.4,349.3c0,0,1-1.9,2.9-1c1.9,1,2.9,4.8,0,5.8c0,1.9-2.9,1.9-2.9,1.9s-1,0-1-1.9
		C177.5,353.1,176.6,349.3,180.4,349.3z"/>
	<path class="st24" d="M180.4,349.3c0,0-4.8-6.7,3.8-6.7c1.9,0,3.8,0,2.9,2.9c-1,2.9-2.4,4.5-2.4,4.5S182.4,346.4,180.4,349.3z"/>
	<path class="st22" d="M163.1,349.3c0,0,1.9-17.4-9.6-7.7c-2.9,1.9-4.8,7.2-7.7,8.4c-1.9,4.1-3.7,7.6-3.7,7.6s0.9,1.3,1.8,1.3
		c1.9-1.9,2.9,0,4.8,0s3.8-1.9,5.8-1s2.9,2.9,2.9,3.9c0,1,8.7,1,8.7-4.8C166,351.2,165,349.3,163.1,349.3z"/>
	<path class="st21" d="M143.8,358.9c0,0-2.9,3.9-1,6.7c-2.9,4.8-1.9,8.7,1,8.7c2.9,0,16.4-4.8,13.6-12.5c-1.9-4.8-4.8-4-4.8-4
		s-2.9,1.2-3.8,1.2C147.8,359,145.7,357,143.8,358.9z"/>
	<path class="st22" d="M193,377.8c0,0,4.8,2.4,3.8,5.3c-1.9,0-2.9,1-1.9,1.9c1,1-1.9,5.8-6.7,1c-4.8-4.8-7.7-5.8-6.7-6.7
		c1-1,6.1-1.6,6.1-1.6s1.9,1.5,3.3,1.2C192,378.2,193,377.8,193,377.8z"/>
	<path class="st21" d="M204.5,402.4c0,0,6.7,1.9,7.7-1.9c1.9,1,7.7-1.9,5.8-5.8c-1-1.9-1.9-2.9-1.9-2.9s1.9-6.7-2.9-6.7
		c-4.8,0-6.7,6.7-6.7,6.7S198.8,397.6,204.5,402.4z"/>
	<path class="st21" d="M203.6,414.1c0,0,0-10.6,3.8-9.6c3.8,1,6.7,0,6.7,2.9c2.9-1,6.7,1.9,3.8,7.7c-2.9,5.8-11.5,7.7-13.6,7.7
		C202.6,422.7,199.7,420.8,203.6,414.1z"/>
	<path class="st22" d="M205.4,392.7c0,0-4.7-7.6-5.7-8.6c-1-1-1.9-5.8,1-7.7c0-1.9-1-3.9-1-3.9s2.9,0,5.8-3.9c1.9,0,4.8,3.9,3.8,6.7
		c-1,2.9,0,6.7,0,6.7s3.6,1.3,2.7,3c-1.7,0.9-3.7,1.8-5.6,6.6L205.4,392.7z"/>
	<path class="st25" d="M424.1,200.9c0,0,1,10.6,10.6,7.7c4.3,4.3,11.1-0.5,10.1-2.4c1.9-1.9,0-6.7,0-6.7s3.8-2.9,0-5.8
		s-10.6-1-9.6,2.9c-2.9-3.9-5.8-11.6-10.6-6.7C419.8,194.7,424.1,200.9,424.1,200.9z"/>
	<path class="st26" d="M435.9,194c0,0-5.5-5.1,0.3-7c5.8-1.9,7.3,6,7.3,6S438.5,191.4,435.9,194z"/>
	<path class="st26" d="M425.6,181.2c0,0,5.8,1,2.9-3.8c0-1.9-1.9-6.7-4.8-5.8c-2.9,1-1,3.9-1,3.9s-3.8,2.9-1,4.8
		C424.6,182.2,425.6,181.2,425.6,181.2z"/>
	<path class="st18" d="M276.9,224.6c0,0,5.8,1,2.9-3.8c0-1.9-1.9-6.7-4.8-5.8c-2.9,1-1,3.9-1,3.9s-3.8,2.9-1,4.8
		C275.8,225.6,276.9,224.6,276.9,224.6z"/>
	<path class="st26" d="M430.4,170.5c0,0,3.8,1.9,4.8-1.9s-3-4.6-3-4.6l-6.7,2.4C425.6,166.5,422.7,171.5,430.4,170.5z"/>
	<path class="st26" d="M460.3,184.1c0,0,5.8,3.8,11.5-1s1.9-19.3-3.8-13.6C462.2,175.3,455.5,179.2,460.3,184.1z"/>
	<path class="st25" d="M461.7,175.3c0,0-5.3-5.8,0.5-9.6c3.8-1.9,7.7,1,7.7,1s5.8-4.8,9.6-1c3.8,3.9,1.9,8.7,1.9,8.7s5.8,7.7,1,11.5
		c-4.8,3.9-9.7,2.1-12.1-1.8c2.5-1.1,5.6-6.2,4-11.4c-0.6-1.3-2-4.9-3.7-4.5C469,168.6,461.7,175.3,461.7,175.3z"/>
	<path class="st21" d="M472,234.7c0,0,1.8,0.6,2.8,3.5c1.9,0,4.8-2.9,7.7-1s1.9,4.8,1.9,4.8s-1,9.6-6.7,1.9c-1,1.9,1,3.9,1,3.9
		s8.7,1.9,5.8,5.8c0,3.9-2.9,2.9-2.9,2.9s4.8,2.2,2.9,3.6c-1,0.3-7.7,2.6-7.7,2.6l-8.9-24.5c0,0-2.5-0.9-1.5-2.8
		C467.1,235.3,469.2,236,472,234.7z"/>
	<path class="st20" d="M365.2,139.1c0,0,1.5-5.3,6.3-0.5c5.8-1.9,10.6,5.8,10.6,8.7c0,2.9-5.8,1.9-5.8,1.9s-3.8,4.4-6.2,3.2
		C368.7,147.3,365.2,139.1,365.2,139.1z"/>
	<path class="st20" d="M386.4,155.4c0,0-2.4-6.1,4.3-9c-1-4.8,6.7-12.5,12.5-5.8c3.8-1.9,5.8-1,5.8-1s-2.4,6.4,1.6,7
		C401.4,150.2,386.4,155.4,386.4,155.4z"/>
	<path class="st22" d="M411.1,146.3c0,0-4.8,0-1-8.7c1.9-2.9,3.8-4.8,5.8-3.8c1.9,1,7.7,8.7,6.7,10.6c-1,1.9-3.8,4.8-7.7,1.9H411.1z
		"/>
	<path class="st20" d="M418.8,133.8c0,0,8.7,0,8.7-4.8c0-4.8-4-7.1-4-7.1l-3.8,0.7C419.6,122.5,410.1,130,418.8,133.8z"/>
	<path class="st18" d="M440.1,611.1c0,0,3.8,6.7,9.6,6.7c5.8,0,1.9-6.7,1.9-6.7s1-4.8-4.8-2.9C441.1,604.4,440.1,611.1,440.1,611.1z
		"/>
	<path class="st21" d="M445.3,607.4c0,0,4.4-3.1,1.5-7.9c-1-1.9-10.6-2.9-12.5-1.9c-1.9,1-6.7,8.7,5.8,13.6
		C440.1,609.2,441.9,605.6,445.3,607.4z"/>
	<polygon class="st27" points="532.7,228.5 608.9,443 779.8,357 678.4,107.7 	"/>
	<polygon class="st27" points="528.8,217.9 675.6,99.9 663,72.9 490.3,107.7 	"/>
	<polygon class="st27" points="671.7,72.9 785.5,345.4 785.5,47.8 	"/>
	<polygon class="st27" points="666.8,63.3 625.4,14 786.5,14 785.5,39.1 	"/>
	<polygon class="st27" points="656.2,63.3 616.6,14 450.7,14 489.2,99.9 	"/>
	<polygon class="st27" points="479.6,100.9 438.1,14 315.6,14 245.1,147.3 	"/>
	<polygon class="st27" points="234.5,148.3 304.9,14 123.5,14 	"/>
	<polygon class="st27" points="226.7,154 111,14 14.5,14 14.5,194.7 	"/>
	<polygon class="st27" points="123.5,371.5 229.6,159.9 44.4,199.5 44.4,235.3 14.5,272.9 14.5,290.4 	"/>
	<polygon class="st27" points="14.5,259.5 34.7,234.3 34.7,199.5 14.5,205.3 	"/>
	<polygon class="st27" points="123.5,381.1 14.5,300 13.5,434.3 75.2,548.3 	"/>
	<polygon class="st27" points="84.9,548.3 133.2,385 234.5,466.2 215.2,496.2 	"/>
	<polygon class="st27" points="84.9,558 212.3,504.8 252.8,583.1 266.4,620.8 159.3,707.8 	"/>
	<polygon class="st27" points="46.3,786 148.6,710.6 187.2,775.4 175.6,786 	"/>
	<polygon class="st27" points="194,769.6 164.1,716.4 277.9,624.7 265.4,586 337.8,549.3 413.1,606.3 	"/>
	<polygon class="st27" points="187.2,785.1 417.9,611.1 532.7,698.1 547.2,695.1 663.9,786 	"/>
	<polygon class="st27" points="555.8,693.2 675.6,785.1 786.5,786 786.5,630.5 	"/>
	<polygon class="st27" points="683.2,651.7 671.7,609.2 708.3,588.9 716,571.5 785.5,527.1 786.5,622.8 	"/>
	<polygon class="st27" points="664.9,598.6 612.8,450.7 786.5,363.8 785.5,519.4 712.2,565.7 703.5,581.2 	"/>
	<polygon class="st27" points="259.6,576.4 221.9,499.1 241.3,472 331.9,542.6 	"/>
	<polygon class="st27" points="13.5,452.7 145.7,701 34.7,786 13.5,786 	"/>
	<polygon class="st15" points="274.5,439.7 299,431.3 307.3,457 283.2,465.8 	"/>
	<path class="st18" d="M585.7,506.8c0,0,1,4.8,3.8,4.8s5.8-1.9,5.8-5.8c1.9,0,5.8-5.8,1.9-7.7c-3.8-1.9-6.7,1-6.7,2.9
		C588.6,499.1,581.9,499.1,585.7,506.8z"/>
	<path class="st18" d="M513.4,327c0,0-2.9-8.7,5.8-5.8c3.8-1,5.8-1.9,6.7,1c1,2.9,1.9,5.8-4.8,7.7c-2.9,2.9-4.8,3.9-8.7,2.9
		C508.5,331.8,513.4,327,513.4,327z"/>
	<path class="st6" d="M626.4,516.3c0,0-2,3.1-3,3.1c1,1.9,3.8,8.7-6.7,7.7c0,0-4.9,0.9-6.8-1c1.1,7.7,5.9,29.9,5.9,29.9
		s2.9-0.6,4.8,1.2c0-0.2,11.8-5.5,12.2,5.9c0.3,2.7-3.6,6.5-5.5,6.5c1,1.9,4,6.7-0.4,8.7c4.2,1.9,19.7,8.7,24.5,7.7L626.4,516.3z"/>
	
		<rect x="543.6" y="592.2" transform="matrix(0.9614 -0.2753 0.2753 0.9614 -149.7273 178.6801)" class="st10" width="36.1" height="61.1"/>
	<path class="st5" d="M309.4,307.4l-16.6,5.6h-4.5c0,0-0.8-1.4-1.7-2.4c4.8,0,8.8-3.2,9.2-9.8c-0.6-3.7-5.9-3.5-8.3-2.7
		c-1.4-0.3-1.9,0-1.9,0s1-5.8-1.9-7.7c0,0,0.9-2.3,0-3.1c2.9-0.8,11.5-9.9,11.5-11.6c1,3.2,1.9,6.1,1.9,6.1l2.9-1L309.4,307.4z"/>
	<path class="st24" d="M279.8,307.7c0,0-2.9-4.8,0-5.8c0-3.9,2.7-3.9,5.8-3.9c2.9,0,5.8-1,7.7,0c1.5,0.8,4.5,2.2,1,8.7
		c-2.9,5.4-7.7,3.9-7.7,3.9s3.8,2.9,0,3.9c-3.8,1-7.7,5.8-8.7-1C276.9,306.7,279.8,307.7,279.8,307.7z"/>
</g>
</svg>
