<?xml version="1.0" encoding="utf-8"?>
<!-- Generator: Adobe Illustrator 22.0.0, SVG Export Plug-In . SVG Version: 6.00 Build 0)  -->
<svg version="1.1" id="Layer_1" xmlns="http://www.w3.org/2000/svg" xmlns:xlink="http://www.w3.org/1999/xlink" x="0px" y="0px"
	 viewBox="0 0 280 207" style="enable-background:new 0 0 280 207;" xml:space="preserve">
<style type="text/css">
	.st0{fill:#32373C;}
	.st1{fill:#EA7B28;}
	.st2{fill:#01CC9B;}
	.st3{fill:#117A7F;}
	.st4{fill:#7DE314;}
	.st5{fill:#5EAAEF;}
	.st6{fill:#D22CDB;}
	.st7{fill:#A5A7A8;}
	.st8{fill:none;stroke:#808391;stroke-width:0.4;stroke-miterlimit:10;}
	.st9{fill:#9093A0;}
	.st10{fill:none;}
	.st11{font-family:'AvenirNext-DemiBold';}
	.st12{font-size:12px;}
</style>
<rect class="st0" width="279.8" height="207"/>
<path class="st1" d="M102.6-75.5c0.5-17.9,2.2-35.8,5-53.5c0.7-4.4,1.5-8.8,2.3-13.1c0.7-3.5,1.3-7,2.6-10.2
	c1.3-3.2,3.9-6.8,7.6-7.2c2.5-0.2,3.4,2.4,4.1,4.3c0.7,1.7,1.2,3.4,1.6,5.1c3.3,13.1,1.3,28,9,39.7c3.1,4.7,8.9,9,14.3,4.8
	c4.8-3.7,5.1-10.6,7.3-15.7c1.2-2.8,3.1-5.7,6.1-6.8c3.1-1.1,6.1,0.6,7.7,3.2c3.4,5.3,2,11.9,3.3,17.8c0.6,2.5,1.7,5.2,3.9,6.7
	c2.5,1.8,5.6,1.9,8.5,0.9c7.4-2.5,9.9-10.7,15.9-14.9c4.2-2.9,6.8,3.2,8.1,6.2c1.1,2.8,2.1,5.6,3.6,8.2c1.4,2.4,3.4,4.3,5.9,5.2
	c2.7,1.1,5.8,0.7,8.6,0.3c3.3-0.5,6.5-1.5,9.8-1.5c1.6,0,3.1,0.2,4.6,0.7c1.7,0.6,3.1,1.8,4.6,2.8c2.4,1.7,5.1,2.6,7.9,1.2
	c2.9-1.5,4.8-5.1,6.6-7.7c5.1-7.1,10.4-14,16.1-20.7c4.4-5.2,11-13,18.6-9c3.8,2,3.7,6.6,4,10.3c0.3,4,1,8.1,2.2,12
	c0.9,2.9,2.5,5.6,5.3,7c2.7,1.3,6,0.7,8.6-0.6c3.1-1.5,5.3-4.4,7.3-7.2c2.2-3.1,4.4-6.3,7.3-8.8c3.1-2.6,7.1-4.1,11.1-3.2
	c3.4,0.7,5.5,3.5,6.7,6.6c2,5.6,1.3,11.9,4.1,17.2c1.3,2.5,4,4.5,6.9,3.5c1.7-0.6,3-1.7,4.9-1.8c1.9,0,3.8,1.1,5.2,2.4
	c1.3,1.2,2.2,2.8,2.4,4.7c0.1,1.5-0.1,3.1-0.1,4.6c0,1.3,0.1,2.5,0.7,3.7c0.6,1.1,1.7,1.9,2.2,3.1c0.2,0.5,0.9,0.1,0.7-0.4
	c-0.5-1.1-1.4-1.8-2-2.8c-1-1.4-0.8-3.4-0.7-5.1c0.1-1.4,0.2-2.8-0.1-4.3c-0.3-1.4-1.2-2.7-2.2-3.8c-1.9-2.1-4.8-3.3-7.6-2.7
	c-1.8,0.4-3.2,1.9-5.1,1.9c-2.1,0-3.7-2.1-4.6-3.8c-2.8-5.4-1.9-12-4.2-17.6c-1-2.5-2.8-4.5-5.2-5.6c-2.9-1.4-6.5-1-9.4,0.2
	c-7,2.8-9.9,10.2-14.7,15.4c-2.6,2.8-6.4,4.9-10.3,4.1c-3.9-0.7-5.7-4.7-6.6-8.1c-1.2-4.2-1.7-8.5-2-12.9c-0.2-3-0.7-6.3-3.3-8.1
	c-5.6-4.1-12.3-0.3-16.5,3.9c-2.9,2.9-5.4,6.2-8,9.4c-2.6,3.2-5.2,6.5-7.7,9.8s-4.9,6.8-7.4,10.2c-1.1,1.5-2.3,2.8-3.9,3.6
	c-1.9,1-4,0.3-5.7-0.7c-2.8-1.6-5-3.6-8.3-4.1c-3-0.4-6,0.2-8.9,0.8c-3.2,0.7-6.6,1.4-9.9,0.9c-3.3-0.5-5.7-2.8-7.4-5.6
	c-1.5-2.7-2.4-5.7-3.6-8.5c-1.1-2.6-2.5-5.8-5.4-6.7c-3.1-1-6.2,3-7.9,5c-2.5,3-4.6,6.3-7.8,8.7c-3,2.2-7.1,3.5-10.6,1.6
	c-2.9-1.5-4-4.9-4.6-7.9c-1.1-5.8,0-11.9-3.3-17.2c-1.3-2-3.3-3.4-5.7-3.6c-2.6-0.3-4.9,1.2-6.6,3.1c-4,4.6-4.2,11.1-7,16.4
	c-1.5,2.8-3.8,5-7.1,5.1c-3.9,0.1-7-3.5-8.9-6.5c-3.9-5.9-5.1-13.1-5.9-19.9c-0.8-6.8-1.2-13.8-3-20.5c-0.7-2.7-1.6-6.6-4-8.3
	c-2.4-1.7-5.9,0.6-7.6,2.3c-2.1,2.1-3.2,5.1-4,7.9c-1.1,3.7-1.7,7.7-2.4,11.5c-1.6,8.6-2.9,17.3-3.9,26c-1.4,12.2-2.3,24.4-2.6,36.7
	C101.7-75,102.6-75,102.6-75.5L102.6-75.5z"/>
<path class="st2" d="M102.3-75.1c12.6-3.9,23.3-12.7,29.8-24.2c1.6-2.8,2.8-5.8,3.8-8.8c1-2.8,2.2-6.2,4.8-7.9
	c3.2-2.2,6.3,0.6,7.4,3.5s0.8,6,1.3,9c0.4,2.7,1.3,5.4,3.7,6.9c2.6,1.7,5.7,0.7,8.1-0.8c3-1.8,5.1-4.7,7-7.6
	c2.2-3.3,4.1-6.9,5.6-10.6c2.8-6.6,4.2-13.7,6-20.6c1.8-6.8,4.3-13.9,9.5-18.8c1.5-1.4,3.3-2.1,5.3-1.5c1.9,0.6,3.3,2.5,4.1,4.4
	c1.4,3.7,0.8,8.1,1.4,12c0.6,3.8,2,7.5,4,10.9c1.3,2.3,3.5,4.1,6.2,2.8c2.7-1.3,3.6-4.6,4.7-7.1c0.7-1.5,1.6-2.9,3-3.8
	c1.9-1.3,3.9,0.1,4.7,1.9c1.3,3.2-0.4,6.8,1.1,10.1c1,2.3,3.7,3.2,6,3.2c6.9,0.1,9.9-7.2,12.7-12.2c2-3.5,4.3-6.9,7-9.9
	c2.6-3,5.5-5.9,9-7.9c3.5-2.1,7.7-2.6,11.3-0.5c3.1,1.8,5,5.3,6.1,8.6c2.4,7,1.9,15,7.1,20.9c2,2.2,4.7,3.7,7.7,3.8
	c3.4,0.1,6.4-1.8,9-3.8c3-2.2,5.7-4.6,9.4-5.7c1.8-0.5,3.8-0.5,5.5,0.3c1.9,0.9,2.9,2.8,3.8,4.6c2.7,5.9,3.7,13,9.5,16.8
	c6,3.9,13.8,1.9,19.8-0.7c2.4-1,4.7-2.2,7.1-3.3c1.3-0.6,2.7-1.1,4.2-1.2c1.8-0.1,3.1,1.1,4,2.6c2.9,4.9,1.3,11.5,0.8,16.9
	c-0.4,4.2,0,8.2,2,12c1.6,3,4.5,5.3,8.1,5.2c0.5,0,0.5-0.8,0-0.8c-6.7,0.1-9.5-7.9-9.4-13.4c0-4.1,0.9-8.2,0.9-12.3
	c0-3.3-0.6-7.2-3-9.6c-2.5-2.5-6.3-0.8-8.9,0.4c-3.8,1.8-7.6,3.7-11.6,4.8c-3.6,1-7.5,1.2-11.1,0s-6-4.1-7.6-7.4
	c-1.5-3.1-2.4-6.4-3.7-9.5c-1.3-3-3-5.6-6.3-6.3c-3.1-0.6-6.4,0.8-8.9,2.4c-3,1.9-5.6,4.5-8.8,6.1c-3.6,1.8-7.5,1.2-10.5-1.3
	c-2.9-2.5-4.4-6.1-5.4-9.7c-1.8-6.9-1.9-14.7-7.6-19.8c-5.5-5-12.7-2.1-17.7,2c-5.9,4.9-10.3,11.4-13.8,18.1
	c-1.7,3.1-3.5,6.5-6.8,8.2c-2.7,1.4-6.8,1.3-8.7-1.4c-1.2-1.6-0.9-3.9-0.8-5.8c0.1-1.6,0.1-3.1-0.5-4.7c-0.8-2.1-3.1-3.8-5.3-2.7
	c-2.7,1.3-3.8,4.3-4.9,6.8c-0.6,1.5-1.5,2.8-2.7,3.9c-2,1.7-4.1,0.5-5.4-1.3c-2.3-3.3-3.7-7.4-4.4-11.4c-0.7-4-0.1-8.1-1.4-12
	c-0.8-2.4-3.1-5-5.8-5.2c-3.3-0.3-5.6,2.4-7.5,4.7c-4.2,5.3-6.1,12-7.8,18.5c-1.9,7.3-3.5,14.6-6.8,21.5c-1.7,3.6-3.8,7-6.2,10.3
	c-2.1,2.9-5.5,6-9.3,6.1c-4.1,0.1-5.6-4.2-6-7.5c-0.4-3-0.2-5.9-1.2-8.7c-0.8-2.3-2.5-4.4-5-4.8c-2.4-0.4-4.4,1.1-5.8,3
	c-2.6,3.4-3.4,7.9-5.1,11.7c-1.9,4.2-4.5,8.1-7.6,11.7c-6.1,7.2-14.3,12.6-23.3,15.3C101.6-75.8,101.8-75,102.3-75.1L102.3-75.1z"/>
<path class="st3" d="M102.6-75.4c4.6-15.5,11.3-30.3,20.1-43.9c4.2-6.5,8.7-13,14.3-18.4c5.2-5.1,11.9-9.3,19.3-9.5
	c7.5-0.2,13.9,4.4,18.6,9.9c4.3,5,7,11.4,11.8,16c2.1,2,4.7,3.4,7.6,3.8c3.3,0.4,6.6-0.8,9.3-2.5c6.4-4.1,9.5-11.9,13.8-17.9
	c4.6-6.6,10.4-12.6,16.9-17.4c3.4-2.5,7.1-3.5,11.3-2.2c3.9,1.2,6.9,4.1,9.4,7.1c2.5,3,4.7,6.4,7.4,9.3c2.5,2.7,5.3,5.1,8.3,7.2
	c5.9,4,13.3,7.5,20.3,4.3c3.3-1.5,6.2-3.8,9-6.1c3.2-2.6,6.6-4.9,10.3-6.5c3.6-1.5,7.7-2,11.4-0.4c3.6,1.5,5.9,5,8,8.1
	c4.5,6.8,8.1,14.2,10.8,21.9c1.4,3.8,2.5,7.7,3.4,11.6c0.9,3.8,1.3,7.7,2.4,11.5c0.8,2.9,2.2,5.6,4.5,7.6c2,1.8,4.6,3.1,7.1,4
	c5.4,2,11.5,2.8,17.2,2.6c0.5,0,0.5-0.8,0-0.8c-6.1,0.2-12.4-0.7-18.1-3c-2.7-1.1-5.4-2.7-7.3-5c-2.5-3-3.2-7.2-3.9-11
	c-1.4-7.9-3.6-15.6-6.7-23c-2.9-7-6.5-14.1-11.1-20.1c-2.1-2.7-4.7-4.9-8.1-5.8c-3.3-0.9-6.8-0.1-9.9,1.1c-3.4,1.3-6.4,3.4-9.3,5.6
	c-3.1,2.4-6,5-9.5,6.7c-7.9,4-16.5-0.9-22.8-5.8c-3-2.4-5.7-5.1-8.1-8.1c-2.5-3.1-4.7-6.5-7.5-9.3c-2.4-2.4-5.5-4.3-8.9-5
	s-6.6,0.3-9.5,2.2c-6.3,4.1-11.7,10-16.2,15.9c-2.4,3.2-4.5,6.5-6.6,9.9c-2.2,3.5-4.5,7-7.9,9.5c-3.1,2.3-7.1,3.6-10.9,2.7
	c-3.2-0.8-5.7-3.1-7.8-5.5c-2.1-2.6-3.8-5.5-5.6-8.3c-1.9-2.9-4-5.6-6.4-8c-4.7-4.7-10.9-7.9-17.7-7.6c-6.8,0.3-12.9,4.1-17.8,8.5
	c-5.6,5-10,11.1-14.2,17.3c-9.6,14.3-16.9,30-21.8,46.5C101.7-75.1,102.5-74.8,102.6-75.4L102.6-75.4z"/>
<path class="st4" d="M102.2-75c34.3,1.7,65.1-16.1,93.5-33c13-7.7,30.7-20.7,45.9-10.9c5.6,3.6,9.8,9.4,16.7,10.7
	c7,1.2,13.9-2.1,20.6-3.2c3.6-0.5,7.1-0.3,10.5,1.2c2.7,1.2,5.2,3,7.4,5c4.5,3.9,8.3,8.5,13.4,11.7c6.5,4.2,14,3.6,21.4,2.9
	c3.9-0.4,7.8-0.6,11.7-0.1c3.8,0.4,7.6,1.4,11.2,2.7c7.6,2.7,14.5,7.3,20.4,12.8c0.4,0.4,1-0.2,0.6-0.6c-10.6-10.2-25-16.8-39.9-16
	c-8.1,0.4-16.3,2.3-23.8-1.8c-5.4-2.9-9.4-7.8-13.9-11.8c-4.3-3.9-9.2-7-15.3-7.1c-7.3-0.1-14,3.6-21.3,3.7
	c-7.6,0.1-12.4-5.6-18-9.9c-6-4.5-13.4-5.2-20.6-3.7c-8,1.8-15.2,6.4-22.2,10.5c-7.4,4.3-14.7,8.8-22.1,13
	c-14.9,8.4-30.4,15.9-47,20c-9.5,2.4-19.4,3.5-29.3,3.1C101.7-75.9,101.7-75.1,102.2-75L102.2-75z"/>
<path class="st5" d="M102.4-75.1c11.3-8.7,20.4-19.4,26-32.5c3.3-7.8,5.9-15.9,8.4-24c2.4-7.7,4.5-15.6,7.8-23
	c2.5-5.7,6.3-11.8,12.6-13.9c7.4-2.5,14.4,2.3,19.3,7.4c5.4,5.7,9.7,12.8,13.4,19.7c3.9,7.4,6.7,15.2,9.2,23.1
	c4.2,13.2,10,28.9,24.6,33.4c6.2,1.9,13,1,18.9-1.5c3.1-1.3,5.9-3.1,8.5-5.2c2.9-2.4,5.2-5.4,7.8-8.1c2.8-3,6.3-5.6,10.5-5.6
	c3.2,0,5.6,2.1,7.2,4.6c2.7,4.1,3.8,9.4,7.7,12.6c5.1,4.1,11.2,0.3,14.6-4c4-5.1,5.4-12.4,11.2-16c5.5-3.5,12.1-0.3,17.1,2.4
	c5.5,3,11,6.2,16.4,9.5c10.8,6.5,21.3,13.6,31.4,21.1c0.4,0.3,0.8-0.4,0.4-0.7c-13.7-10.1-28.1-19.4-42.9-27.8
	c-6.2-3.5-14.1-9-21.4-5.9c-5.8,2.4-8.1,9.1-10.9,14.2c-1.8,3.2-4.5,6.3-7.9,7.7c-3,1.2-6.2,0.3-8.4-1.9c-3.5-3.6-4.5-9-7.6-13
	c-4.2-5.2-11-3.7-15.6,0.1c-3,2.5-5.2,5.8-8,8.5c-2.5,2.5-5.5,4.5-8.6,6.1c-6.3,3.2-13.7,4.3-20.5,2.2c-7.1-2.2-12.4-7.9-16.1-14.1
	c-4.3-7.1-6.4-15.2-8.9-23c-2.5-7.6-5.6-15-9.5-22c-3.7-6.6-8-13.2-13.5-18.5c-4.7-4.5-10.9-7.9-17.5-6.4
	c-5.8,1.4-9.9,6.5-12.6,11.5c-3.5,6.5-5.5,13.9-7.7,20.9c-3.8,12.2-7.3,25-13.5,36.3c-5.4,10-13.3,18.3-22.3,25.1
	C101.6-75.5,102-74.8,102.4-75.1L102.4-75.1z"/>
<path class="st6" d="M375.6-75.6c-0.1-16.5-2.4-32.9-6.8-48.8c-2.2-7.9-5-15.6-8.2-23.1c-2.9-6.6-5.8-14.2-11.4-19.1
	c-5.5-4.7-13.2-5-19.9-3.3c-8.1,2.1-15.4,7-22.7,11c-7.9,4.4-15.8,8.7-23.7,13.1c-7.2,4-14.7,7.9-23,8.9c-15.6,2-28.8-8.8-41.5-16
	c-13.3-7.5-29.2-11.9-44.2-7c-13.4,4.5-23.7,15.3-32.3,26.1c-4.9,6.2-9.7,12.7-14.4,19c-5,6.6-9.8,13.4-14.4,20.3
	c-4,6-7.7,12.2-11.1,18.5c-0.3,0.5,0.5,0.9,0.7,0.4c7.9-14.7,17.6-28.3,27.6-41.6c9.1-12.2,18-25.2,30.2-34.4
	c5.7-4.3,12.2-7.5,19.3-8.9c8.1-1.6,16.5-0.4,24.3,2.1c7.6,2.5,14.5,6.5,21.3,10.6c6.3,3.8,12.6,7.7,19.5,10
	c7.1,2.4,14.5,2.4,21.7,0.3c7.8-2.3,14.9-6.5,21.9-10.4c8-4.4,15.9-8.8,23.9-13.2c7.3-4,14.8-8.6,23.4-9c3.9-0.2,7.9,0.7,11.3,2.8
	c3.2,2,5.5,5.3,7.4,8.6c4.1,7.1,7.1,14.9,9.9,22.6c5.6,15.8,9,32.3,10.2,49c0.3,3.8,0.4,7.6,0.4,11.4
	C374.8-75.1,375.6-75.1,375.6-75.6L375.6-75.6z"/>
<g>
	<g>
		<g>
			<g>
				<g>
					<g>
						<path class="st7" d="M67.8-44.9L67.8-44.9c-0.1,0-0.2-0.2-0.2-0.4v-3.6c0-0.2,0.1-0.4,0.2-0.4c0.1,0,0.2,0.2,0.2,0.4v3.6
							C68.1-45.1,68-44.9,67.8-44.9z"/>
						<path class="st7" d="M67.9-55.4L67.9-55.4c-0.1,0-0.2-0.2-0.2-0.4l0.1-6.8c0-0.2,0.1-0.4,0.2-0.4s0.2,0.2,0.2,0.4l-0.1,6.8
							C68.2-55.5,68-55.4,67.9-55.4z M68-69L68-69c-0.1,0-0.2-0.2-0.2-0.4l0.1-6.8c0-0.2,0.1-0.4,0.2-0.4s0.2,0.2,0.2,0.4l-0.1,6.8
							C68.3-69.1,68.2-69,68-69z"/>
						<path class="st7" d="M68.1-82.6L68.1-82.6c-0.1,0-0.2-0.2-0.2-0.4l0.1-6.8c0-0.2,0.1-0.4,0.2-0.4s0.2,0.2,0.2,0.4L68.3-83
							C68.4-82.7,68.3-82.6,68.1-82.6z M68.2-96.2L68.2-96.2c-0.1,0-0.2-0.2-0.2-0.4l0.1-6.8c0-0.2,0.1-0.4,0.2-0.4l0,0
							c0.1,0,0.2,0.2,0.2,0.4l-0.1,6.8C68.5-96.3,68.4-96.2,68.2-96.2z M68.3-109.8L68.3-109.8c-0.1,0-0.2-0.2-0.2-0.4l0.1-6.8
							c0-0.2,0.1-0.4,0.2-0.4l0,0c0.1,0,0.2,0.2,0.2,0.4l-0.1,6.8C68.6-109.9,68.5-109.8,68.3-109.8z M68.4-123.4L68.4-123.4
							c-0.1,0-0.2-0.2-0.2-0.4l0.1-6.8c0-0.2,0.1-0.4,0.2-0.4l0,0c0.1,0,0.2,0.2,0.2,0.4l-0.1,6.8C68.7-123.5,68.6-123.4,68.4-123.4
							z M68.5-137L68.5-137c-0.1,0-0.2-0.2-0.2-0.4l0.1-6.8c0-0.2,0.1-0.4,0.2-0.4l0,0c0.1,0,0.2,0.2,0.2,0.4l-0.1,6.8
							C68.8-137.1,68.7-137,68.5-137z M68.6-150.6L68.6-150.6c-0.1,0-0.2-0.2-0.2-0.4l0.1-6.8c0-0.2,0.1-0.4,0.2-0.4l0,0
							c0.1,0,0.2,0.2,0.2,0.4l-0.1,6.8C68.9-150.7,68.8-150.6,68.6-150.6z M68.7-164.2L68.7-164.2c-0.1,0-0.2-0.2-0.2-0.4l0.1-6.8
							c0-0.2,0.1-0.4,0.2-0.4l0,0c0.1,0,0.2,0.2,0.2,0.4l-0.1,6.8C69-164.3,68.9-164.2,68.7-164.2z M68.8-177.8L68.8-177.8
							c-0.1,0-0.2-0.2-0.2-0.4l0.1-6.8c0-0.2,0.1-0.4,0.2-0.4l0,0c0.1,0,0.2,0.2,0.2,0.4l-0.1,6.8C69.1-177.9,69-177.8,68.8-177.8z
							 M68.9-191.4L68.9-191.4c-0.1,0-0.2-0.2-0.2-0.4l0.1-6.8c0-0.2,0.1-0.4,0.2-0.4l0,0c0.1,0,0.2,0.2,0.2,0.4l-0.1,6.8
							C69.2-191.5,69.1-191.4,68.9-191.4z M69.1-205C69.1-205,69-205,69.1-205c-0.1,0-0.2-0.2-0.2-0.4l0.1-6.8
							c0-0.2,0.1-0.4,0.2-0.4s0.2,0.2,0.2,0.4l-0.1,6.8C69.3-205.1,69.2-205,69.1-205z M69.2-218.6L69.2-218.6
							c-0.1,0-0.2-0.2-0.2-0.4l0.1-6.8c0-0.2,0.1-0.4,0.2-0.4c0.1,0,0.2,0.2,0.2,0.4l-0.1,6.8C69.4-218.7,69.3-218.6,69.2-218.6z
							 M69.3-232.2L69.3-232.2c-0.1,0-0.2-0.2-0.2-0.4l0.1-6.8c0-0.2,0.1-0.4,0.2-0.4c0.1,0,0.2,0.2,0.2,0.4l-0.1,6.8
							C69.5-232.3,69.4-232.2,69.3-232.2z"/>
						<path class="st7" d="M69.4-245.8L69.4-245.8c-0.1,0-0.2-0.2-0.2-0.4v-3.6c0-0.2,0.1-0.4,0.2-0.4h2.4c0.1,0,0.2,0.2,0.2,0.4
							s-0.1,0.4-0.2,0.4h-2.2v3.3C69.6-245.9,69.5-245.8,69.4-245.8z"/>
						<path class="st7" d="M90.9-249.4h-4.8c-0.1,0-0.2-0.2-0.2-0.4s0.1-0.4,0.2-0.4h4.8c0.1,0,0.2,0.2,0.2,0.4S91-249.4,90.9-249.4
							z M81.3-249.4h-4.7c-0.1,0-0.2-0.2-0.2-0.4s0.1-0.4,0.2-0.4h4.8c0.1,0,0.2,0.2,0.2,0.4S81.5-249.4,81.3-249.4z"/>
						<path class="st7" d="M435.1-249.4h-4.8c-0.1,0-0.2-0.2-0.2-0.4s0.1-0.4,0.2-0.4h4.8c0.1,0,0.2,0.2,0.2,0.4
							C435.4-249.6,435.3-249.4,435.1-249.4z M425.6-249.4h-4.8c-0.1,0-0.2-0.2-0.2-0.4s0.1-0.4,0.2-0.4h4.8c0.1,0,0.2,0.2,0.2,0.4
							S425.7-249.4,425.6-249.4z M416-249.4h-4.8c-0.1,0-0.2-0.2-0.2-0.4s0.1-0.4,0.2-0.4h4.8c0.1,0,0.2,0.2,0.2,0.4
							C416.3-249.6,416.2-249.4,416-249.4z M406.5-249.4h-4.8c-0.1,0-0.2-0.2-0.2-0.4s0.1-0.4,0.2-0.4h4.8c0.1,0,0.2,0.2,0.2,0.4
							S406.6-249.4,406.5-249.4z M396.9-249.4h-4.8c-0.1,0-0.2-0.2-0.2-0.4s0.1-0.4,0.2-0.4h4.8c0.1,0,0.2,0.2,0.2,0.4
							S397-249.4,396.9-249.4z M387.3-249.4h-4.7c-0.1,0-0.2-0.2-0.2-0.4s0.1-0.4,0.2-0.4h4.8c0.1,0,0.2,0.2,0.2,0.4
							S387.5-249.4,387.3-249.4z M377.8-249.4H373c-0.1,0-0.2-0.2-0.2-0.4s0.1-0.4,0.2-0.4h4.8c0.1,0,0.2,0.2,0.2,0.4
							C378-249.6,377.9-249.4,377.8-249.4z M368.2-249.4h-4.8c-0.1,0-0.2-0.2-0.2-0.4s0.1-0.4,0.2-0.4h4.8c0.1,0,0.2,0.2,0.2,0.4
							C368.5-249.6,368.3-249.4,368.2-249.4z M358.7-249.4h-4.8c-0.1,0-0.2-0.2-0.2-0.4s0.1-0.4,0.2-0.4h4.8c0.1,0,0.2,0.2,0.2,0.4
							C358.9-249.6,358.8-249.4,358.7-249.4z M349.1-249.4h-4.8c-0.1,0-0.2-0.2-0.2-0.4s0.1-0.4,0.2-0.4h4.8c0.1,0,0.2,0.2,0.2,0.4
							S349.2-249.4,349.1-249.4z M339.5-249.4h-4.8c-0.1,0-0.2-0.2-0.2-0.4s0.1-0.4,0.2-0.4h4.8c0.1,0,0.2,0.2,0.2,0.4
							C339.8-249.6,339.7-249.4,339.5-249.4z M330-249.4h-4.8c-0.1,0-0.2-0.2-0.2-0.4s0.1-0.4,0.2-0.4h4.8c0.1,0,0.2,0.2,0.2,0.4
							S330.1-249.4,330-249.4z M320.4-249.4h-4.8c-0.1,0-0.2-0.2-0.2-0.4s0.1-0.4,0.2-0.4h4.8c0.1,0,0.2,0.2,0.2,0.4
							S320.5-249.4,320.4-249.4z M310.8-249.4H306c-0.1,0-0.2-0.2-0.2-0.4s0.1-0.4,0.2-0.4h4.8c0.1,0,0.2,0.2,0.2,0.4
							C311.1-249.6,311-249.4,310.8-249.4z M301.3-249.4h-4.8c-0.1,0-0.2-0.2-0.2-0.4s0.1-0.4,0.2-0.4h4.8c0.1,0,0.2,0.2,0.2,0.4
							S301.4-249.4,301.3-249.4z M291.7-249.4h-4.8c-0.1,0-0.2-0.2-0.2-0.4s0.1-0.4,0.2-0.4h4.8c0.1,0,0.2,0.2,0.2,0.4
							C292-249.6,291.8-249.4,291.7-249.4z M282.2-249.4h-4.8c-0.1,0-0.2-0.2-0.2-0.4s0.1-0.4,0.2-0.4h4.8c0.1,0,0.2,0.2,0.2,0.4
							S282.3-249.4,282.2-249.4z M272.6-249.4h-4.8c-0.1,0-0.2-0.2-0.2-0.4s0.1-0.4,0.2-0.4h4.8c0.1,0,0.2,0.2,0.2,0.4
							S272.7-249.4,272.6-249.4z M263-249.4h-4.8c-0.1,0-0.2-0.2-0.2-0.4s0.1-0.4,0.2-0.4h4.8c0.1,0,0.2,0.2,0.2,0.4
							C263.3-249.6,263.2-249.4,263-249.4z M253.5-249.4h-4.8c-0.1,0-0.2-0.2-0.2-0.4s0.1-0.4,0.2-0.4h4.8c0.1,0,0.2,0.2,0.2,0.4
							C253.7-249.6,253.6-249.4,253.5-249.4z M243.9-249.4h-4.8c-0.1,0-0.2-0.2-0.2-0.4s0.1-0.4,0.2-0.4h4.8c0.1,0,0.2,0.2,0.2,0.4
							S244-249.4,243.9-249.4z M234.3-249.4h-4.7c-0.1,0-0.2-0.2-0.2-0.4s0.1-0.4,0.2-0.4h4.8c0.1,0,0.2,0.2,0.2,0.4
							S234.5-249.4,234.3-249.4z M224.8-249.4H220c-0.1,0-0.2-0.2-0.2-0.4s0.1-0.4,0.2-0.4h4.8c0.1,0,0.2,0.2,0.2,0.4
							S224.9-249.4,224.8-249.4z M215.2-249.4h-4.8c-0.1,0-0.2-0.2-0.2-0.4s0.1-0.4,0.2-0.4h4.8c0.1,0,0.2,0.2,0.2,0.4
							C215.5-249.6,215.3-249.4,215.2-249.4z M205.7-249.4h-4.8c-0.1,0-0.2-0.2-0.2-0.4s0.1-0.4,0.2-0.4h4.8c0.1,0,0.2,0.2,0.2,0.4
							C205.9-249.6,205.8-249.4,205.7-249.4z M196.1-249.4h-4.8c-0.1,0-0.2-0.2-0.2-0.4s0.1-0.4,0.2-0.4h4.8c0.1,0,0.2,0.2,0.2,0.4
							S196.2-249.4,196.1-249.4z M186.5-249.4h-4.8c-0.1,0-0.2-0.2-0.2-0.4s0.1-0.4,0.2-0.4h4.8c0.1,0,0.2,0.2,0.2,0.4
							C186.8-249.6,186.7-249.4,186.5-249.4z M177-249.4h-4.8c-0.1,0-0.2-0.2-0.2-0.4s0.1-0.4,0.2-0.4h4.8c0.1,0,0.2,0.2,0.2,0.4
							S177.1-249.4,177-249.4z M167.4-249.4h-4.8c-0.1,0-0.2-0.2-0.2-0.4s0.1-0.4,0.2-0.4h4.8c0.1,0,0.2,0.2,0.2,0.4
							S167.5-249.4,167.4-249.4z M157.8-249.4H153c-0.1,0-0.2-0.2-0.2-0.4s0.1-0.4,0.2-0.4h4.8c0.1,0,0.2,0.2,0.2,0.4
							C158.1-249.6,158-249.4,157.8-249.4z M148.3-249.4h-4.8c-0.1,0-0.2-0.2-0.2-0.4s0.1-0.4,0.2-0.4h4.8c0.1,0,0.2,0.2,0.2,0.4
							S148.4-249.4,148.3-249.4z M138.7-249.4h-4.8c-0.1,0-0.2-0.2-0.2-0.4s0.1-0.4,0.2-0.4h4.8c0.1,0,0.2,0.2,0.2,0.4
							C139-249.6,138.8-249.4,138.7-249.4z M129.2-249.4h-4.8c-0.1,0-0.2-0.2-0.2-0.4s0.1-0.4,0.2-0.4h4.8c0.1,0,0.2,0.2,0.2,0.4
							S129.3-249.4,129.2-249.4z M119.6-249.4h-4.8c-0.1,0-0.2-0.2-0.2-0.4s0.1-0.4,0.2-0.4h4.8c0.1,0,0.2,0.2,0.2,0.4
							S119.7-249.4,119.6-249.4z M110-249.4h-4.8c-0.1,0-0.2-0.2-0.2-0.4s0.1-0.4,0.2-0.4h4.8c0.1,0,0.2,0.2,0.2,0.4
							C110.3-249.6,110.2-249.4,110-249.4z M100.5-249.4h-4.8c-0.1,0-0.2-0.2-0.2-0.4s0.1-0.4,0.2-0.4h4.8c0.1,0,0.2,0.2,0.2,0.4
							S100.6-249.4,100.5-249.4z"/>
						<path class="st7" d="M442.4-249.4H440c-0.1,0-0.2-0.2-0.2-0.4s0.1-0.4,0.2-0.4h2.4c0.1,0,0.2,0.2,0.2,0.4
							S442.5-249.4,442.4-249.4z"/>
					</g>
				</g>
				<g>
					<g>
						<path class="st7" d="M71.8-215.3h-2.4c-0.1,0-0.2-0.2-0.2-0.4s0.1-0.4,0.2-0.4h2.4c0.1,0,0.2,0.2,0.2,0.4
							S71.9-215.3,71.8-215.3z"/>
						<path class="st7" d="M90.9-215.3h-4.8c-0.1,0-0.2-0.2-0.2-0.4s0.1-0.4,0.2-0.4h4.8c0.1,0,0.2,0.2,0.2,0.4S91-215.3,90.9-215.3
							z M81.3-215.3h-4.7c-0.1,0-0.2-0.2-0.2-0.4s0.1-0.4,0.2-0.4h4.8c0.1,0,0.2,0.2,0.2,0.4S81.5-215.3,81.3-215.3z"/>
						<path class="st7" d="M435.1-215.3h-4.8c-0.1,0-0.2-0.2-0.2-0.4s0.1-0.4,0.2-0.4h4.8c0.1,0,0.2,0.2,0.2,0.4
							S435.3-215.3,435.1-215.3z M425.6-215.3h-4.8c-0.1,0-0.2-0.2-0.2-0.4s0.1-0.4,0.2-0.4h4.8c0.1,0,0.2,0.2,0.2,0.4
							S425.7-215.3,425.6-215.3z M416-215.3h-4.8c-0.1,0-0.2-0.2-0.2-0.4s0.1-0.4,0.2-0.4h4.8c0.1,0,0.2,0.2,0.2,0.4
							S416.2-215.3,416-215.3z M406.5-215.3h-4.8c-0.1,0-0.2-0.2-0.2-0.4s0.1-0.4,0.2-0.4h4.8c0.1,0,0.2,0.2,0.2,0.4
							S406.6-215.3,406.5-215.3z M396.9-215.3h-4.8c-0.1,0-0.2-0.2-0.2-0.4s0.1-0.4,0.2-0.4h4.8c0.1,0,0.2,0.2,0.2,0.4
							S397-215.3,396.9-215.3z M387.3-215.3h-4.7c-0.1,0-0.2-0.2-0.2-0.4s0.1-0.4,0.2-0.4h4.8c0.1,0,0.2,0.2,0.2,0.4
							S387.5-215.3,387.3-215.3z M377.8-215.3H373c-0.1,0-0.2-0.2-0.2-0.4s0.1-0.4,0.2-0.4h4.8c0.1,0,0.2,0.2,0.2,0.4
							S377.9-215.3,377.8-215.3z M368.2-215.3h-4.8c-0.1,0-0.2-0.2-0.2-0.4s0.1-0.4,0.2-0.4h4.8c0.1,0,0.2,0.2,0.2,0.4
							S368.3-215.3,368.2-215.3z M358.7-215.3h-4.8c-0.1,0-0.2-0.2-0.2-0.4s0.1-0.4,0.2-0.4h4.8c0.1,0,0.2,0.2,0.2,0.4
							S358.8-215.3,358.7-215.3z M349.1-215.3h-4.8c-0.1,0-0.2-0.2-0.2-0.4s0.1-0.4,0.2-0.4h4.8c0.1,0,0.2,0.2,0.2,0.4
							S349.2-215.3,349.1-215.3z M339.5-215.3h-4.8c-0.1,0-0.2-0.2-0.2-0.4s0.1-0.4,0.2-0.4h4.8c0.1,0,0.2,0.2,0.2,0.4
							S339.7-215.3,339.5-215.3z M330-215.3h-4.8c-0.1,0-0.2-0.2-0.2-0.4s0.1-0.4,0.2-0.4h4.8c0.1,0,0.2,0.2,0.2,0.4
							S330.1-215.3,330-215.3z M320.4-215.3h-4.8c-0.1,0-0.2-0.2-0.2-0.4s0.1-0.4,0.2-0.4h4.8c0.1,0,0.2,0.2,0.2,0.4
							S320.5-215.3,320.4-215.3z M310.8-215.3H306c-0.1,0-0.2-0.2-0.2-0.4s0.1-0.4,0.2-0.4h4.8c0.1,0,0.2,0.2,0.2,0.4
							S311-215.3,310.8-215.3z M301.3-215.3h-4.8c-0.1,0-0.2-0.2-0.2-0.4s0.1-0.4,0.2-0.4h4.8c0.1,0,0.2,0.2,0.2,0.4
							S301.4-215.3,301.3-215.3z M291.7-215.3h-4.8c-0.1,0-0.2-0.2-0.2-0.4s0.1-0.4,0.2-0.4h4.8c0.1,0,0.2,0.2,0.2,0.4
							S291.8-215.3,291.7-215.3z M282.2-215.3h-4.8c-0.1,0-0.2-0.2-0.2-0.4s0.1-0.4,0.2-0.4h4.8c0.1,0,0.2,0.2,0.2,0.4
							S282.3-215.3,282.2-215.3z M272.6-215.3h-4.8c-0.1,0-0.2-0.2-0.2-0.4s0.1-0.4,0.2-0.4h4.8c0.1,0,0.2,0.2,0.2,0.4
							S272.7-215.3,272.6-215.3z M263-215.3h-4.8c-0.1,0-0.2-0.2-0.2-0.4s0.1-0.4,0.2-0.4h4.8c0.1,0,0.2,0.2,0.2,0.4
							S263.2-215.3,263-215.3z M253.5-215.3h-4.8c-0.1,0-0.2-0.2-0.2-0.4s0.1-0.4,0.2-0.4h4.8c0.1,0,0.2,0.2,0.2,0.4
							S253.6-215.3,253.5-215.3z M243.9-215.3h-4.8c-0.1,0-0.2-0.2-0.2-0.4s0.1-0.4,0.2-0.4h4.8c0.1,0,0.2,0.2,0.2,0.4
							S244-215.3,243.9-215.3z M234.3-215.3h-4.7c-0.1,0-0.2-0.2-0.2-0.4s0.1-0.4,0.2-0.4h4.8c0.1,0,0.2,0.2,0.2,0.4
							S234.5-215.3,234.3-215.3z M224.8-215.3H220c-0.1,0-0.2-0.2-0.2-0.4s0.1-0.4,0.2-0.4h4.8c0.1,0,0.2,0.2,0.2,0.4
							S224.9-215.3,224.8-215.3z M215.2-215.3h-4.8c-0.1,0-0.2-0.2-0.2-0.4s0.1-0.4,0.2-0.4h4.8c0.1,0,0.2,0.2,0.2,0.4
							S215.3-215.3,215.2-215.3z M205.7-215.3h-4.8c-0.1,0-0.2-0.2-0.2-0.4s0.1-0.4,0.2-0.4h4.8c0.1,0,0.2,0.2,0.2,0.4
							S205.8-215.3,205.7-215.3z M196.1-215.3h-4.8c-0.1,0-0.2-0.2-0.2-0.4s0.1-0.4,0.2-0.4h4.8c0.1,0,0.2,0.2,0.2,0.4
							S196.2-215.3,196.1-215.3z M186.5-215.3h-4.8c-0.1,0-0.2-0.2-0.2-0.4s0.1-0.4,0.2-0.4h4.8c0.1,0,0.2,0.2,0.2,0.4
							S186.7-215.3,186.5-215.3z M177-215.3h-4.8c-0.1,0-0.2-0.2-0.2-0.4s0.1-0.4,0.2-0.4h4.8c0.1,0,0.2,0.2,0.2,0.4
							S177.1-215.3,177-215.3z M167.4-215.3h-4.8c-0.1,0-0.2-0.2-0.2-0.4s0.1-0.4,0.2-0.4h4.8c0.1,0,0.2,0.2,0.2,0.4
							S167.5-215.3,167.4-215.3z M157.8-215.3H153c-0.1,0-0.2-0.2-0.2-0.4s0.1-0.4,0.2-0.4h4.8c0.1,0,0.2,0.2,0.2,0.4
							S158-215.3,157.8-215.3z M148.3-215.3h-4.8c-0.1,0-0.2-0.2-0.2-0.4s0.1-0.4,0.2-0.4h4.8c0.1,0,0.2,0.2,0.2,0.4
							S148.4-215.3,148.3-215.3z M138.7-215.3h-4.8c-0.1,0-0.2-0.2-0.2-0.4s0.1-0.4,0.2-0.4h4.8c0.1,0,0.2,0.2,0.2,0.4
							S138.8-215.3,138.7-215.3z M129.2-215.3h-4.8c-0.1,0-0.2-0.2-0.2-0.4s0.1-0.4,0.2-0.4h4.8c0.1,0,0.2,0.2,0.2,0.4
							S129.3-215.3,129.2-215.3z M119.6-215.3h-4.8c-0.1,0-0.2-0.2-0.2-0.4s0.1-0.4,0.2-0.4h4.8c0.1,0,0.2,0.2,0.2,0.4
							S119.7-215.3,119.6-215.3z M110-215.3h-4.8c-0.1,0-0.2-0.2-0.2-0.4s0.1-0.4,0.2-0.4h4.8c0.1,0,0.2,0.2,0.2,0.4
							S110.2-215.3,110-215.3z M100.5-215.3h-4.8c-0.1,0-0.2-0.2-0.2-0.4s0.1-0.4,0.2-0.4h4.8c0.1,0,0.2,0.2,0.2,0.4
							S100.6-215.3,100.5-215.3z"/>
						<path class="st7" d="M442.4-215.3H440c-0.1,0-0.2-0.2-0.2-0.4s0.1-0.4,0.2-0.4h2.4c0.1,0,0.2,0.2,0.2,0.4
							S442.5-215.3,442.4-215.3z"/>
					</g>
				</g>
				<g>
					<g>
						<path class="st7" d="M71.8-181.2h-2.4c-0.1,0-0.2-0.2-0.2-0.4c0-0.2,0.1-0.4,0.2-0.4h2.4c0.1,0,0.2,0.2,0.2,0.4
							C72-181.4,71.9-181.2,71.8-181.2z"/>
						<path class="st7" d="M90.9-181.2h-4.8c-0.1,0-0.2-0.2-0.2-0.4c0-0.2,0.1-0.4,0.2-0.4h4.8c0.1,0,0.2,0.2,0.2,0.4
							C91.1-181.4,91-181.2,90.9-181.2z M81.3-181.2h-4.7c-0.1,0-0.2-0.2-0.2-0.4c0-0.2,0.1-0.4,0.2-0.4h4.8c0.1,0,0.2,0.2,0.2,0.4
							C81.6-181.4,81.5-181.2,81.3-181.2z"/>
						<path class="st7" d="M435.1-181.2h-4.8c-0.1,0-0.2-0.2-0.2-0.4c0-0.2,0.1-0.4,0.2-0.4h4.8c0.1,0,0.2,0.2,0.2,0.4
							C435.4-181.4,435.3-181.2,435.1-181.2z M425.6-181.2h-4.8c-0.1,0-0.2-0.2-0.2-0.4c0-0.2,0.1-0.4,0.2-0.4h4.8
							c0.1,0,0.2,0.2,0.2,0.4C425.8-181.4,425.7-181.2,425.6-181.2z M416-181.2h-4.8c-0.1,0-0.2-0.2-0.2-0.4c0-0.2,0.1-0.4,0.2-0.4
							h4.8c0.1,0,0.2,0.2,0.2,0.4C416.3-181.4,416.2-181.2,416-181.2z M406.5-181.2h-4.8c-0.1,0-0.2-0.2-0.2-0.4
							c0-0.2,0.1-0.4,0.2-0.4h4.8c0.1,0,0.2,0.2,0.2,0.4C406.7-181.4,406.6-181.2,406.5-181.2z M396.9-181.2h-4.8
							c-0.1,0-0.2-0.2-0.2-0.4c0-0.2,0.1-0.4,0.2-0.4h4.8c0.1,0,0.2,0.2,0.2,0.4C397.1-181.4,397-181.2,396.9-181.2z M387.3-181.2
							h-4.7c-0.1,0-0.2-0.2-0.2-0.4c0-0.2,0.1-0.4,0.2-0.4h4.8c0.1,0,0.2,0.2,0.2,0.4C387.6-181.4,387.5-181.2,387.3-181.2z
							 M377.8-181.2H373c-0.1,0-0.2-0.2-0.2-0.4c0-0.2,0.1-0.4,0.2-0.4h4.8c0.1,0,0.2,0.2,0.2,0.4
							C378-181.4,377.9-181.2,377.8-181.2z M368.2-181.2h-4.8c-0.1,0-0.2-0.2-0.2-0.4c0-0.2,0.1-0.4,0.2-0.4h4.8
							c0.1,0,0.2,0.2,0.2,0.4C368.5-181.4,368.3-181.2,368.2-181.2z M358.7-181.2h-4.8c-0.1,0-0.2-0.2-0.2-0.4
							c0-0.2,0.1-0.4,0.2-0.4h4.8c0.1,0,0.2,0.2,0.2,0.4C358.9-181.4,358.8-181.2,358.7-181.2z M349.1-181.2h-4.8
							c-0.1,0-0.2-0.2-0.2-0.4c0-0.2,0.1-0.4,0.2-0.4h4.8c0.1,0,0.2,0.2,0.2,0.4C349.3-181.4,349.2-181.2,349.1-181.2z M339.5-181.2
							h-4.8c-0.1,0-0.2-0.2-0.2-0.4c0-0.2,0.1-0.4,0.2-0.4h4.8c0.1,0,0.2,0.2,0.2,0.4C339.8-181.4,339.7-181.2,339.5-181.2z
							 M330-181.2h-4.8c-0.1,0-0.2-0.2-0.2-0.4c0-0.2,0.1-0.4,0.2-0.4h4.8c0.1,0,0.2,0.2,0.2,0.4C330.2-181.4,330.1-181.2,330-181.2
							z M320.4-181.2h-4.8c-0.1,0-0.2-0.2-0.2-0.4c0-0.2,0.1-0.4,0.2-0.4h4.8c0.1,0,0.2,0.2,0.2,0.4
							C320.6-181.4,320.5-181.2,320.4-181.2z M310.8-181.2H306c-0.1,0-0.2-0.2-0.2-0.4c0-0.2,0.1-0.4,0.2-0.4h4.8
							c0.1,0,0.2,0.2,0.2,0.4C311.1-181.4,311-181.2,310.8-181.2z M301.3-181.2h-4.8c-0.1,0-0.2-0.2-0.2-0.4c0-0.2,0.1-0.4,0.2-0.4
							h4.8c0.1,0,0.2,0.2,0.2,0.4C301.5-181.4,301.4-181.2,301.3-181.2z M291.7-181.2h-4.8c-0.1,0-0.2-0.2-0.2-0.4
							c0-0.2,0.1-0.4,0.2-0.4h4.8c0.1,0,0.2,0.2,0.2,0.4C292-181.4,291.8-181.2,291.7-181.2z M282.2-181.2h-4.8
							c-0.1,0-0.2-0.2-0.2-0.4c0-0.2,0.1-0.4,0.2-0.4h4.8c0.1,0,0.2,0.2,0.2,0.4C282.4-181.4,282.3-181.2,282.2-181.2z M272.6-181.2
							h-4.8c-0.1,0-0.2-0.2-0.2-0.4c0-0.2,0.1-0.4,0.2-0.4h4.8c0.1,0,0.2,0.2,0.2,0.4C272.8-181.4,272.7-181.2,272.6-181.2z
							 M263-181.2h-4.8c-0.1,0-0.2-0.2-0.2-0.4c0-0.2,0.1-0.4,0.2-0.4h4.8c0.1,0,0.2,0.2,0.2,0.4C263.3-181.4,263.2-181.2,263-181.2
							z M253.5-181.2h-4.8c-0.1,0-0.2-0.2-0.2-0.4c0-0.2,0.1-0.4,0.2-0.4h4.8c0.1,0,0.2,0.2,0.2,0.4
							C253.7-181.4,253.6-181.2,253.5-181.2z M243.9-181.2h-4.8c-0.1,0-0.2-0.2-0.2-0.4c0-0.2,0.1-0.4,0.2-0.4h4.8
							c0.1,0,0.2,0.2,0.2,0.4C244.1-181.4,244-181.2,243.9-181.2z M234.3-181.2h-4.7c-0.1,0-0.2-0.2-0.2-0.4c0-0.2,0.1-0.4,0.2-0.4
							h4.8c0.1,0,0.2,0.2,0.2,0.4C234.6-181.4,234.5-181.2,234.3-181.2z M224.8-181.2H220c-0.1,0-0.2-0.2-0.2-0.4
							c0-0.2,0.1-0.4,0.2-0.4h4.8c0.1,0,0.2,0.2,0.2,0.4C225-181.4,224.9-181.2,224.8-181.2z M215.2-181.2h-4.8
							c-0.1,0-0.2-0.2-0.2-0.4c0-0.2,0.1-0.4,0.2-0.4h4.8c0.1,0,0.2,0.2,0.2,0.4C215.5-181.4,215.3-181.2,215.2-181.2z M205.7-181.2
							h-4.8c-0.1,0-0.2-0.2-0.2-0.4c0-0.2,0.1-0.4,0.2-0.4h4.8c0.1,0,0.2,0.2,0.2,0.4C205.9-181.4,205.8-181.2,205.7-181.2z
							 M196.1-181.2h-4.8c-0.1,0-0.2-0.2-0.2-0.4c0-0.2,0.1-0.4,0.2-0.4h4.8c0.1,0,0.2,0.2,0.2,0.4
							C196.3-181.4,196.2-181.2,196.1-181.2z M186.5-181.2h-4.8c-0.1,0-0.2-0.2-0.2-0.4c0-0.2,0.1-0.4,0.2-0.4h4.8
							c0.1,0,0.2,0.2,0.2,0.4C186.8-181.4,186.7-181.2,186.5-181.2z M177-181.2h-4.8c-0.1,0-0.2-0.2-0.2-0.4c0-0.2,0.1-0.4,0.2-0.4
							h4.8c0.1,0,0.2,0.2,0.2,0.4C177.2-181.4,177.1-181.2,177-181.2z M167.4-181.2h-4.8c-0.1,0-0.2-0.2-0.2-0.4
							c0-0.2,0.1-0.4,0.2-0.4h4.8c0.1,0,0.2,0.2,0.2,0.4C167.6-181.4,167.5-181.2,167.4-181.2z M157.8-181.2H153
							c-0.1,0-0.2-0.2-0.2-0.4c0-0.2,0.1-0.4,0.2-0.4h4.8c0.1,0,0.2,0.2,0.2,0.4C158.1-181.4,158-181.2,157.8-181.2z M148.3-181.2
							h-4.8c-0.1,0-0.2-0.2-0.2-0.4c0-0.2,0.1-0.4,0.2-0.4h4.8c0.1,0,0.2,0.2,0.2,0.4C148.5-181.4,148.4-181.2,148.3-181.2z
							 M138.7-181.2h-4.8c-0.1,0-0.2-0.2-0.2-0.4c0-0.2,0.1-0.4,0.2-0.4h4.8c0.1,0,0.2,0.2,0.2,0.4
							C139-181.4,138.8-181.2,138.7-181.2z M129.2-181.2h-4.8c-0.1,0-0.2-0.2-0.2-0.4c0-0.2,0.1-0.4,0.2-0.4h4.8
							c0.1,0,0.2,0.2,0.2,0.4C129.4-181.4,129.3-181.2,129.2-181.2z M119.6-181.2h-4.8c-0.1,0-0.2-0.2-0.2-0.4
							c0-0.2,0.1-0.4,0.2-0.4h4.8c0.1,0,0.2,0.2,0.2,0.4C119.8-181.4,119.7-181.2,119.6-181.2z M110-181.2h-4.8
							c-0.1,0-0.2-0.2-0.2-0.4c0-0.2,0.1-0.4,0.2-0.4h4.8c0.1,0,0.2,0.2,0.2,0.4C110.3-181.4,110.2-181.2,110-181.2z M100.5-181.2
							h-4.8c-0.1,0-0.2-0.2-0.2-0.4c0-0.2,0.1-0.4,0.2-0.4h4.8c0.1,0,0.2,0.2,0.2,0.4C100.7-181.4,100.6-181.2,100.5-181.2z"/>
						<path class="st7" d="M442.4-181.2H440c-0.1,0-0.2-0.2-0.2-0.4c0-0.2,0.1-0.4,0.2-0.4h2.4c0.1,0,0.2,0.2,0.2,0.4
							C442.6-181.4,442.5-181.2,442.4-181.2z"/>
					</g>
				</g>
				<g>
					<g>
						<path class="st7" d="M71.8-147.2h-2.4c-0.1,0-0.2-0.2-0.2-0.4c0-0.2,0.1-0.4,0.2-0.4h2.4c0.1,0,0.2,0.2,0.2,0.4
							C72-147.4,71.9-147.2,71.8-147.2z"/>
						<path class="st7" d="M90.9-147.2h-4.8c-0.1,0-0.2-0.2-0.2-0.4c0-0.2,0.1-0.4,0.2-0.4h4.8c0.1,0,0.2,0.2,0.2,0.4
							C91.1-147.4,91-147.2,90.9-147.2z M81.3-147.2h-4.7c-0.1,0-0.2-0.2-0.2-0.4c0-0.2,0.1-0.4,0.2-0.4h4.8c0.1,0,0.2,0.2,0.2,0.4
							C81.6-147.4,81.5-147.2,81.3-147.2z"/>
						<path class="st7" d="M435.1-147.2h-4.8c-0.1,0-0.2-0.2-0.2-0.4c0-0.2,0.1-0.4,0.2-0.4h4.8c0.1,0,0.2,0.2,0.2,0.4
							C435.3-147.4,435.3-147.2,435.1-147.2z M425.6-147.2h-4.8c-0.1,0-0.2-0.2-0.2-0.4c0-0.2,0.1-0.4,0.2-0.4h4.8
							c0.1,0,0.2,0.2,0.2,0.4C425.8-147.4,425.7-147.2,425.6-147.2z M416-147.2h-4.8c-0.1,0-0.2-0.2-0.2-0.4c0-0.2,0.1-0.4,0.2-0.4
							h4.8c0.1,0,0.2,0.2,0.2,0.4C416.2-147.4,416.2-147.2,416-147.2z M406.5-147.2h-4.8c-0.1,0-0.2-0.2-0.2-0.4
							c0-0.2,0.1-0.4,0.2-0.4h4.8c0.1,0,0.2,0.2,0.2,0.4C406.7-147.4,406.6-147.2,406.5-147.2z M396.9-147.2h-4.8
							c-0.1,0-0.2-0.2-0.2-0.4c0-0.2,0.1-0.4,0.2-0.4h4.8c0.1,0,0.2,0.2,0.2,0.4C397.1-147.4,397-147.2,396.9-147.2z M387.3-147.2
							h-4.7c-0.1,0-0.2-0.2-0.2-0.4c0-0.2,0.1-0.4,0.2-0.4h4.8c0.1,0,0.2,0.2,0.2,0.4C387.6-147.4,387.5-147.2,387.3-147.2z
							 M377.8-147.2H373c-0.1,0-0.2-0.2-0.2-0.4c0-0.2,0.1-0.4,0.2-0.4h4.8c0.1,0,0.2,0.2,0.2,0.4
							C378-147.4,377.9-147.2,377.8-147.2z M368.2-147.2h-4.8c-0.1,0-0.2-0.2-0.2-0.4c0-0.2,0.1-0.4,0.2-0.4h4.8
							c0.1,0,0.2,0.2,0.2,0.4C368.4-147.4,368.3-147.2,368.2-147.2z M358.7-147.2h-4.8c-0.1,0-0.2-0.2-0.2-0.4
							c0-0.2,0.1-0.4,0.2-0.4h4.8c0.1,0,0.2,0.2,0.2,0.4C358.9-147.4,358.8-147.2,358.7-147.2z M349.1-147.2h-4.8
							c-0.1,0-0.2-0.2-0.2-0.4c0-0.2,0.1-0.4,0.2-0.4h4.8c0.1,0,0.2,0.2,0.2,0.4C349.3-147.4,349.2-147.2,349.1-147.2z M339.5-147.2
							h-4.8c-0.1,0-0.2-0.2-0.2-0.4c0-0.2,0.1-0.4,0.2-0.4h4.8c0.1,0,0.2,0.2,0.2,0.4C339.7-147.4,339.7-147.2,339.5-147.2z
							 M330-147.2h-4.8c-0.1,0-0.2-0.2-0.2-0.4c0-0.2,0.1-0.4,0.2-0.4h4.8c0.1,0,0.2,0.2,0.2,0.4C330.2-147.4,330.1-147.2,330-147.2
							z M320.4-147.2h-4.8c-0.1,0-0.2-0.2-0.2-0.4c0-0.2,0.1-0.4,0.2-0.4h4.8c0.1,0,0.2,0.2,0.2,0.4
							C320.6-147.4,320.5-147.2,320.4-147.2z M310.8-147.2H306c-0.1,0-0.2-0.2-0.2-0.4c0-0.2,0.1-0.4,0.2-0.4h4.8
							c0.1,0,0.2,0.2,0.2,0.4C311-147.4,311-147.2,310.8-147.2z M301.3-147.2h-4.8c-0.1,0-0.2-0.2-0.2-0.4c0-0.2,0.1-0.4,0.2-0.4
							h4.8c0.1,0,0.2,0.2,0.2,0.4C301.5-147.4,301.4-147.2,301.3-147.2z M291.7-147.2h-4.8c-0.1,0-0.2-0.2-0.2-0.4
							c0-0.2,0.1-0.4,0.2-0.4h4.8c0.1,0,0.2,0.2,0.2,0.4C291.9-147.4,291.8-147.2,291.7-147.2z M282.2-147.2h-4.8
							c-0.1,0-0.2-0.2-0.2-0.4c0-0.2,0.1-0.4,0.2-0.4h4.8c0.1,0,0.2,0.2,0.2,0.4C282.4-147.4,282.3-147.2,282.2-147.2z M272.6-147.2
							h-4.8c-0.1,0-0.2-0.2-0.2-0.4c0-0.2,0.1-0.4,0.2-0.4h4.8c0.1,0,0.2,0.2,0.2,0.4C272.8-147.4,272.7-147.2,272.6-147.2z
							 M263-147.2h-4.8c-0.1,0-0.2-0.2-0.2-0.4c0-0.2,0.1-0.4,0.2-0.4h4.8c0.1,0,0.2,0.2,0.2,0.4C263.2-147.4,263.2-147.2,263-147.2
							z M253.5-147.2h-4.8c-0.1,0-0.2-0.2-0.2-0.4c0-0.2,0.1-0.4,0.2-0.4h4.8c0.1,0,0.2,0.2,0.2,0.4
							C253.7-147.4,253.6-147.2,253.5-147.2z M243.9-147.2h-4.8c-0.1,0-0.2-0.2-0.2-0.4c0-0.2,0.1-0.4,0.2-0.4h4.8
							c0.1,0,0.2,0.2,0.2,0.4C244.1-147.4,244-147.2,243.9-147.2z M234.3-147.2h-4.7c-0.1,0-0.2-0.2-0.2-0.4c0-0.2,0.1-0.4,0.2-0.4
							h4.8c0.1,0,0.2,0.2,0.2,0.4C234.6-147.4,234.5-147.2,234.3-147.2z M224.8-147.2H220c-0.1,0-0.2-0.2-0.2-0.4
							c0-0.2,0.1-0.4,0.2-0.4h4.8c0.1,0,0.2,0.2,0.2,0.4C225-147.4,224.9-147.2,224.8-147.2z M215.2-147.2h-4.8
							c-0.1,0-0.2-0.2-0.2-0.4c0-0.2,0.1-0.4,0.2-0.4h4.8c0.1,0,0.2,0.2,0.2,0.4C215.4-147.4,215.3-147.2,215.2-147.2z M205.7-147.2
							h-4.8c-0.1,0-0.2-0.2-0.2-0.4c0-0.2,0.1-0.4,0.2-0.4h4.8c0.1,0,0.2,0.2,0.2,0.4C205.9-147.4,205.8-147.2,205.7-147.2z
							 M196.1-147.2h-4.8c-0.1,0-0.2-0.2-0.2-0.4c0-0.2,0.1-0.4,0.2-0.4h4.8c0.1,0,0.2,0.2,0.2,0.4
							C196.3-147.4,196.2-147.2,196.1-147.2z M186.5-147.2h-4.8c-0.1,0-0.2-0.2-0.2-0.4c0-0.2,0.1-0.4,0.2-0.4h4.8
							c0.1,0,0.2,0.2,0.2,0.4C186.7-147.4,186.7-147.2,186.5-147.2z M177-147.2h-4.8c-0.1,0-0.2-0.2-0.2-0.4c0-0.2,0.1-0.4,0.2-0.4
							h4.8c0.1,0,0.2,0.2,0.2,0.4C177.2-147.4,177.1-147.2,177-147.2z M167.4-147.2h-4.8c-0.1,0-0.2-0.2-0.2-0.4
							c0-0.2,0.1-0.4,0.2-0.4h4.8c0.1,0,0.2,0.2,0.2,0.4C167.6-147.4,167.5-147.2,167.4-147.2z M157.8-147.2H153
							c-0.1,0-0.2-0.2-0.2-0.4c0-0.2,0.1-0.4,0.2-0.4h4.8c0.1,0,0.2,0.2,0.2,0.4C158-147.4,158-147.2,157.8-147.2z M148.3-147.2
							h-4.8c-0.1,0-0.2-0.2-0.2-0.4c0-0.2,0.1-0.4,0.2-0.4h4.8c0.1,0,0.2,0.2,0.2,0.4C148.5-147.4,148.4-147.2,148.3-147.2z
							 M138.7-147.2h-4.8c-0.1,0-0.2-0.2-0.2-0.4c0-0.2,0.1-0.4,0.2-0.4h4.8c0.1,0,0.2,0.2,0.2,0.4
							C138.9-147.4,138.8-147.2,138.7-147.2z M129.2-147.2h-4.8c-0.1,0-0.2-0.2-0.2-0.4c0-0.2,0.1-0.4,0.2-0.4h4.8
							c0.1,0,0.2,0.2,0.2,0.4C129.4-147.4,129.3-147.2,129.2-147.2z M119.6-147.2h-4.8c-0.1,0-0.2-0.2-0.2-0.4
							c0-0.2,0.1-0.4,0.2-0.4h4.8c0.1,0,0.2,0.2,0.2,0.4C119.8-147.4,119.7-147.2,119.6-147.2z M110-147.2h-4.8
							c-0.1,0-0.2-0.2-0.2-0.4c0-0.2,0.1-0.4,0.2-0.4h4.8c0.1,0,0.2,0.2,0.2,0.4C110.2-147.4,110.2-147.2,110-147.2z M100.5-147.2
							h-4.8c-0.1,0-0.2-0.2-0.2-0.4c0-0.2,0.1-0.4,0.2-0.4h4.8c0.1,0,0.2,0.2,0.2,0.4C100.7-147.4,100.6-147.2,100.5-147.2z"/>
						<path class="st7" d="M442.4-147.2H440c-0.1,0-0.2-0.2-0.2-0.4c0-0.2,0.1-0.4,0.2-0.4h2.4c0.1,0,0.2,0.2,0.2,0.4
							C442.6-147.4,442.5-147.2,442.4-147.2z"/>
					</g>
				</g>
				<g>
					<g>
						<path class="st7" d="M71.8-113.1h-2.4c-0.1,0-0.2-0.2-0.2-0.4s0.1-0.4,0.2-0.4h2.4c0.1,0,0.2,0.2,0.2,0.4
							S71.9-113.1,71.8-113.1z"/>
						<path class="st7" d="M90.9-113.1h-4.8c-0.1,0-0.2-0.2-0.2-0.4s0.1-0.4,0.2-0.4h4.8c0.1,0,0.2,0.2,0.2,0.4S91-113.1,90.9-113.1
							z M81.3-113.1h-4.7c-0.1,0-0.2-0.2-0.2-0.4s0.1-0.4,0.2-0.4h4.8c0.1,0,0.2,0.2,0.2,0.4S81.5-113.1,81.3-113.1z"/>
						<path class="st7" d="M435.1-113.1h-4.8c-0.1,0-0.2-0.2-0.2-0.4s0.1-0.4,0.2-0.4h4.8c0.1,0,0.2,0.2,0.2,0.4
							S435.3-113.1,435.1-113.1z M425.6-113.1h-4.8c-0.1,0-0.2-0.2-0.2-0.4s0.1-0.4,0.2-0.4h4.8c0.1,0,0.2,0.2,0.2,0.4
							S425.7-113.1,425.6-113.1z M416-113.1h-4.8c-0.1,0-0.2-0.2-0.2-0.4s0.1-0.4,0.2-0.4h4.8c0.1,0,0.2,0.2,0.2,0.4
							S416.2-113.1,416-113.1z M406.5-113.1h-4.8c-0.1,0-0.2-0.2-0.2-0.4s0.1-0.4,0.2-0.4h4.8c0.1,0,0.2,0.2,0.2,0.4
							S406.6-113.1,406.5-113.1z M396.9-113.1h-4.8c-0.1,0-0.2-0.2-0.2-0.4s0.1-0.4,0.2-0.4h4.8c0.1,0,0.2,0.2,0.2,0.4
							S397-113.1,396.9-113.1z M387.3-113.1h-4.7c-0.1,0-0.2-0.2-0.2-0.4s0.1-0.4,0.2-0.4h4.8c0.1,0,0.2,0.2,0.2,0.4
							S387.5-113.1,387.3-113.1z M377.8-113.1H373c-0.1,0-0.2-0.2-0.2-0.4s0.1-0.4,0.2-0.4h4.8c0.1,0,0.2,0.2,0.2,0.4
							S377.9-113.1,377.8-113.1z M368.2-113.1h-4.8c-0.1,0-0.2-0.2-0.2-0.4s0.1-0.4,0.2-0.4h4.8c0.1,0,0.2,0.2,0.2,0.4
							S368.3-113.1,368.2-113.1z M358.7-113.1h-4.8c-0.1,0-0.2-0.2-0.2-0.4s0.1-0.4,0.2-0.4h4.8c0.1,0,0.2,0.2,0.2,0.4
							S358.8-113.1,358.7-113.1z M349.1-113.1h-4.8c-0.1,0-0.2-0.2-0.2-0.4s0.1-0.4,0.2-0.4h4.8c0.1,0,0.2,0.2,0.2,0.4
							S349.2-113.1,349.1-113.1z M339.5-113.1h-4.8c-0.1,0-0.2-0.2-0.2-0.4s0.1-0.4,0.2-0.4h4.8c0.1,0,0.2,0.2,0.2,0.4
							S339.7-113.1,339.5-113.1z M330-113.1h-4.8c-0.1,0-0.2-0.2-0.2-0.4s0.1-0.4,0.2-0.4h4.8c0.1,0,0.2,0.2,0.2,0.4
							S330.1-113.1,330-113.1z M320.4-113.1h-4.8c-0.1,0-0.2-0.2-0.2-0.4s0.1-0.4,0.2-0.4h4.8c0.1,0,0.2,0.2,0.2,0.4
							S320.5-113.1,320.4-113.1z M310.8-113.1H306c-0.1,0-0.2-0.2-0.2-0.4s0.1-0.4,0.2-0.4h4.8c0.1,0,0.2,0.2,0.2,0.4
							S311-113.1,310.8-113.1z M301.3-113.1h-4.8c-0.1,0-0.2-0.2-0.2-0.4s0.1-0.4,0.2-0.4h4.8c0.1,0,0.2,0.2,0.2,0.4
							S301.4-113.1,301.3-113.1z M291.7-113.1h-4.8c-0.1,0-0.2-0.2-0.2-0.4s0.1-0.4,0.2-0.4h4.8c0.1,0,0.2,0.2,0.2,0.4
							S291.8-113.1,291.7-113.1z M282.2-113.1h-4.8c-0.1,0-0.2-0.2-0.2-0.4s0.1-0.4,0.2-0.4h4.8c0.1,0,0.2,0.2,0.2,0.4
							S282.3-113.1,282.2-113.1z M272.6-113.1h-4.8c-0.1,0-0.2-0.2-0.2-0.4s0.1-0.4,0.2-0.4h4.8c0.1,0,0.2,0.2,0.2,0.4
							S272.7-113.1,272.6-113.1z M263-113.1h-4.8c-0.1,0-0.2-0.2-0.2-0.4s0.1-0.4,0.2-0.4h4.8c0.1,0,0.2,0.2,0.2,0.4
							S263.2-113.1,263-113.1z M253.5-113.1h-4.8c-0.1,0-0.2-0.2-0.2-0.4s0.1-0.4,0.2-0.4h4.8c0.1,0,0.2,0.2,0.2,0.4
							S253.6-113.1,253.5-113.1z M243.9-113.1h-4.8c-0.1,0-0.2-0.2-0.2-0.4s0.1-0.4,0.2-0.4h4.8c0.1,0,0.2,0.2,0.2,0.4
							S244-113.1,243.9-113.1z M234.3-113.1h-4.7c-0.1,0-0.2-0.2-0.2-0.4s0.1-0.4,0.2-0.4h4.8c0.1,0,0.2,0.2,0.2,0.4
							S234.5-113.1,234.3-113.1z M224.8-113.1H220c-0.1,0-0.2-0.2-0.2-0.4s0.1-0.4,0.2-0.4h4.8c0.1,0,0.2,0.2,0.2,0.4
							S224.9-113.1,224.8-113.1z M215.2-113.1h-4.8c-0.1,0-0.2-0.2-0.2-0.4s0.1-0.4,0.2-0.4h4.8c0.1,0,0.2,0.2,0.2,0.4
							S215.3-113.1,215.2-113.1z M205.7-113.1h-4.8c-0.1,0-0.2-0.2-0.2-0.4s0.1-0.4,0.2-0.4h4.8c0.1,0,0.2,0.2,0.2,0.4
							S205.8-113.1,205.7-113.1z M196.1-113.1h-4.8c-0.1,0-0.2-0.2-0.2-0.4s0.1-0.4,0.2-0.4h4.8c0.1,0,0.2,0.2,0.2,0.4
							S196.2-113.1,196.1-113.1z M186.5-113.1h-4.8c-0.1,0-0.2-0.2-0.2-0.4s0.1-0.4,0.2-0.4h4.8c0.1,0,0.2,0.2,0.2,0.4
							S186.7-113.1,186.5-113.1z M177-113.1h-4.8c-0.1,0-0.2-0.2-0.2-0.4s0.1-0.4,0.2-0.4h4.8c0.1,0,0.2,0.2,0.2,0.4
							S177.1-113.1,177-113.1z M167.4-113.1h-4.8c-0.1,0-0.2-0.2-0.2-0.4s0.1-0.4,0.2-0.4h4.8c0.1,0,0.2,0.2,0.2,0.4
							S167.5-113.1,167.4-113.1z M157.8-113.1H153c-0.1,0-0.2-0.2-0.2-0.4s0.1-0.4,0.2-0.4h4.8c0.1,0,0.2,0.2,0.2,0.4
							S158-113.1,157.8-113.1z M148.3-113.1h-4.8c-0.1,0-0.2-0.2-0.2-0.4s0.1-0.4,0.2-0.4h4.8c0.1,0,0.2,0.2,0.2,0.4
							S148.4-113.1,148.3-113.1z M138.7-113.1h-4.8c-0.1,0-0.2-0.2-0.2-0.4s0.1-0.4,0.2-0.4h4.8c0.1,0,0.2,0.2,0.2,0.4
							S138.8-113.1,138.7-113.1z M129.2-113.1h-4.8c-0.1,0-0.2-0.2-0.2-0.4s0.1-0.4,0.2-0.4h4.8c0.1,0,0.2,0.2,0.2,0.4
							S129.3-113.1,129.2-113.1z M119.6-113.1h-4.8c-0.1,0-0.2-0.2-0.2-0.4s0.1-0.4,0.2-0.4h4.8c0.1,0,0.2,0.2,0.2,0.4
							S119.7-113.1,119.6-113.1z M110-113.1h-4.8c-0.1,0-0.2-0.2-0.2-0.4s0.1-0.4,0.2-0.4h4.8c0.1,0,0.2,0.2,0.2,0.4
							S110.2-113.1,110-113.1z M100.5-113.1h-4.8c-0.1,0-0.2-0.2-0.2-0.4s0.1-0.4,0.2-0.4h4.8c0.1,0,0.2,0.2,0.2,0.4
							S100.6-113.1,100.5-113.1z"/>
						<path class="st7" d="M442.4-113.1H440c-0.1,0-0.2-0.2-0.2-0.4s0.1-0.4,0.2-0.4h2.4c0.1,0,0.2,0.2,0.2,0.4
							S442.5-113.1,442.4-113.1z"/>
					</g>
				</g>
				<g>
					<g>
						<path class="st7" d="M71.8-79h-2.4c-0.1,0-0.2-0.2-0.2-0.4s0.1-0.4,0.2-0.4h2.4c0.1,0,0.2,0.2,0.2,0.4S71.9-79,71.8-79z"/>
						<path class="st7" d="M90.9-79h-4.8c-0.1,0-0.2-0.2-0.2-0.4s0.1-0.4,0.2-0.4h4.8c0.1,0,0.2,0.2,0.2,0.4S91-79,90.9-79z
							 M81.3-79h-4.7c-0.1,0-0.2-0.2-0.2-0.4s0.1-0.4,0.2-0.4h4.8c0.1,0,0.2,0.2,0.2,0.4S81.5-79,81.3-79z"/>
						<path class="st7" d="M435.1-79h-4.8c-0.1,0-0.2-0.2-0.2-0.4s0.1-0.4,0.2-0.4h4.8c0.1,0,0.2,0.2,0.2,0.4S435.3-79,435.1-79z
							 M425.6-79h-4.8c-0.1,0-0.2-0.2-0.2-0.4s0.1-0.4,0.2-0.4h4.8c0.1,0,0.2,0.2,0.2,0.4S425.7-79,425.6-79z M416-79h-4.8
							c-0.1,0-0.2-0.2-0.2-0.4s0.1-0.4,0.2-0.4h4.8c0.1,0,0.2,0.2,0.2,0.4S416.2-79,416-79z M406.5-79h-4.8c-0.1,0-0.2-0.2-0.2-0.4
							s0.1-0.4,0.2-0.4h4.8c0.1,0,0.2,0.2,0.2,0.4S406.6-79,406.5-79z M396.9-79h-4.8c-0.1,0-0.2-0.2-0.2-0.4s0.1-0.4,0.2-0.4h4.8
							c0.1,0,0.2,0.2,0.2,0.4S397-79,396.9-79z M387.3-79h-4.7c-0.1,0-0.2-0.2-0.2-0.4s0.1-0.4,0.2-0.4h4.8c0.1,0,0.2,0.2,0.2,0.4
							S387.5-79,387.3-79z M377.8-79H373c-0.1,0-0.2-0.2-0.2-0.4s0.1-0.4,0.2-0.4h4.8c0.1,0,0.2,0.2,0.2,0.4S377.9-79,377.8-79z
							 M368.2-79h-4.8c-0.1,0-0.2-0.2-0.2-0.4s0.1-0.4,0.2-0.4h4.8c0.1,0,0.2,0.2,0.2,0.4S368.3-79,368.2-79z M358.7-79h-4.8
							c-0.1,0-0.2-0.2-0.2-0.4s0.1-0.4,0.2-0.4h4.8c0.1,0,0.2,0.2,0.2,0.4S358.8-79,358.7-79z M349.1-79h-4.8
							c-0.1,0-0.2-0.2-0.2-0.4s0.1-0.4,0.2-0.4h4.8c0.1,0,0.2,0.2,0.2,0.4S349.2-79,349.1-79z M339.5-79h-4.8
							c-0.1,0-0.2-0.2-0.2-0.4s0.1-0.4,0.2-0.4h4.8c0.1,0,0.2,0.2,0.2,0.4S339.7-79,339.5-79z M330-79h-4.8c-0.1,0-0.2-0.2-0.2-0.4
							s0.1-0.4,0.2-0.4h4.8c0.1,0,0.2,0.2,0.2,0.4S330.1-79,330-79z M320.4-79h-4.8c-0.1,0-0.2-0.2-0.2-0.4s0.1-0.4,0.2-0.4h4.8
							c0.1,0,0.2,0.2,0.2,0.4S320.5-79,320.4-79z M310.8-79H306c-0.1,0-0.2-0.2-0.2-0.4s0.1-0.4,0.2-0.4h4.8c0.1,0,0.2,0.2,0.2,0.4
							S311-79,310.8-79z M301.3-79h-4.8c-0.1,0-0.2-0.2-0.2-0.4s0.1-0.4,0.2-0.4h4.8c0.1,0,0.2,0.2,0.2,0.4S301.4-79,301.3-79z
							 M291.7-79h-4.8c-0.1,0-0.2-0.2-0.2-0.4s0.1-0.4,0.2-0.4h4.8c0.1,0,0.2,0.2,0.2,0.4S291.8-79,291.7-79z M282.2-79h-4.8
							c-0.1,0-0.2-0.2-0.2-0.4s0.1-0.4,0.2-0.4h4.8c0.1,0,0.2,0.2,0.2,0.4S282.3-79,282.2-79z M272.6-79h-4.8
							c-0.1,0-0.2-0.2-0.2-0.4s0.1-0.4,0.2-0.4h4.8c0.1,0,0.2,0.2,0.2,0.4S272.7-79,272.6-79z M263-79h-4.8c-0.1,0-0.2-0.2-0.2-0.4
							s0.1-0.4,0.2-0.4h4.8c0.1,0,0.2,0.2,0.2,0.4S263.2-79,263-79z M253.5-79h-4.8c-0.1,0-0.2-0.2-0.2-0.4s0.1-0.4,0.2-0.4h4.8
							c0.1,0,0.2,0.2,0.2,0.4S253.6-79,253.5-79z M243.9-79h-4.8c-0.1,0-0.2-0.2-0.2-0.4s0.1-0.4,0.2-0.4h4.8c0.1,0,0.2,0.2,0.2,0.4
							S244-79,243.9-79z M234.3-79h-4.7c-0.1,0-0.2-0.2-0.2-0.4s0.1-0.4,0.2-0.4h4.8c0.1,0,0.2,0.2,0.2,0.4S234.5-79,234.3-79z
							 M224.8-79H220c-0.1,0-0.2-0.2-0.2-0.4s0.1-0.4,0.2-0.4h4.8c0.1,0,0.2,0.2,0.2,0.4S224.9-79,224.8-79z M215.2-79h-4.8
							c-0.1,0-0.2-0.2-0.2-0.4s0.1-0.4,0.2-0.4h4.8c0.1,0,0.2,0.2,0.2,0.4S215.3-79,215.2-79z M205.7-79h-4.8
							c-0.1,0-0.2-0.2-0.2-0.4s0.1-0.4,0.2-0.4h4.8c0.1,0,0.2,0.2,0.2,0.4S205.8-79,205.7-79z M196.1-79h-4.8
							c-0.1,0-0.2-0.2-0.2-0.4s0.1-0.4,0.2-0.4h4.8c0.1,0,0.2,0.2,0.2,0.4S196.2-79,196.1-79z M186.5-79h-4.8
							c-0.1,0-0.2-0.2-0.2-0.4s0.1-0.4,0.2-0.4h4.8c0.1,0,0.2,0.2,0.2,0.4S186.7-79,186.5-79z M177-79h-4.8c-0.1,0-0.2-0.2-0.2-0.4
							s0.1-0.4,0.2-0.4h4.8c0.1,0,0.2,0.2,0.2,0.4S177.1-79,177-79z M167.4-79h-4.8c-0.1,0-0.2-0.2-0.2-0.4s0.1-0.4,0.2-0.4h4.8
							c0.1,0,0.2,0.2,0.2,0.4S167.5-79,167.4-79z M157.8-79H153c-0.1,0-0.2-0.2-0.2-0.4s0.1-0.4,0.2-0.4h4.8c0.1,0,0.2,0.2,0.2,0.4
							S158-79,157.8-79z M148.3-79h-4.8c-0.1,0-0.2-0.2-0.2-0.4s0.1-0.4,0.2-0.4h4.8c0.1,0,0.2,0.2,0.2,0.4S148.4-79,148.3-79z
							 M138.7-79h-4.8c-0.1,0-0.2-0.2-0.2-0.4s0.1-0.4,0.2-0.4h4.8c0.1,0,0.2,0.2,0.2,0.4S138.8-79,138.7-79z M129.2-79h-4.8
							c-0.1,0-0.2-0.2-0.2-0.4s0.1-0.4,0.2-0.4h4.8c0.1,0,0.2,0.2,0.2,0.4S129.3-79,129.2-79z M119.6-79h-4.8
							c-0.1,0-0.2-0.2-0.2-0.4s0.1-0.4,0.2-0.4h4.8c0.1,0,0.2,0.2,0.2,0.4S119.7-79,119.6-79z M110-79h-4.8c-0.1,0-0.2-0.2-0.2-0.4
							s0.1-0.4,0.2-0.4h4.8c0.1,0,0.2,0.2,0.2,0.4S110.2-79,110-79z M100.5-79h-4.8c-0.1,0-0.2-0.2-0.2-0.4s0.1-0.4,0.2-0.4h4.8
							c0.1,0,0.2,0.2,0.2,0.4S100.6-79,100.5-79z"/>
						<path class="st7" d="M442.4-79H440c-0.1,0-0.2-0.2-0.2-0.4s0.1-0.4,0.2-0.4h2.4c0.1,0,0.2,0.2,0.2,0.4S442.5-79,442.4-79z"/>
					</g>
				</g>
				<g>
					<g>
						<path class="st7" d="M71.8-44.9h-2.4c-0.1,0-0.2-0.2-0.2-0.4s0.1-0.4,0.2-0.4h2.4c0.1,0,0.2,0.2,0.2,0.4S71.9-44.9,71.8-44.9z
							"/>
						<path class="st7" d="M90.9-44.9h-4.8c-0.1,0-0.2-0.2-0.2-0.4s0.1-0.4,0.2-0.4h4.8c0.1,0,0.2,0.2,0.2,0.4S91-44.9,90.9-44.9z
							 M81.3-44.9h-4.7c-0.1,0-0.2-0.2-0.2-0.4s0.1-0.4,0.2-0.4h4.8c0.1,0,0.2,0.2,0.2,0.4S81.5-44.9,81.3-44.9z"/>
						<path class="st7" d="M435.1-44.9h-4.8c-0.1,0-0.2-0.2-0.2-0.4s0.1-0.4,0.2-0.4h4.8c0.1,0,0.2,0.2,0.2,0.4
							S435.3-44.9,435.1-44.9z M425.6-44.9h-4.8c-0.1,0-0.2-0.2-0.2-0.4s0.1-0.4,0.2-0.4h4.8c0.1,0,0.2,0.2,0.2,0.4
							S425.7-44.9,425.6-44.9z M416-44.9h-4.8c-0.1,0-0.2-0.2-0.2-0.4s0.1-0.4,0.2-0.4h4.8c0.1,0,0.2,0.2,0.2,0.4
							S416.2-44.9,416-44.9z M406.5-44.9h-4.8c-0.1,0-0.2-0.2-0.2-0.4s0.1-0.4,0.2-0.4h4.8c0.1,0,0.2,0.2,0.2,0.4
							S406.6-44.9,406.5-44.9z M396.9-44.9h-4.8c-0.1,0-0.2-0.2-0.2-0.4s0.1-0.4,0.2-0.4h4.8c0.1,0,0.2,0.2,0.2,0.4
							S397-44.9,396.9-44.9z M387.3-44.9h-4.7c-0.1,0-0.2-0.2-0.2-0.4s0.1-0.4,0.2-0.4h4.8c0.1,0,0.2,0.2,0.2,0.4
							S387.5-44.9,387.3-44.9z M377.8-44.9H373c-0.1,0-0.2-0.2-0.2-0.4s0.1-0.4,0.2-0.4h4.8c0.1,0,0.2,0.2,0.2,0.4
							S377.9-44.9,377.8-44.9z M368.2-44.9h-4.8c-0.1,0-0.2-0.2-0.2-0.4s0.1-0.4,0.2-0.4h4.8c0.1,0,0.2,0.2,0.2,0.4
							S368.3-44.9,368.2-44.9z M358.7-44.9h-4.8c-0.1,0-0.2-0.2-0.2-0.4s0.1-0.4,0.2-0.4h4.8c0.1,0,0.2,0.2,0.2,0.4
							S358.8-44.9,358.7-44.9z M349.1-44.9h-4.8c-0.1,0-0.2-0.2-0.2-0.4s0.1-0.4,0.2-0.4h4.8c0.1,0,0.2,0.2,0.2,0.4
							S349.2-44.9,349.1-44.9z M339.5-44.9h-4.8c-0.1,0-0.2-0.2-0.2-0.4s0.1-0.4,0.2-0.4h4.8c0.1,0,0.2,0.2,0.2,0.4
							S339.7-44.9,339.5-44.9z M330-44.9h-4.8c-0.1,0-0.2-0.2-0.2-0.4s0.1-0.4,0.2-0.4h4.8c0.1,0,0.2,0.2,0.2,0.4
							S330.1-44.9,330-44.9z M320.4-44.9h-4.8c-0.1,0-0.2-0.2-0.2-0.4s0.1-0.4,0.2-0.4h4.8c0.1,0,0.2,0.2,0.2,0.4
							S320.5-44.9,320.4-44.9z M310.8-44.9H306c-0.1,0-0.2-0.2-0.2-0.4s0.1-0.4,0.2-0.4h4.8c0.1,0,0.2,0.2,0.2,0.4
							S311-44.9,310.8-44.9z M301.3-44.9h-4.8c-0.1,0-0.2-0.2-0.2-0.4s0.1-0.4,0.2-0.4h4.8c0.1,0,0.2,0.2,0.2,0.4
							S301.4-44.9,301.3-44.9z M291.7-44.9h-4.8c-0.1,0-0.2-0.2-0.2-0.4s0.1-0.4,0.2-0.4h4.8c0.1,0,0.2,0.2,0.2,0.4
							S291.8-44.9,291.7-44.9z M282.2-44.9h-4.8c-0.1,0-0.2-0.2-0.2-0.4s0.1-0.4,0.2-0.4h4.8c0.1,0,0.2,0.2,0.2,0.4
							S282.3-44.9,282.2-44.9z M272.6-44.9h-4.8c-0.1,0-0.2-0.2-0.2-0.4s0.1-0.4,0.2-0.4h4.8c0.1,0,0.2,0.2,0.2,0.4
							S272.7-44.9,272.6-44.9z M263-44.9h-4.8c-0.1,0-0.2-0.2-0.2-0.4s0.1-0.4,0.2-0.4h4.8c0.1,0,0.2,0.2,0.2,0.4
							S263.2-44.9,263-44.9z M253.5-44.9h-4.8c-0.1,0-0.2-0.2-0.2-0.4s0.1-0.4,0.2-0.4h4.8c0.1,0,0.2,0.2,0.2,0.4
							S253.6-44.9,253.5-44.9z M243.9-44.9h-4.8c-0.1,0-0.2-0.2-0.2-0.4s0.1-0.4,0.2-0.4h4.8c0.1,0,0.2,0.2,0.2,0.4
							S244-44.9,243.9-44.9z M234.3-44.9h-4.7c-0.1,0-0.2-0.2-0.2-0.4s0.1-0.4,0.2-0.4h4.8c0.1,0,0.2,0.2,0.2,0.4
							S234.5-44.9,234.3-44.9z M224.8-44.9H220c-0.1,0-0.2-0.2-0.2-0.4s0.1-0.4,0.2-0.4h4.8c0.1,0,0.2,0.2,0.2,0.4
							S224.9-44.9,224.8-44.9z M215.2-44.9h-4.8c-0.1,0-0.2-0.2-0.2-0.4s0.1-0.4,0.2-0.4h4.8c0.1,0,0.2,0.2,0.2,0.4
							S215.3-44.9,215.2-44.9z M205.7-44.9h-4.8c-0.1,0-0.2-0.2-0.2-0.4s0.1-0.4,0.2-0.4h4.8c0.1,0,0.2,0.2,0.2,0.4
							S205.8-44.9,205.7-44.9z M196.1-44.9h-4.8c-0.1,0-0.2-0.2-0.2-0.4s0.1-0.4,0.2-0.4h4.8c0.1,0,0.2,0.2,0.2,0.4
							S196.2-44.9,196.1-44.9z M186.5-44.9h-4.8c-0.1,0-0.2-0.2-0.2-0.4s0.1-0.4,0.2-0.4h4.8c0.1,0,0.2,0.2,0.2,0.4
							S186.7-44.9,186.5-44.9z M177-44.9h-4.8c-0.1,0-0.2-0.2-0.2-0.4s0.1-0.4,0.2-0.4h4.8c0.1,0,0.2,0.2,0.2,0.4
							S177.1-44.9,177-44.9z M167.4-44.9h-4.8c-0.1,0-0.2-0.2-0.2-0.4s0.1-0.4,0.2-0.4h4.8c0.1,0,0.2,0.2,0.2,0.4
							S167.5-44.9,167.4-44.9z M157.8-44.9H153c-0.1,0-0.2-0.2-0.2-0.4s0.1-0.4,0.2-0.4h4.8c0.1,0,0.2,0.2,0.2,0.4
							S158-44.9,157.8-44.9z M148.3-44.9h-4.8c-0.1,0-0.2-0.2-0.2-0.4s0.1-0.4,0.2-0.4h4.8c0.1,0,0.2,0.2,0.2,0.4
							S148.4-44.9,148.3-44.9z M138.7-44.9h-4.8c-0.1,0-0.2-0.2-0.2-0.4s0.1-0.4,0.2-0.4h4.8c0.1,0,0.2,0.2,0.2,0.4
							S138.8-44.9,138.7-44.9z M129.2-44.9h-4.8c-0.1,0-0.2-0.2-0.2-0.4s0.1-0.4,0.2-0.4h4.8c0.1,0,0.2,0.2,0.2,0.4
							S129.3-44.9,129.2-44.9z M119.6-44.9h-4.8c-0.1,0-0.2-0.2-0.2-0.4s0.1-0.4,0.2-0.4h4.8c0.1,0,0.2,0.2,0.2,0.4
							S119.7-44.9,119.6-44.9z M110-44.9h-4.8c-0.1,0-0.2-0.2-0.2-0.4s0.1-0.4,0.2-0.4h4.8c0.1,0,0.2,0.2,0.2,0.4
							S110.2-44.9,110-44.9z M100.5-44.9h-4.8c-0.1,0-0.2-0.2-0.2-0.4s0.1-0.4,0.2-0.4h4.8c0.1,0,0.2,0.2,0.2,0.4
							S100.6-44.9,100.5-44.9z"/>
						<path class="st7" d="M442.4-44.9H440c-0.1,0-0.2-0.2-0.2-0.4s0.1-0.4,0.2-0.4h2.4c0.1,0,0.2,0.2,0.2,0.4
							S442.5-44.9,442.4-44.9z"/>
					</g>
				</g>
			</g>
			<path class="st7" d="M101.9-44.9c-0.1,0-0.2-0.2-0.2-0.4v-7.3c0-0.2,0.1-0.4,0.2-0.4c0.1,0,0.2,0.2,0.2,0.4v7.3
				C102.1-45.1,102-44.9,101.9-44.9z M101.9-59.5c-0.1,0-0.2-0.2-0.2-0.4v-7.3c0-0.2,0.1-0.4,0.2-0.4c0.1,0,0.2,0.2,0.2,0.4v7.3
				C102.1-59.6,102-59.5,101.9-59.5z M101.9-74c-0.1,0-0.2-0.2-0.2-0.4v-7.3c0-0.2,0.1-0.4,0.2-0.4c0.1,0,0.2,0.2,0.2,0.4v7.3
				C102.1-74.1,102-74,101.9-74z M101.9-88.5c-0.1,0-0.2-0.2-0.2-0.4v-7.3c0-0.2,0.1-0.4,0.2-0.4c0.1,0,0.2,0.2,0.2,0.4v7.3
				C102.1-88.6,102-88.5,101.9-88.5z M101.9-103c-0.1,0-0.2-0.2-0.2-0.4v-7.3c0-0.2,0.1-0.4,0.2-0.4c0.1,0,0.2,0.2,0.2,0.4v7.3
				C102.1-103.2,102-103,101.9-103z M101.9-117.5c-0.1,0-0.2-0.2-0.2-0.4v-7.3c0-0.2,0.1-0.4,0.2-0.4c0.1,0,0.2,0.2,0.2,0.4v7.3
				C102.1-117.7,102-117.5,101.9-117.5z M101.9-132c-0.1,0-0.2-0.2-0.2-0.4v-7.3c0-0.2,0.1-0.4,0.2-0.4c0.1,0,0.2,0.2,0.2,0.4v7.3
				C102.1-132.2,102-132,101.9-132z M101.9-146.5c-0.1,0-0.2-0.2-0.2-0.4v-7.3c-0.1-0.2,0.1-0.3,0.2-0.3c0.1,0,0.2,0.2,0.2,0.4v7.3
				C102.1-146.7,102-146.5,101.9-146.5z M101.9-161c-0.1,0-0.2-0.2-0.2-0.4v-7.3c0-0.2,0.1-0.4,0.2-0.4c0.1,0,0.2,0.2,0.2,0.4v7.3
				C102.1-161.2,102-161,101.9-161z M101.9-175.6c-0.1,0-0.2-0.2-0.2-0.4v-7.3c-0.1-0.1,0.1-0.2,0.2-0.2c0.1,0,0.2,0.2,0.2,0.4v7.3
				C102.1-175.7,102-175.6,101.9-175.6z M101.9-190.1c-0.1,0-0.2-0.2-0.2-0.4v-7.3c0-0.2,0.1-0.4,0.2-0.4c0.1,0,0.2,0.2,0.2,0.4v7.3
				C102.1-190.2,102-190.1,101.9-190.1z M101.9-204.6c-0.1,0-0.2-0.2-0.2-0.4v-7.3c0-0.2,0.1-0.4,0.2-0.4c0.1,0,0.2,0.2,0.2,0.4v7.3
				C102.1-204.7,102-204.6,101.9-204.6z M101.9-219.1c-0.1,0-0.3-0.2-0.3-0.4v-7.3c0-0.2,0.1-0.4,0.2-0.4c0.1,0,0.2,0.2,0.2,0.4v7.3
				C102.1-219.3,102-219.1,101.9-219.1z M101.9-233.6c-0.1,0-0.2-0.2-0.2-0.4v-7.2c0-0.2,0.1-0.4,0.2-0.4c0.1,0,0.2,0.2,0.2,0.4v7.3
				C102.1-233.8,102-233.6,101.9-233.6z M101.9-248.1c-0.1,0-0.3-0.2-0.3-0.4v-1.3c0-0.2,0.1-0.4,0.2-0.4c0.1,0,0.2,0.2,0.2,0.4v1.3
				C102.1-248.3,102-248.1,101.9-248.1z"/>
			<path class="st7" d="M135.9-44.9c-0.1,0-0.2-0.2-0.2-0.4v-7.3c0-0.2,0.1-0.4,0.2-0.4c0.1,0,0.2,0.2,0.2,0.4v7.3
				C136.2-45.1,136.1-44.9,135.9-44.9z M135.9-59.5c-0.1,0-0.2-0.2-0.2-0.4v-7.3c0-0.2,0.1-0.4,0.2-0.4c0.1,0,0.2,0.2,0.2,0.4v7.3
				C136.2-59.6,136.1-59.5,135.9-59.5z M135.9-74c-0.1,0-0.2-0.2-0.2-0.4v-7.3c0-0.2,0.1-0.4,0.2-0.4c0.1,0,0.2,0.2,0.2,0.4v7.3
				C136.2-74.1,136.1-74,135.9-74z M135.9-88.5c-0.1,0-0.2-0.2-0.2-0.4v-7.3c0-0.2,0.1-0.4,0.2-0.4c0.1,0,0.2,0.2,0.2,0.4v7.3
				C136.2-88.6,136.1-88.5,135.9-88.5z M135.9-103c-0.1,0-0.2-0.2-0.2-0.4v-7.3c0-0.2,0.1-0.4,0.2-0.4c0.1,0,0.2,0.2,0.2,0.4v7.3
				C136.2-103.2,136.1-103,135.9-103z M135.9-117.5c-0.1,0-0.2-0.2-0.2-0.4v-7.3c0-0.2,0.1-0.4,0.2-0.4c0.1,0,0.2,0.2,0.2,0.4v7.3
				C136.2-117.7,136.1-117.5,135.9-117.5z M135.9-132c-0.1,0-0.2-0.2-0.2-0.4v-7.3c0-0.2,0.1-0.4,0.2-0.4c0.1,0,0.2,0.2,0.2,0.4v7.3
				C136.2-132.2,136.1-132,135.9-132z M135.9-146.5c-0.1,0-0.2-0.2-0.2-0.4v-7.3c0-0.2,0.1-0.4,0.2-0.4c0.1,0,0.2,0.2,0.2,0.4v7.3
				C136.2-146.7,136.1-146.5,135.9-146.5z M135.9-161c-0.1,0-0.2-0.2-0.2-0.4v-7.3c0-0.2,0.1-0.4,0.2-0.4c0.1,0,0.2,0.2,0.2,0.4v7.3
				C136.2-161.2,136.1-161,135.9-161z M135.9-175.6c-0.1,0-0.2-0.2-0.2-0.4v-7.3c0-0.2,0.1-0.4,0.2-0.4c0.1,0,0.2,0.2,0.2,0.4v7.3
				C136.2-175.7,136.1-175.6,135.9-175.6z M135.9-190.1c-0.1,0-0.2-0.2-0.2-0.4v-7.3c0-0.2,0.1-0.4,0.2-0.4c0.1,0,0.2,0.2,0.2,0.4
				v7.3C136.2-190.2,136.1-190.1,135.9-190.1z M135.9-204.6c-0.1,0-0.2-0.2-0.2-0.4v-7.3c0-0.2,0.1-0.4,0.2-0.4
				c0.1,0,0.2,0.2,0.2,0.4v7.3C136.2-204.7,136.1-204.6,135.9-204.6z M135.9-219.1c-0.1,0-0.2-0.2-0.2-0.4v-7.3
				c0-0.2,0.1-0.4,0.2-0.4c0.1,0,0.2,0.2,0.2,0.4v7.3C136.2-219.3,136.1-219.1,135.9-219.1z M135.9-233.6c-0.1,0-0.2-0.2-0.2-0.4
				v-7.2c0-0.2,0.1-0.4,0.2-0.4c0.1,0,0.2,0.2,0.2,0.4v7.3C136.2-233.8,136.1-233.6,135.9-233.6z M135.9-248.1
				c-0.1,0-0.2-0.2-0.2-0.4v-1.3c0-0.2,0.1-0.4,0.2-0.4c0.1,0,0.2,0.2,0.2,0.4v1.3C136.2-248.3,136.1-248.1,135.9-248.1z"/>
			<path class="st7" d="M170-44.9c-0.1,0-0.2-0.2-0.2-0.4v-7.3c0-0.2,0.1-0.4,0.2-0.4c0.1,0,0.2,0.2,0.2,0.4v7.3
				C170.2-45.1,170.1-44.9,170-44.9z M170-59.5c-0.1,0-0.2-0.2-0.2-0.4v-7.3c0-0.2,0.1-0.4,0.2-0.4c0.1,0,0.2,0.2,0.2,0.4v7.3
				C170.2-59.6,170.1-59.5,170-59.5z M170-74c-0.1,0-0.2-0.2-0.2-0.4v-7.3c0-0.2,0.1-0.4,0.2-0.4c0.1,0,0.2,0.2,0.2,0.4v7.3
				C170.2-74.1,170.1-74,170-74z M170-88.5c-0.1,0-0.2-0.2-0.2-0.4v-7.3c0-0.2,0.1-0.4,0.2-0.4c0.1,0,0.2,0.2,0.2,0.4v7.3
				C170.2-88.6,170.1-88.5,170-88.5z M170-103c-0.1,0-0.2-0.2-0.2-0.4v-7.3c0-0.2,0.1-0.4,0.2-0.4c0.1,0,0.2,0.2,0.2,0.4v7.3
				C170.2-103.2,170.1-103,170-103z M170-117.5c-0.1,0-0.2-0.2-0.2-0.4v-7.3c0-0.2,0.1-0.4,0.2-0.4c0.1,0,0.2,0.2,0.2,0.4v7.3
				C170.2-117.7,170.1-117.5,170-117.5z M170-132c-0.1,0-0.2-0.2-0.2-0.4v-7.3c0-0.2,0.1-0.4,0.2-0.4c0.1,0,0.2,0.2,0.2,0.4v7.3
				C170.2-132.2,170.1-132,170-132z M170-146.5c-0.1,0-0.2-0.2-0.2-0.4v-7.3c0-0.2,0.1-0.4,0.2-0.4c0.1,0,0.2,0.2,0.2,0.4v7.3
				C170.2-146.7,170.1-146.5,170-146.5z M170-161c-0.1,0-0.2-0.2-0.2-0.4v-7.3c0-0.2,0.1-0.4,0.2-0.4c0.1,0,0.2,0.2,0.2,0.4v7.3
				C170.2-161.2,170.1-161,170-161z M170-175.6c-0.1,0-0.2-0.2-0.2-0.4v-7.3c0-0.2,0.1-0.4,0.2-0.4c0.1,0,0.2,0.2,0.2,0.4v7.3
				C170.2-175.7,170.1-175.6,170-175.6z M170-190.1c-0.1,0-0.2-0.2-0.2-0.4v-7.3c0-0.2,0.1-0.4,0.2-0.4c0.1,0,0.2,0.2,0.2,0.4v7.3
				C170.2-190.2,170.1-190.1,170-190.1z M170-204.6c-0.1,0-0.2-0.2-0.2-0.4v-7.3c0-0.2,0.1-0.4,0.2-0.4c0.1,0,0.2,0.2,0.2,0.4v7.3
				C170.2-204.7,170.1-204.6,170-204.6z M170-219.1c-0.1,0-0.2-0.2-0.2-0.4v-7.3c0-0.2,0.1-0.4,0.2-0.4c0.1,0,0.2,0.2,0.2,0.4v7.3
				C170.2-219.3,170.1-219.1,170-219.1z M170-233.6c-0.1,0-0.2-0.2-0.2-0.4v-7.2c0-0.2,0.1-0.4,0.2-0.4c0.1,0,0.2,0.2,0.2,0.4v7.3
				C170.2-233.8,170.1-233.6,170-233.6z M170-248.1c-0.1,0-0.2-0.2-0.2-0.4v-1.3c0-0.2,0.1-0.4,0.2-0.4c0.1,0,0.2,0.2,0.2,0.4v1.3
				C170.2-248.3,170.1-248.1,170-248.1z"/>
			<path class="st7" d="M204-44.9c-0.1,0-0.2-0.2-0.2-0.4v-7.3c0-0.2,0.1-0.4,0.2-0.4c0.1,0,0.2,0.2,0.2,0.4v7.3
				C204.3-45.1,204.2-44.9,204-44.9z M204-59.5c-0.1,0-0.2-0.2-0.2-0.4v-7.3c0-0.2,0.1-0.4,0.2-0.4c0.1,0,0.2,0.2,0.2,0.4v7.3
				C204.3-59.6,204.2-59.5,204-59.5z M204-74c-0.1,0-0.2-0.2-0.2-0.4v-7.3c0-0.2,0.1-0.4,0.2-0.4c0.1,0,0.2,0.2,0.2,0.4v7.3
				C204.3-74.1,204.2-74,204-74z M204-88.5c-0.1,0-0.2-0.2-0.2-0.4v-7.3c0-0.2,0.1-0.4,0.2-0.4c0.1,0,0.2,0.2,0.2,0.4v7.3
				C204.3-88.6,204.2-88.5,204-88.5z M204-103c-0.1,0-0.2-0.2-0.2-0.4v-7.3c0-0.2,0.1-0.4,0.2-0.4c0.1,0,0.2,0.2,0.2,0.4v7.3
				C204.3-103.2,204.2-103,204-103z M204-117.5c-0.1,0-0.2-0.2-0.2-0.4v-7.3c0-0.2,0.1-0.4,0.2-0.4c0.1,0,0.2,0.2,0.2,0.4v7.3
				C204.3-117.7,204.2-117.5,204-117.5z M204-132c-0.1,0-0.2-0.2-0.2-0.4v-7.3c0-0.2,0.1-0.4,0.2-0.4c0.1,0,0.2,0.2,0.2,0.4v7.3
				C204.3-132.2,204.2-132,204-132z M204-146.5c-0.1,0-0.2-0.2-0.2-0.4v-7.3c0-0.2,0.1-0.4,0.2-0.4c0.1,0,0.2,0.2,0.2,0.4v7.3
				C204.3-146.7,204.2-146.5,204-146.5z M204-161c-0.1,0-0.2-0.2-0.2-0.4v-7.3c0-0.2,0.1-0.4,0.2-0.4c0.1,0,0.2,0.2,0.2,0.4v7.3
				C204.3-161.2,204.2-161,204-161z M204-175.6c-0.1,0-0.2-0.2-0.2-0.4v-7.3c0-0.2,0.1-0.4,0.2-0.4c0.1,0,0.2,0.2,0.2,0.4v7.3
				C204.3-175.7,204.2-175.6,204-175.6z M204-190.1c-0.1,0-0.2-0.2-0.2-0.4v-7.3c0-0.2,0.1-0.4,0.2-0.4c0.1,0,0.2,0.2,0.2,0.4v7.3
				C204.3-190.2,204.2-190.1,204-190.1z M204-204.6c-0.1,0-0.2-0.2-0.2-0.4v-7.3c0-0.2,0.1-0.4,0.2-0.4c0.1,0,0.2,0.2,0.2,0.4v7.3
				C204.3-204.7,204.2-204.6,204-204.6z M204-219.1c-0.1,0-0.2-0.2-0.2-0.4v-7.3c0-0.2,0.1-0.4,0.2-0.4c0.1,0,0.2,0.2,0.2,0.4v7.3
				C204.3-219.3,204.2-219.1,204-219.1z M204-233.6c-0.1,0-0.2-0.2-0.2-0.4v-7.2c0-0.2,0.1-0.4,0.2-0.4c0.1,0,0.2,0.2,0.2,0.4v7.3
				C204.3-233.8,204.2-233.6,204-233.6z M204-248.1c-0.1,0-0.2-0.2-0.2-0.4v-1.3c0-0.2,0.1-0.4,0.2-0.4c0.1,0,0.2,0.2,0.2,0.4v1.3
				C204.3-248.3,204.2-248.1,204-248.1z"/>
			<path class="st7" d="M238.1-44.9c-0.1,0-0.2-0.2-0.2-0.4v-7.3c0-0.2,0.1-0.4,0.2-0.4c0.1,0,0.2,0.2,0.2,0.4v7.3
				C238.3-45.1,238.2-44.9,238.1-44.9z M238.1-59.5c-0.1,0-0.2-0.2-0.2-0.4v-7.3c0-0.2,0.1-0.4,0.2-0.4c0.1,0,0.2,0.2,0.2,0.4v7.3
				C238.3-59.6,238.2-59.5,238.1-59.5z M238.1-74c-0.1,0-0.2-0.2-0.2-0.4v-7.3c0-0.2,0.1-0.4,0.2-0.4c0.1,0,0.2,0.2,0.2,0.4v7.3
				C238.3-74.1,238.2-74,238.1-74z M238.1-88.5c-0.1,0-0.2-0.2-0.2-0.4v-7.3c0-0.2,0.1-0.4,0.2-0.4c0.1,0,0.2,0.2,0.2,0.4v7.3
				C238.3-88.6,238.2-88.5,238.1-88.5z M238.1-103c-0.1,0-0.2-0.2-0.2-0.4v-7.3c0-0.2,0.1-0.4,0.2-0.4c0.1,0,0.2,0.2,0.2,0.4v7.3
				C238.3-103.2,238.2-103,238.1-103z M238.1-117.5c-0.1,0-0.2-0.2-0.2-0.4v-7.3c0-0.2,0.1-0.4,0.2-0.4c0.1,0,0.2,0.2,0.2,0.4v7.3
				C238.3-117.7,238.2-117.5,238.1-117.5z M238.1-132c-0.1,0-0.2-0.2-0.2-0.4v-7.3c0-0.2,0.1-0.4,0.2-0.4c0.1,0,0.2,0.2,0.2,0.4v7.3
				C238.3-132.2,238.2-132,238.1-132z M238.1-146.5c-0.1,0-0.2-0.2-0.2-0.4v-7.3c0-0.2,0.1-0.4,0.2-0.4c0.1,0,0.2,0.2,0.2,0.4v7.3
				C238.3-146.7,238.2-146.5,238.1-146.5z M238.1-161c-0.1,0-0.2-0.2-0.2-0.4v-7.3c0-0.2,0.1-0.4,0.2-0.4c0.1,0,0.2,0.2,0.2,0.4v7.3
				C238.3-161.2,238.2-161,238.1-161z M238.1-175.6c-0.1,0-0.2-0.2-0.2-0.4v-7.3c0-0.2,0.1-0.4,0.2-0.4c0.1,0,0.2,0.2,0.2,0.4v7.3
				C238.3-175.7,238.2-175.6,238.1-175.6z M238.1-190.1c-0.1,0-0.2-0.2-0.2-0.4v-7.3c0-0.2,0.1-0.4,0.2-0.4c0.1,0,0.2,0.2,0.2,0.4
				v7.3C238.3-190.2,238.2-190.1,238.1-190.1z M238.1-204.6c-0.1,0-0.2-0.2-0.2-0.4v-7.3c0-0.2,0.1-0.4,0.2-0.4
				c0.1,0,0.2,0.2,0.2,0.4v7.3C238.3-204.7,238.2-204.6,238.1-204.6z M238.1-219.1c-0.1,0-0.2-0.2-0.2-0.4v-7.3
				c0-0.2,0.1-0.4,0.2-0.4c0.1,0,0.2,0.2,0.2,0.4v7.3C238.3-219.3,238.2-219.1,238.1-219.1z M238.1-233.6c-0.1,0-0.2-0.2-0.2-0.4
				v-7.2c0-0.2,0.1-0.4,0.2-0.4c0.1,0,0.2,0.2,0.2,0.4v7.3C238.3-233.8,238.2-233.6,238.1-233.6z M238.1-248.1
				c-0.1,0-0.2-0.2-0.2-0.4v-1.3c0-0.2,0.1-0.4,0.2-0.4c0.1,0,0.2,0.2,0.2,0.4v1.3C238.3-248.3,238.2-248.1,238.1-248.1z"/>
			<path class="st7" d="M272.1-44.9c-0.1,0-0.2-0.2-0.2-0.4v-7.3c0-0.2,0.1-0.4,0.2-0.4s0.2,0.2,0.2,0.4v7.3
				C272.4-45.1,272.3-44.9,272.1-44.9z M272.1-59.5c-0.1,0-0.2-0.2-0.2-0.4v-7.3c0-0.2,0.1-0.4,0.2-0.4s0.2,0.2,0.2,0.4v7.3
				C272.4-59.6,272.3-59.5,272.1-59.5z M272.1-74c-0.1,0-0.2-0.2-0.2-0.4v-7.3c0-0.2,0.1-0.4,0.2-0.4s0.2,0.2,0.2,0.4v7.3
				C272.4-74.1,272.3-74,272.1-74z M272.1-88.5c-0.1,0-0.2-0.2-0.2-0.4v-7.3c0-0.2,0.1-0.4,0.2-0.4s0.2,0.2,0.2,0.4v7.3
				C272.4-88.6,272.3-88.5,272.1-88.5z M272.1-103c-0.1,0-0.2-0.2-0.2-0.4v-7.3c0-0.2,0.1-0.4,0.2-0.4s0.2,0.2,0.2,0.4v7.3
				C272.4-103.2,272.3-103,272.1-103z M272.1-117.5c-0.1,0-0.2-0.2-0.2-0.4v-7.3c0-0.2,0.1-0.4,0.2-0.4s0.2,0.2,0.2,0.4v7.3
				C272.4-117.7,272.3-117.5,272.1-117.5z M272.1-132c-0.1,0-0.2-0.2-0.2-0.4v-7.3c0-0.2,0.1-0.4,0.2-0.4s0.2,0.2,0.2,0.4v7.3
				C272.4-132.2,272.3-132,272.1-132z M272.1-146.5c-0.1,0-0.2-0.2-0.2-0.4v-7.3c0-0.2,0.1-0.4,0.2-0.4s0.2,0.2,0.2,0.4v7.3
				C272.4-146.7,272.3-146.5,272.1-146.5z M272.1-161c-0.1,0-0.2-0.2-0.2-0.4v-7.3c0-0.2,0.1-0.4,0.2-0.4s0.2,0.2,0.2,0.4v7.3
				C272.4-161.2,272.3-161,272.1-161z M272.1-175.6c-0.1,0-0.2-0.2-0.2-0.4v-7.3c0-0.2,0.1-0.4,0.2-0.4s0.2,0.2,0.2,0.4v7.3
				C272.4-175.7,272.3-175.6,272.1-175.6z M272.1-190.1c-0.1,0-0.2-0.2-0.2-0.4v-7.3c0-0.2,0.1-0.4,0.2-0.4s0.2,0.2,0.2,0.4v7.3
				C272.4-190.2,272.3-190.1,272.1-190.1z M272.1-204.6c-0.1,0-0.2-0.2-0.2-0.4v-7.3c0-0.2,0.1-0.4,0.2-0.4s0.2,0.2,0.2,0.4v7.3
				C272.4-204.7,272.3-204.6,272.1-204.6z M272.1-219.1c-0.1,0-0.2-0.2-0.2-0.4v-7.3c0-0.2,0.1-0.4,0.2-0.4s0.2,0.2,0.2,0.4v7.3
				C272.4-219.3,272.3-219.1,272.1-219.1z M272.1-233.6c-0.1,0-0.2-0.2-0.2-0.4v-7.2c0-0.2,0.1-0.4,0.2-0.4s0.2,0.2,0.2,0.4v7.3
				C272.4-233.8,272.3-233.6,272.1-233.6z M272.1-248.1c-0.1,0-0.2-0.2-0.2-0.4v-1.3c0-0.2,0.1-0.4,0.2-0.4s0.2,0.2,0.2,0.4v1.3
				C272.4-248.3,272.3-248.1,272.1-248.1z"/>
			<path class="st7" d="M306.2-44.9c-0.1,0-0.2-0.2-0.2-0.4v-7.3c0-0.2,0.1-0.4,0.2-0.4c0.1,0,0.2,0.2,0.2,0.4v7.3
				C306.4-45.1,306.3-44.9,306.2-44.9z M306.2-59.5c-0.1,0-0.2-0.2-0.2-0.4v-7.3c0-0.2,0.1-0.4,0.2-0.4c0.1,0,0.2,0.2,0.2,0.4v7.3
				C306.4-59.6,306.3-59.5,306.2-59.5z M306.2-74c-0.1,0-0.2-0.2-0.2-0.4v-7.3c0-0.2,0.1-0.4,0.2-0.4c0.1,0,0.2,0.2,0.2,0.4v7.3
				C306.4-74.1,306.3-74,306.2-74z M306.2-88.5c-0.1,0-0.2-0.2-0.2-0.4v-7.3c0-0.2,0.1-0.4,0.2-0.4c0.1,0,0.2,0.2,0.2,0.4v7.3
				C306.4-88.6,306.3-88.5,306.2-88.5z M306.2-103c-0.1,0-0.2-0.2-0.2-0.4v-7.3c0-0.2,0.1-0.4,0.2-0.4c0.1,0,0.2,0.2,0.2,0.4v7.3
				C306.4-103.2,306.3-103,306.2-103z M306.2-117.5c-0.1,0-0.2-0.2-0.2-0.4v-7.3c0-0.2,0.1-0.4,0.2-0.4c0.1,0,0.2,0.2,0.2,0.4v7.3
				C306.4-117.7,306.3-117.5,306.2-117.5z M306.2-132c-0.1,0-0.2-0.2-0.2-0.4v-7.3c0-0.2,0.1-0.4,0.2-0.4c0.1,0,0.2,0.2,0.2,0.4v7.3
				C306.4-132.2,306.3-132,306.2-132z M306.2-146.5c-0.1,0-0.2-0.2-0.2-0.4v-7.3c0-0.2,0.1-0.4,0.2-0.4c0.1,0,0.2,0.2,0.2,0.4v7.3
				C306.4-146.7,306.3-146.5,306.2-146.5z M306.2-161c-0.1,0-0.2-0.2-0.2-0.4v-7.3c0-0.2,0.1-0.4,0.2-0.4c0.1,0,0.2,0.2,0.2,0.4v7.3
				C306.4-161.2,306.3-161,306.2-161z M306.2-175.6c-0.1,0-0.2-0.2-0.2-0.4v-7.3c0-0.2,0.1-0.4,0.2-0.4c0.1,0,0.2,0.2,0.2,0.4v7.3
				C306.4-175.7,306.3-175.6,306.2-175.6z M306.2-190.1c-0.1,0-0.2-0.2-0.2-0.4v-7.3c0-0.2,0.1-0.4,0.2-0.4c0.1,0,0.2,0.2,0.2,0.4
				v7.3C306.4-190.2,306.3-190.1,306.2-190.1z M306.2-204.6c-0.1,0-0.2-0.2-0.2-0.4v-7.3c0-0.2,0.1-0.4,0.2-0.4
				c0.1,0,0.2,0.2,0.2,0.4v7.3C306.4-204.7,306.3-204.6,306.2-204.6z M306.2-219.1c-0.1,0-0.2-0.2-0.2-0.4v-7.3
				c0-0.2,0.1-0.4,0.2-0.4c0.1,0,0.2,0.2,0.2,0.4v7.3C306.4-219.3,306.3-219.1,306.2-219.1z M306.2-233.6c-0.1,0-0.2-0.2-0.2-0.4
				v-7.2c0-0.2,0.1-0.4,0.2-0.4c0.1,0,0.2,0.2,0.2,0.4v7.3C306.4-233.8,306.3-233.6,306.2-233.6z M306.2-248.1
				c-0.1,0-0.2-0.2-0.2-0.4v-1.3c0-0.2,0.1-0.4,0.2-0.4c0.1,0,0.2,0.2,0.2,0.4v1.3C306.4-248.3,306.3-248.1,306.2-248.1z"/>
			<path class="st7" d="M340.2-44.9c-0.1,0-0.2-0.2-0.2-0.4v-7.3c0-0.2,0.1-0.4,0.2-0.4s0.2,0.2,0.2,0.4v7.3
				C340.5-45.1,340.4-44.9,340.2-44.9z M340.2-59.5c-0.1,0-0.2-0.2-0.2-0.4v-7.3c0-0.2,0.1-0.4,0.2-0.4s0.2,0.2,0.2,0.4v7.3
				C340.5-59.6,340.4-59.5,340.2-59.5z M340.2-74c-0.1,0-0.2-0.2-0.2-0.4v-7.3c0-0.2,0.1-0.4,0.2-0.4s0.2,0.2,0.2,0.4v7.3
				C340.5-74.1,340.4-74,340.2-74z M340.2-88.5c-0.1,0-0.2-0.2-0.2-0.4v-7.3c0-0.2,0.1-0.4,0.2-0.4s0.2,0.2,0.2,0.4v7.3
				C340.5-88.6,340.4-88.5,340.2-88.5z M340.2-103c-0.1,0-0.2-0.2-0.2-0.4v-7.3c0-0.2,0.1-0.4,0.2-0.4s0.2,0.2,0.2,0.4v7.3
				C340.5-103.2,340.4-103,340.2-103z M340.2-117.5c-0.1,0-0.2-0.2-0.2-0.4v-7.3c0-0.2,0.1-0.4,0.2-0.4s0.2,0.2,0.2,0.4v7.3
				C340.5-117.7,340.4-117.5,340.2-117.5z M340.2-132c-0.1,0-0.2-0.2-0.2-0.4v-7.3c0-0.2,0.1-0.4,0.2-0.4s0.2,0.2,0.2,0.4v7.3
				C340.5-132.2,340.4-132,340.2-132z M340.2-146.5c-0.1,0-0.2-0.2-0.2-0.4v-7.3c0-0.2,0.1-0.4,0.2-0.4s0.2,0.2,0.2,0.4v7.3
				C340.5-146.7,340.4-146.5,340.2-146.5z M340.2-161c-0.1,0-0.2-0.2-0.2-0.4v-7.3c0-0.2,0.1-0.4,0.2-0.4s0.2,0.2,0.2,0.4v7.3
				C340.5-161.2,340.4-161,340.2-161z M340.2-175.6c-0.1,0-0.2-0.2-0.2-0.4v-7.3c0-0.2,0.1-0.4,0.2-0.4s0.2,0.2,0.2,0.4v7.3
				C340.5-175.7,340.4-175.6,340.2-175.6z M340.2-190.1c-0.1,0-0.2-0.2-0.2-0.4v-7.3c0-0.2,0.1-0.4,0.2-0.4s0.2,0.2,0.2,0.4v7.3
				C340.5-190.2,340.4-190.1,340.2-190.1z M340.2-204.6c-0.1,0-0.2-0.2-0.2-0.4v-7.3c0-0.2,0.1-0.4,0.2-0.4s0.2,0.2,0.2,0.4v7.3
				C340.5-204.7,340.4-204.6,340.2-204.6z M340.2-219.1c-0.1,0-0.2-0.2-0.2-0.4v-7.3c0-0.2,0.1-0.4,0.2-0.4s0.2,0.2,0.2,0.4v7.3
				C340.5-219.3,340.4-219.1,340.2-219.1z M340.2-233.6c-0.1,0-0.2-0.2-0.2-0.4v-7.2c0-0.2,0.1-0.4,0.2-0.4s0.2,0.2,0.2,0.4v7.3
				C340.5-233.8,340.4-233.6,340.2-233.6z M340.2-248.1c-0.1,0-0.2-0.2-0.2-0.4v-1.3c0-0.2,0.1-0.4,0.2-0.4s0.2,0.2,0.2,0.4v1.3
				C340.5-248.3,340.4-248.1,340.2-248.1z"/>
			<path class="st7" d="M374.3-44.9c-0.1,0-0.2-0.2-0.2-0.4v-7.3c0-0.2,0.1-0.4,0.2-0.4s0.2,0.2,0.2,0.4v7.3
				C374.5-45.1,374.4-44.9,374.3-44.9z M374.3-59.5c-0.1,0-0.2-0.2-0.2-0.4v-7.3c0-0.2,0.1-0.4,0.2-0.4s0.2,0.2,0.2,0.4v7.3
				C374.5-59.6,374.4-59.5,374.3-59.5z M374.3-74c-0.1,0-0.2-0.2-0.2-0.4v-7.3c0-0.2,0.1-0.4,0.2-0.4s0.2,0.2,0.2,0.4v7.3
				C374.5-74.1,374.4-74,374.3-74z M374.3-88.5c-0.1,0-0.2-0.2-0.2-0.4v-7.3c0-0.2,0.1-0.4,0.2-0.4s0.2,0.2,0.2,0.4v7.3
				C374.5-88.6,374.4-88.5,374.3-88.5z M374.3-103c-0.1,0-0.2-0.2-0.2-0.4v-7.3c0-0.2,0.1-0.4,0.2-0.4s0.2,0.2,0.2,0.4v7.3
				C374.5-103.2,374.4-103,374.3-103z M374.3-117.5c-0.1,0-0.2-0.2-0.2-0.4v-7.3c0-0.2,0.1-0.4,0.2-0.4s0.2,0.2,0.2,0.4v7.3
				C374.5-117.7,374.4-117.5,374.3-117.5z M374.3-132c-0.1,0-0.2-0.2-0.2-0.4v-7.3c0-0.2,0.1-0.4,0.2-0.4s0.2,0.2,0.2,0.4v7.3
				C374.5-132.2,374.4-132,374.3-132z M374.3-146.5c-0.1,0-0.2-0.2-0.2-0.4v-7.3c0-0.2,0.1-0.4,0.2-0.4s0.2,0.2,0.2,0.4v7.3
				C374.5-146.7,374.4-146.5,374.3-146.5z M374.3-161c-0.1,0-0.2-0.2-0.2-0.4v-7.3c0-0.2,0.1-0.4,0.2-0.4s0.2,0.2,0.2,0.4v7.3
				C374.5-161.2,374.4-161,374.3-161z M374.3-175.6c-0.1,0-0.2-0.2-0.2-0.4v-7.3c0-0.2,0.1-0.4,0.2-0.4s0.2,0.2,0.2,0.4v7.3
				C374.5-175.7,374.4-175.6,374.3-175.6z M374.3-190.1c-0.1,0-0.2-0.2-0.2-0.4v-7.3c0-0.2,0.1-0.4,0.2-0.4s0.2,0.2,0.2,0.4v7.3
				C374.5-190.2,374.4-190.1,374.3-190.1z M374.3-204.6c-0.1,0-0.2-0.2-0.2-0.4v-7.3c0-0.2,0.1-0.4,0.2-0.4s0.2,0.2,0.2,0.4v7.3
				C374.5-204.7,374.4-204.6,374.3-204.6z M374.3-219.1c-0.1,0-0.2-0.2-0.2-0.4v-7.3c0-0.2,0.1-0.4,0.2-0.4s0.2,0.2,0.2,0.4v7.3
				C374.5-219.3,374.4-219.1,374.3-219.1z M374.3-233.6c-0.1,0-0.2-0.2-0.2-0.4v-7.2c0-0.2,0.1-0.4,0.2-0.4s0.2,0.2,0.2,0.4v7.3
				C374.5-233.8,374.4-233.6,374.3-233.6z M374.3-248.1c-0.1,0-0.2-0.2-0.2-0.4v-1.3c0-0.2,0.1-0.4,0.2-0.4s0.2,0.2,0.2,0.4v1.3
				C374.5-248.3,374.4-248.1,374.3-248.1z"/>
			<path class="st7" d="M408.3-44.9c-0.1,0-0.2-0.2-0.2-0.4v-7.3c0-0.2,0.1-0.4,0.2-0.4s0.2,0.2,0.2,0.4v7.3
				C408.6-45.1,408.4-44.9,408.3-44.9z M408.3-59.5c-0.1,0-0.2-0.2-0.2-0.4v-7.3c0-0.2,0.1-0.4,0.2-0.4s0.2,0.2,0.2,0.4v7.3
				C408.6-59.6,408.4-59.5,408.3-59.5z M408.3-74c-0.1,0-0.2-0.2-0.2-0.4v-7.3c0-0.2,0.1-0.4,0.2-0.4s0.2,0.2,0.2,0.4v7.3
				C408.6-74.1,408.4-74,408.3-74z M408.3-88.5c-0.1,0-0.2-0.2-0.2-0.4v-7.3c0-0.2,0.1-0.4,0.2-0.4s0.2,0.2,0.2,0.4v7.3
				C408.6-88.6,408.4-88.5,408.3-88.5z M408.3-103c-0.1,0-0.2-0.2-0.2-0.4v-7.3c0-0.2,0.1-0.4,0.2-0.4s0.2,0.2,0.2,0.4v7.3
				C408.6-103.2,408.4-103,408.3-103z M408.3-117.5c-0.1,0-0.2-0.2-0.2-0.4v-7.3c0-0.2,0.1-0.4,0.2-0.4s0.2,0.2,0.2,0.4v7.3
				C408.6-117.7,408.4-117.5,408.3-117.5z M408.3-132c-0.1,0-0.2-0.2-0.2-0.4v-7.3c0-0.2,0.1-0.4,0.2-0.4s0.2,0.2,0.2,0.4v7.3
				C408.6-132.2,408.4-132,408.3-132z M408.3-146.5c-0.1,0-0.2-0.2-0.2-0.4v-7.3c0-0.2,0.1-0.4,0.2-0.4s0.2,0.2,0.2,0.4v7.3
				C408.6-146.7,408.4-146.5,408.3-146.5z M408.3-161c-0.1,0-0.2-0.2-0.2-0.4v-7.3c0-0.2,0.1-0.4,0.2-0.4s0.2,0.2,0.2,0.4v7.3
				C408.6-161.2,408.4-161,408.3-161z M408.3-175.6c-0.1,0-0.2-0.2-0.2-0.4v-7.3c0-0.2,0.1-0.4,0.2-0.4s0.2,0.2,0.2,0.4v7.3
				C408.6-175.7,408.4-175.6,408.3-175.6z M408.3-190.1c-0.1,0-0.2-0.2-0.2-0.4v-7.3c0-0.2,0.1-0.4,0.2-0.4s0.2,0.2,0.2,0.4v7.3
				C408.6-190.2,408.4-190.1,408.3-190.1z M408.3-204.6c-0.1,0-0.2-0.2-0.2-0.4v-7.3c0-0.2,0.1-0.4,0.2-0.4s0.2,0.2,0.2,0.4v7.3
				C408.6-204.7,408.4-204.6,408.3-204.6z M408.3-219.1c-0.1,0-0.2-0.2-0.2-0.4v-7.3c0-0.2,0.1-0.4,0.2-0.4s0.2,0.2,0.2,0.4v7.3
				C408.6-219.3,408.4-219.1,408.3-219.1z M408.3-233.6c-0.1,0-0.2-0.2-0.2-0.4v-7.2c0-0.2,0.1-0.4,0.2-0.4s0.2,0.2,0.2,0.4v7.3
				C408.6-233.8,408.4-233.6,408.3-233.6z M408.3-248.1c-0.1,0-0.2-0.2-0.2-0.4v-1.3c0-0.2,0.1-0.4,0.2-0.4s0.2,0.2,0.2,0.4v1.3
				C408.6-248.3,408.4-248.1,408.3-248.1z"/>
		</g>
		<path class="st7" d="M442.4-44.9c-0.1,0-0.2-0.2-0.2-0.4v-7.3c0-0.2,0.1-0.4,0.2-0.4s0.2,0.2,0.2,0.4v7.3
			C442.6-45.1,442.5-44.9,442.4-44.9z M442.4-59.5c-0.1,0-0.2-0.2-0.2-0.4v-7.3c0-0.2,0.1-0.4,0.2-0.4s0.2,0.2,0.2,0.4v7.3
			C442.6-59.6,442.5-59.5,442.4-59.5z M442.4-74c-0.1,0-0.2-0.2-0.2-0.4v-7.3c0-0.2,0.1-0.4,0.2-0.4s0.2,0.2,0.2,0.4v7.3
			C442.6-74.1,442.5-74,442.4-74z M442.4-88.5c-0.1,0-0.2-0.2-0.2-0.4v-7.3c0-0.2,0.1-0.4,0.2-0.4s0.2,0.2,0.2,0.4v7.3
			C442.6-88.6,442.5-88.5,442.4-88.5z M442.4-103c-0.1,0-0.2-0.2-0.2-0.4v-7.3c0-0.2,0.1-0.4,0.2-0.4s0.2,0.2,0.2,0.4v7.3
			C442.6-103.2,442.5-103,442.4-103z M442.4-117.5c-0.1,0-0.2-0.2-0.2-0.4v-7.3c0-0.2,0.1-0.4,0.2-0.4s0.2,0.2,0.2,0.4v7.3
			C442.6-117.7,442.5-117.5,442.4-117.5z M442.4-132c-0.1,0-0.2-0.2-0.2-0.4v-7.3c0-0.2,0.1-0.4,0.2-0.4s0.2,0.2,0.2,0.4v7.3
			C442.6-132.2,442.5-132,442.4-132z M442.4-146.5c-0.1,0-0.2-0.2-0.2-0.4v-7.3c0-0.2,0.1-0.4,0.2-0.4s0.2,0.2,0.2,0.4v7.3
			C442.6-146.7,442.5-146.5,442.4-146.5z M442.4-161c-0.1,0-0.2-0.2-0.2-0.4v-7.3c0-0.2,0.1-0.4,0.2-0.4s0.2,0.2,0.2,0.4v7.3
			C442.6-161.2,442.5-161,442.4-161z M442.4-175.6c-0.1,0-0.2-0.2-0.2-0.4v-7.3c0-0.2,0.1-0.4,0.2-0.4s0.2,0.2,0.2,0.4v7.3
			C442.6-175.7,442.5-175.6,442.4-175.6z M442.4-190.1c-0.1,0-0.2-0.2-0.2-0.4v-7.3c0-0.2,0.1-0.4,0.2-0.4s0.2,0.2,0.2,0.4v7.3
			C442.6-190.2,442.5-190.1,442.4-190.1z M442.4-204.6c-0.1,0-0.2-0.2-0.2-0.4v-7.3c0-0.2,0.1-0.4,0.2-0.4s0.2,0.2,0.2,0.4v7.3
			C442.6-204.7,442.5-204.6,442.4-204.6z M442.4-219.1c-0.1,0-0.2-0.2-0.2-0.4v-7.3c0-0.2,0.1-0.4,0.2-0.4s0.2,0.2,0.2,0.4v7.3
			C442.6-219.3,442.5-219.1,442.4-219.1z M442.4-233.6c-0.1,0-0.2-0.2-0.2-0.4v-7.2c0-0.2,0.1-0.4,0.2-0.4s0.2,0.2,0.2,0.4v7.3
			C442.6-233.8,442.5-233.6,442.4-233.6z M442.4-248.1c-0.1,0-0.2-0.2-0.2-0.4v-1.3c0-0.2,0.1-0.4,0.2-0.4s0.2,0.2,0.2,0.4v1.3
			C442.6-248.3,442.5-248.1,442.4-248.1z"/>
	</g>
	<g>
		<path class="st7" d="M101.7-45.2c0,0.9-0.5,1.7-1.1,1.7s-1-0.8-1-1.7s0.5-1.7,1.1-1.7S101.7-46.1,101.7-45.2z"/>
		<path class="st7" d="M126.8-45.2c0,0.9-0.5,1.7-1.1,1.7s-1.1-0.8-1.1-1.7s0.5-1.7,1.1-1.7S126.8-46.1,126.8-45.2z"/>
		<path class="st7" d="M151.9-45.2c0,0.9-0.5,1.7-1.1,1.7c-0.6,0-1.1-0.8-1.1-1.7s0.5-1.7,1.1-1.7C151.4-46.9,151.9-46.1,151.9-45.2
			z"/>
		<path class="st7" d="M177-45.2c0,0.9-0.5,1.7-1.1,1.7s-1.1-0.8-1.1-1.7s0.5-1.7,1.1-1.7S177-46.1,177-45.2z"/>
		<path class="st7" d="M202-45.2c0,0.9-0.5,1.7-1.1,1.7s-1.1-0.8-1.1-1.7s0.5-1.7,1.1-1.7C201.6-46.9,202-46.1,202-45.2z"/>
		<path class="st7" d="M252.2-45.2c0,0.9-0.5,1.7-1.1,1.7s-1.1-0.8-1.1-1.7s0.5-1.7,1.1-1.7S252.2-46.1,252.2-45.2z"/>
		<path class="st7" d="M302.4-45.2c0,0.9-0.5,1.7-1.1,1.7c-0.6,0-1.1-0.8-1.1-1.7s0.5-1.7,1.1-1.7C301.9-46.9,302.4-46.1,302.4-45.2
			z"/>
		<path class="st7" d="M327.4-45.2c0,0.9-0.5,1.7-1.1,1.7c-0.6,0-1.1-0.8-1.1-1.7s0.5-1.7,1.1-1.7C327-46.9,327.4-46.1,327.4-45.2z"
			/>
		<path class="st7" d="M277.3-45.2c0,0.9-0.5,1.7-1.1,1.7c-0.6,0-1.1-0.8-1.1-1.7s0.5-1.7,1.1-1.7C276.8-46.9,277.3-46.1,277.3-45.2
			z"/>
		<path class="st7" d="M227.1-45.2c0,0.9-0.5,1.7-1.1,1.7c-0.6,0-1.1-0.8-1.1-1.7s0.5-1.7,1.1-1.7C226.6-46.9,227.1-46.1,227.1-45.2
			z"/>
		<path class="st7" d="M352.5-45.2c0,0.9-0.5,1.7-1.1,1.7s-1.1-0.8-1.1-1.7s0.5-1.7,1.1-1.7S352.5-46.1,352.5-45.2z"/>
		<path class="st7" d="M377.6-45.2c0,0.9-0.5,1.7-1.1,1.7s-1.1-0.8-1.1-1.7s0.5-1.7,1.1-1.7S377.6-46.1,377.6-45.2z"/>
	</g>
</g>
<g id="J1m0bI.tif">
	
		<image style="overflow:visible;" width="564" height="1001" id="Layer_0_1_" xlink:href="B5BC55A521290232.png"  transform="matrix(0.6493 0 0 0.6493 -541 -96.2)">
	</image>
</g>
<line class="st8" x1="20.8" y1="65.6" x2="257.7" y2="65.6"/>
<line class="st8" x1="20.8" y1="96.9" x2="257.7" y2="96.9"/>
<line class="st8" x1="20.8" y1="128.1" x2="257.7" y2="128.1"/>
<line class="st8" x1="20.8" y1="159.4" x2="257.7" y2="159.4"/>
<g>
	<path class="st9" d="M23.5,188.6h-1.1v-7.4l-1.7,0v-0.8l2.7-0.3V188.6z"/>
	<path class="st9" d="M54.7,188.6h-5.2v-0.8l2.6-3.1c0.5-0.6,0.8-1,1-1.3s0.3-0.7,0.3-1c0-0.4-0.1-0.8-0.4-1.1
		c-0.2-0.3-0.5-0.4-0.9-0.4c-0.6,0-1,0.2-1.2,0.5c-0.3,0.3-0.4,0.7-0.4,1.3h-1l0,0c0-0.7,0.2-1.4,0.7-1.9s1.1-0.8,2-0.8
		c0.7,0,1.3,0.2,1.7,0.7s0.6,1,0.6,1.7c0,0.5-0.1,0.9-0.4,1.4c-0.3,0.5-0.6,1-1.1,1.5l-2.1,2.4l0,0h3.9V188.6z"/>
	<path class="st9" d="M80,183.8h1c0.5,0,0.8-0.1,1-0.4s0.3-0.6,0.3-1.1c0-0.5-0.1-0.9-0.3-1.1c-0.2-0.3-0.6-0.4-1-0.4
		c-0.4,0-0.8,0.1-1,0.4c-0.3,0.3-0.4,0.6-0.4,1.1h-1l0,0c0-0.6,0.2-1.2,0.7-1.6c0.5-0.5,1.1-0.7,1.8-0.7c0.7,0,1.3,0.2,1.8,0.6
		c0.4,0.4,0.7,1,0.7,1.8c0,0.4-0.1,0.7-0.3,1.1c-0.2,0.3-0.5,0.6-0.9,0.8c0.5,0.2,0.8,0.4,1,0.8c0.2,0.4,0.3,0.8,0.3,1.2
		c0,0.8-0.2,1.4-0.7,1.8c-0.5,0.4-1.1,0.7-1.8,0.7c-0.7,0-1.3-0.2-1.8-0.6c-0.5-0.4-0.7-1-0.7-1.7l0,0h1c0,0.4,0.1,0.8,0.4,1.1
		c0.3,0.3,0.6,0.4,1.1,0.4c0.5,0,0.8-0.1,1.1-0.4s0.4-0.7,0.4-1.2c0-0.5-0.1-0.9-0.3-1.2c-0.2-0.2-0.6-0.4-1.1-0.4h-1V183.8z"/>
	<path class="st9" d="M112,185.7h1.1v0.9H112v2h-1.1v-2h-3.6v-0.7l3.6-5.9h1.2V185.7z M108.4,185.7h2.5v-4l0,0l-0.1,0.3L108.4,185.7
		z"/>
	<path class="st9" d="M137,184.7l0.5-4.7h4v1h-3.1l-0.3,2.4c0.2-0.1,0.4-0.2,0.6-0.3c0.2-0.1,0.4-0.1,0.7-0.1c0.7,0,1.3,0.2,1.8,0.8
		c0.4,0.5,0.6,1.2,0.6,2.1c0,0.9-0.2,1.5-0.7,2.1c-0.4,0.5-1.1,0.8-1.9,0.8c-0.7,0-1.3-0.2-1.7-0.6c-0.5-0.4-0.7-1-0.7-1.7l0,0h1
		c0,0.5,0.1,0.8,0.4,1.1s0.6,0.4,1,0.4c0.5,0,0.8-0.2,1.1-0.5c0.3-0.3,0.4-0.8,0.4-1.4c0-0.5-0.1-1-0.4-1.3
		c-0.3-0.4-0.6-0.5-1.1-0.5c-0.4,0-0.7,0.1-0.9,0.2c-0.2,0.1-0.3,0.3-0.4,0.6L137,184.7z"/>
	<path class="st9" d="M168.9,179.9c0.3,0,0.6,0,0.8,0.1c0.3,0.1,0.5,0.2,0.7,0.3l-0.2,0.9c-0.2-0.1-0.4-0.2-0.6-0.2
		c-0.2-0.1-0.4-0.1-0.7-0.1c-0.6,0-1,0.2-1.4,0.7c-0.4,0.5-0.5,1.1-0.5,1.9v0.1c0.2-0.2,0.5-0.4,0.8-0.5s0.6-0.2,1-0.2
		c0.7,0,1.3,0.3,1.7,0.8s0.6,1.2,0.6,2c0,0.9-0.2,1.6-0.7,2.2c-0.5,0.6-1.1,0.8-1.8,0.8c-0.8,0-1.4-0.3-2-0.9s-0.8-1.5-0.8-2.6v-1.6
		c0-1.1,0.3-2,0.9-2.7C167.3,180.2,168,179.9,168.9,179.9z M168.5,183.8c-0.4,0-0.7,0.1-1,0.2c-0.3,0.2-0.5,0.4-0.6,0.6v0.7
		c0,0.8,0.2,1.4,0.5,1.8s0.7,0.6,1.2,0.6c0.4,0,0.8-0.2,1-0.6s0.4-0.9,0.4-1.5c0-0.6-0.1-1-0.4-1.4
		C169.4,183.9,169,183.8,168.5,183.8z"/>
	<path class="st9" d="M200.1,180.9c-1,1.2-1.6,2.3-2,3.3s-0.6,2.1-0.7,3.4l-0.1,0.9h-1.1l0.1-0.9c0.2-1.3,0.5-2.5,0.9-3.6
		c0.4-1.1,1.1-2.1,1.8-3.1h-4.4V180h5.5V180.9z"/>
	<path class="st9" d="M228.9,182.3c0,0.4-0.1,0.8-0.4,1.2s-0.6,0.6-1,0.7c0.5,0.2,0.8,0.4,1.1,0.8c0.3,0.4,0.4,0.8,0.4,1.3
		c0,0.8-0.2,1.4-0.7,1.8s-1.1,0.6-1.9,0.6c-0.8,0-1.4-0.2-1.9-0.6s-0.7-1-0.7-1.8c0-0.5,0.1-0.9,0.4-1.3c0.3-0.4,0.6-0.6,1.1-0.8
		c-0.4-0.2-0.7-0.4-0.9-0.7c-0.2-0.3-0.3-0.7-0.3-1.2c0-0.8,0.2-1.3,0.7-1.7s1-0.6,1.7-0.6c0.7,0,1.3,0.2,1.7,0.6
		C228.7,180.9,228.9,181.5,228.9,182.3z M228,186.2c0-0.5-0.1-0.9-0.4-1.2c-0.3-0.3-0.7-0.5-1.1-0.5c-0.5,0-0.8,0.2-1.1,0.5
		c-0.3,0.3-0.4,0.7-0.4,1.2c0,0.5,0.1,0.9,0.4,1.1c0.3,0.3,0.7,0.4,1.1,0.4c0.5,0,0.8-0.1,1.1-0.4C227.9,187.1,228,186.7,228,186.2z
		 M227.8,182.3c0-0.4-0.1-0.8-0.4-1s-0.6-0.4-0.9-0.4c-0.4,0-0.7,0.1-0.9,0.4s-0.4,0.6-0.4,1.1c0,0.4,0.1,0.8,0.4,1
		c0.2,0.3,0.6,0.4,1,0.4c0.4,0,0.7-0.1,0.9-0.4S227.8,182.7,227.8,182.3z"/>
	<path class="st9" d="M255.2,187.8c0.5,0,1-0.2,1.3-0.6s0.5-1.1,0.5-1.9v-0.4c-0.2,0.3-0.4,0.5-0.7,0.6c-0.3,0.1-0.6,0.2-0.9,0.2
		c-0.8,0-1.4-0.3-1.9-0.8s-0.7-1.2-0.7-2.1c0-0.9,0.2-1.6,0.7-2.1s1.1-0.8,1.8-0.8c0.8,0,1.5,0.3,2,0.8s0.7,1.4,0.7,2.5v2
		c0,1.1-0.3,2-0.8,2.6s-1.2,0.9-2.1,0.9c-0.3,0-0.6,0-0.9-0.1c-0.3-0.1-0.6-0.1-0.8-0.3l0.2-0.9c0.2,0.1,0.4,0.2,0.7,0.3
		S254.9,187.8,255.2,187.8z M255.4,184.8c0.4,0,0.7-0.1,1-0.3c0.3-0.2,0.5-0.4,0.6-0.7v-0.7c0-0.7-0.1-1.3-0.4-1.7
		c-0.3-0.4-0.7-0.6-1.2-0.6c-0.4,0-0.7,0.2-1,0.6c-0.3,0.4-0.4,0.9-0.4,1.4c0,0.6,0.1,1.1,0.4,1.4
		C254.6,184.6,254.9,184.8,255.4,184.8z"/>
</g>
<path class="st2" d="M74-38.6c11.3-3.6,20.8-11.8,26.6-22.5c1.4-2.6,2.5-5.4,3.4-8.2c0.9-2.6,2-5.8,4.3-7.3c2.9-2,5.6,0.6,6.6,3.3
	c1,2.7,0.7,5.6,1.2,8.4c0.4,2.5,1.2,5,3.3,6.4c2.3,1.6,5.1,0.7,7.2-0.7c2.7-1.7,4.6-4.4,6.3-7.1c2-3.1,3.7-6.4,5-9.8
	c2.5-6.1,3.8-12.7,5.4-19.1c1.6-6.3,3.8-12.9,8.5-17.5c1.3-1.3,2.9-2,4.7-1.4c1.7,0.6,2.9,2.3,3.7,4.1c1.3,3.4,0.7,7.5,1.3,11.2
	c0.5,3.5,1.8,7,3.6,10.1c1.2,2.1,3.1,3.8,5.5,2.6c2.4-1.2,3.2-4.3,4.2-6.6c0.6-1.4,1.4-2.7,2.7-3.5c1.7-1.2,3.5,0.1,4.2,1.8
	c1.2,3-0.4,6.3,1,9.4c0.9,2.1,3.3,3,5.4,3c6.2,0.1,8.8-6.7,11.4-11.3c1.8-3.3,3.8-6.4,6.3-9.2c2.3-2.8,4.9-5.5,8-7.3
	c3.1-2,6.9-2.4,10.1-0.5c2.8,1.7,4.5,4.9,5.5,8c2.1,6.5,1.7,13.9,6.3,19.4c1.8,2,4.2,3.4,6.9,3.5c3,0.1,5.7-1.7,8-3.5
	c2.7-2,5.1-4.3,8.4-5.3c1.6-0.5,3.4-0.5,4.9,0.3c1.7,0.8,2.6,2.6,3.4,4.3c2.4,5.5,3.3,12.1,8.5,15.6c5.4,3.6,12.3,1.8,17.7-0.7
	c2.1-0.9,4.2-2,6.3-3.1c1.2-0.6,2.4-1,3.8-1.1c1.6-0.1,2.8,1,3.6,2.4c2.6,4.6,1.2,10.7,0.7,15.7c-0.4,3.9,0,7.6,1.8,11.2
	c1.4,2.8,4,4.9,7.2,4.8c0.4,0,0.4-0.7,0-0.7c-6,0.1-8.5-7.3-8.4-12.5c0-3.8,0.8-7.6,0.8-11.4c0-3.1-0.5-6.7-2.7-8.9
	c-2.2-2.3-5.6-0.7-8,0.4c-3.4,1.7-6.8,3.4-10.4,4.5c-3.2,0.9-6.7,1.1-9.9,0c-3.2-1.1-5.4-3.8-6.8-6.9c-1.3-2.9-2.1-5.9-3.3-8.8
	c-1.2-2.8-2.7-5.2-5.6-5.9c-2.8-0.6-5.7,0.7-8,2.2c-2.7,1.8-5,4.2-7.9,5.7c-3.2,1.7-6.7,1.1-9.4-1.2c-2.6-2.3-3.9-5.7-4.8-9
	c-1.6-6.4-1.7-13.7-6.8-18.4c-4.9-4.6-11.4-2-15.8,1.9c-5.3,4.6-9.2,10.6-12.3,16.8c-1.5,2.9-3.1,6-6.1,7.6
	c-2.4,1.3-6.1,1.2-7.8-1.3c-1.1-1.5-0.8-3.6-0.7-5.4c0.1-1.5,0.1-2.9-0.4-4.4c-0.7-2-2.8-3.5-4.7-2.5c-2.4,1.2-3.4,4-4.4,6.3
	c-0.5,1.4-1.3,2.6-2.4,3.6c-1.8,1.6-3.7,0.5-4.8-1.2c-2.1-3.1-3.3-6.9-3.9-10.6c-0.6-3.7-0.1-7.5-1.3-11.2c-0.7-2.2-2.8-4.6-5.2-4.8
	c-2.9-0.3-5,2.2-6.7,4.4c-3.8,4.9-5.5,11.2-7,17.2c-1.7,6.8-3.1,13.6-6.1,20c-1.5,3.3-3.4,6.5-5.5,9.6c-1.9,2.7-4.9,5.6-8.3,5.7
	c-3.7,0.1-5-3.9-5.4-7c-0.4-2.8-0.2-5.5-1.1-8.1c-0.7-2.1-2.2-4.1-4.5-4.5c-2.1-0.4-3.9,1-5.2,2.8c-2.3,3.2-3,7.3-4.6,10.9
	c-1.7,3.9-4,7.5-6.8,10.9C89.3-46.7,82-41.7,73.9-39.2C73.4-39.3,73.6-38.5,74-38.6L74-38.6z"/>
<rect x="84.4" y="27" class="st10" width="100.7" height="10.7"/>
<text transform="matrix(1 0 0 1 84.3669 36.0716)" class="st9 st11 st12">Sustainable Cycle</text>
</svg>
